<svg xmlns="http://www.w3.org/2000/svg" viewBox="0 0 1600 1200" width="1600" height="1200" preserveAspectRatio="xMidYMid slice" role="img" aria-label="Facade of slender vertical fins against a pale sky">
<title>Facade of slender vertical fins against a pale sky</title>
<defs>
<linearGradient id="sky" x1="0" y1="0" x2="0" y2="1"><stop offset="0" stop-color="#e7e9e9" stop-opacity="1"/><stop offset="1" stop-color="#cfd3d5" stop-opacity="1"/></linearGradient>
<linearGradient id="glass" x1="0" y1="0" x2="1" y2="1"><stop offset="0" stop-color="#3c3f42" stop-opacity="1"/><stop offset="0.5" stop-color="#55585b" stop-opacity="1"/><stop offset="1" stop-color="#2e3033" stop-opacity="1"/></linearGradient>
<linearGradient id="fin" x1="0" y1="0" x2="1" y2="0"><stop offset="0" stop-color="#f0f0ec" stop-opacity="1"/><stop offset="0.6" stop-color="#d0d1ce" stop-opacity="1"/><stop offset="1" stop-color="#9fa1a0" stop-opacity="1"/></linearGradient>
<filter id="b30" x="-50%" y="-50%" width="200%" height="200%"><feGaussianBlur stdDeviation="30"/></filter>

<filter id="gr" x="0" y="0" width="100%" height="100%" color-interpolation-filters="sRGB"><feTurbulence type="fractalNoise" baseFrequency="0.9" numOctaves="2" seed="21" stitchTiles="stitch"/><feColorMatrix values="0 0 0 0 0  0 0 0 0 0  0 0 0 0 0  0.7 0 0 0 -0.43"/></filter>
<filter id="grw" x="0" y="0" width="100%" height="100%" color-interpolation-filters="sRGB"><feTurbulence type="fractalNoise" baseFrequency="0.9900000000000001" numOctaves="2" seed="26" stitchTiles="stitch"/><feColorMatrix values="0 0 0 0 1  0 0 0 0 1  0 0 0 0 1  0 0.42 0 0 -0.4"/></filter>
<filter id="mottle" x="0" y="0" width="100%" height="100%" color-interpolation-filters="sRGB"><feTurbulence type="fractalNoise" baseFrequency="0.004 0.006" numOctaves="4" seed="30"/><feColorMatrix values="0 0 0 0 0  0 0 0 0 0  0 0 0 0 0  0.7 0 0 0 -0.26"/></filter><radialGradient id="vig" cx="50%" cy="50%" r="75%"><stop offset="0.55" stop-color="#000" stop-opacity="0"/><stop offset="1" stop-color="#000" stop-opacity="0.38"/></radialGradient>
</defs>
<rect width="1600" height="250" fill="url(#sky)"/>
<rect y="250" width="1600" height="950" fill="url(#glass)"/>
<ellipse cx="1100" cy="700" rx="420" ry="300" fill="#fff" opacity="0.08" filter="url(#b30)"/>
<rect y="560" width="1600" height="22" fill="#9c9e9e"/><rect y="582" width="1600" height="10" fill="#000" opacity="0.28"/><rect y="880" width="1600" height="22" fill="#9c9e9e"/><rect y="902" width="1600" height="10" fill="#000" opacity="0.28"/>
<rect x="2" y="250" width="34" height="950" fill="#1f2022" opacity="0.5"/><rect x="-20" y="250" width="22" height="950" fill="url(#fin)"/><rect x="68" y="250" width="34" height="950" fill="#1f2022" opacity="0.5"/><rect x="46" y="250" width="22" height="950" fill="url(#fin)"/><rect x="134" y="250" width="34" height="950" fill="#1f2022" opacity="0.5"/><rect x="112" y="250" width="22" height="950" fill="url(#fin)"/><rect x="200" y="250" width="34" height="950" fill="#1f2022" opacity="0.5"/><rect x="178" y="250" width="22" height="950" fill="url(#fin)"/><rect x="266" y="250" width="34" height="950" fill="#1f2022" opacity="0.5"/><rect x="244" y="250" width="22" height="950" fill="url(#fin)"/><rect x="332" y="250" width="34" height="950" fill="#1f2022" opacity="0.5"/><rect x="310" y="250" width="22" height="950" fill="url(#fin)"/><rect x="398" y="250" width="34" height="950" fill="#1f2022" opacity="0.5"/><rect x="376" y="250" width="22" height="950" fill="url(#fin)"/><rect x="464" y="250" width="34" height="950" fill="#1f2022" opacity="0.5"/><rect x="442" y="250" width="22" height="950" fill="url(#fin)"/><rect x="530" y="250" width="34" height="950" fill="#1f2022" opacity="0.5"/><rect x="508" y="250" width="22" height="950" fill="url(#fin)"/><rect x="596" y="250" width="34" height="950" fill="#1f2022" opacity="0.5"/><rect x="574" y="250" width="22" height="950" fill="url(#fin)"/><rect x="662" y="250" width="34" height="950" fill="#1f2022" opacity="0.5"/><rect x="640" y="250" width="22" height="950" fill="url(#fin)"/><rect x="728" y="250" width="34" height="950" fill="#1f2022" opacity="0.5"/><rect x="706" y="250" width="22" height="950" fill="url(#fin)"/><rect x="794" y="250" width="34" height="950" fill="#1f2022" opacity="0.5"/><rect x="772" y="250" width="22" height="950" fill="url(#fin)"/><rect x="860" y="250" width="34" height="950" fill="#1f2022" opacity="0.5"/><rect x="838" y="250" width="22" height="950" fill="url(#fin)"/><rect x="926" y="250" width="34" height="950" fill="#1f2022" opacity="0.5"/><rect x="904" y="250" width="22" height="950" fill="url(#fin)"/><rect x="992" y="250" width="34" height="950" fill="#1f2022" opacity="0.5"/><rect x="970" y="250" width="22" height="950" fill="url(#fin)"/><rect x="1058" y="250" width="34" height="950" fill="#1f2022" opacity="0.5"/><rect x="1036" y="250" width="22" height="950" fill="url(#fin)"/><rect x="1124" y="250" width="34" height="950" fill="#1f2022" opacity="0.5"/><rect x="1102" y="250" width="22" height="950" fill="url(#fin)"/><rect x="1190" y="250" width="34" height="950" fill="#1f2022" opacity="0.5"/><rect x="1168" y="250" width="22" height="950" fill="url(#fin)"/><rect x="1256" y="250" width="34" height="950" fill="#1f2022" opacity="0.5"/><rect x="1234" y="250" width="22" height="950" fill="url(#fin)"/><rect x="1322" y="250" width="34" height="950" fill="#1f2022" opacity="0.5"/><rect x="1300" y="250" width="22" height="950" fill="url(#fin)"/><rect x="1388" y="250" width="34" height="950" fill="#1f2022" opacity="0.5"/><rect x="1366" y="250" width="22" height="950" fill="url(#fin)"/><rect x="1454" y="250" width="34" height="950" fill="#1f2022" opacity="0.5"/><rect x="1432" y="250" width="22" height="950" fill="url(#fin)"/><rect x="1520" y="250" width="34" height="950" fill="#1f2022" opacity="0.5"/><rect x="1498" y="250" width="22" height="950" fill="url(#fin)"/><rect x="1586" y="250" width="34" height="950" fill="#1f2022" opacity="0.5"/><rect x="1564" y="250" width="22" height="950" fill="url(#fin)"/>
<rect y="176" width="1600" height="74" fill="#6b6d6f"/>
<rect y="176" width="1600" height="6" fill="#a9abab"/>
<rect y="250" width="1600" height="30" fill="#000" opacity="0.3"/>
<rect width="1600" height="1200" fill="url(#vig)" opacity="0.6"/>
<rect width="1600" height="1200" filter="url(#gr)" opacity="0.75"/><rect width="1600" height="1200" filter="url(#grw)" opacity="0.3375"/></svg>
