<svg xmlns="http://www.w3.org/2000/svg" viewBox="0 0 1600 1200" width="1600" height="1200" preserveAspectRatio="xMidYMid slice" role="img" aria-label="Ground floor plan of a courtyard house">
<title>Ground floor plan of a courtyard house</title>
<defs><pattern id="hatch" width="10" height="10" patternUnits="userSpaceOnUse" patternTransform="rotate(45)"><line x1="0" y1="0" x2="0" y2="10" stroke="#8A8C8E" stroke-width="1" opacity="0.6"/></pattern></defs>
<rect width="1600" height="1200" fill="#F2F2F0"/>
<g font-family="'JetBrains Mono', 'IBM Plex Mono', monospace" font-size="16" fill="#1C1D1F">
<line x1="260" y1="120" x2="260" y2="1090" stroke="#8A8C8E" stroke-width="1" stroke-dasharray="14 6 2 6"/><circle cx="260" cy="96" r="22" fill="none" stroke="#8A8C8E"/><text x="260" y="102" text-anchor="middle">A</text><line x1="560" y1="120" x2="560" y2="1090" stroke="#8A8C8E" stroke-width="1" stroke-dasharray="14 6 2 6"/><circle cx="560" cy="96" r="22" fill="none" stroke="#8A8C8E"/><text x="560" y="102" text-anchor="middle">B</text><line x1="860" y1="120" x2="860" y2="1090" stroke="#8A8C8E" stroke-width="1" stroke-dasharray="14 6 2 6"/><circle cx="860" cy="96" r="22" fill="none" stroke="#8A8C8E"/><text x="860" y="102" text-anchor="middle">C</text><line x1="1100" y1="120" x2="1100" y2="1090" stroke="#8A8C8E" stroke-width="1" stroke-dasharray="14 6 2 6"/><circle cx="1100" cy="96" r="22" fill="none" stroke="#8A8C8E"/><text x="1100" y="102" text-anchor="middle">D</text><line x1="1340" y1="120" x2="1340" y2="1090" stroke="#8A8C8E" stroke-width="1" stroke-dasharray="14 6 2 6"/><circle cx="1340" cy="96" r="22" fill="none" stroke="#8A8C8E"/><text x="1340" y="102" text-anchor="middle">E</text><line x1="160" y1="220" x2="1440" y2="220" stroke="#8A8C8E" stroke-width="1" stroke-dasharray="14 6 2 6"/><circle cx="136" cy="220" r="22" fill="none" stroke="#8A8C8E"/><text x="136" y="226" text-anchor="middle">1</text><line x1="160" y1="520" x2="1440" y2="520" stroke="#8A8C8E" stroke-width="1" stroke-dasharray="14 6 2 6"/><circle cx="136" cy="520" r="22" fill="none" stroke="#8A8C8E"/><text x="136" y="526" text-anchor="middle">2</text><line x1="160" y1="760" x2="1440" y2="760" stroke="#8A8C8E" stroke-width="1" stroke-dasharray="14 6 2 6"/><circle cx="136" cy="760" r="22" fill="none" stroke="#8A8C8E"/><text x="136" y="766" text-anchor="middle">3</text><line x1="160" y1="980" x2="1440" y2="980" stroke="#8A8C8E" stroke-width="1" stroke-dasharray="14 6 2 6"/><circle cx="136" cy="980" r="22" fill="none" stroke="#8A8C8E"/><text x="136" y="986" text-anchor="middle">4</text>
<rect x="560" y="520" width="300" height="240" fill="url(#hatch)"/>
<rect x="860" y="520" width="240" height="240" fill="#e4e5e2"/>
<rect x="252" y="212" width="1096" height="16" fill="#1C1D1F"/><rect x="252" y="972" width="1096" height="16" fill="#1C1D1F"/><rect x="252" y="220" width="16" height="300" fill="#1C1D1F"/><rect x="252" y="640" width="16" height="340" fill="#1C1D1F"/><rect x="1332" y="220" width="16" height="760" fill="#1C1D1F"/>
<rect x="552" y="220" width="16" height="180" fill="#1C1D1F"/><rect x="552" y="520" width="16" height="240" fill="#1C1D1F"/><rect x="560" y="752" width="140" height="16" fill="#1C1D1F"/><rect x="780" y="752" width="320" height="16" fill="#1C1D1F"/><rect x="560" y="512" width="300" height="16" fill="#1C1D1F"/><rect x="1092" y="220" width="16" height="160" fill="#1C1D1F"/><rect x="1092" y="470" width="16" height="290" fill="#1C1D1F"/><rect x="1092" y="860" width="16" height="120" fill="#1C1D1F"/><rect x="852" y="760" width="16" height="220" fill="#1C1D1F"/>
<rect x="560" y="517" width="540" height="6" fill="#F2F2F0"/><line x1="560" y1="519" x2="1100" y2="519" stroke="#1C1D1F" stroke-width="1.5"/><line x1="560" y1="523" x2="1100" y2="523" stroke="#1C1D1F" stroke-width="1"/>
<rect x="1330" y="420" width="20" height="200" fill="#F2F2F0"/><line x1="1336" y1="420" x2="1336" y2="620" stroke="#1C1D1F"/><line x1="1344" y1="420" x2="1344" y2="620" stroke="#1C1D1F"/>
<rect x="250" y="520" width="20" height="120" fill="#F2F2F0"/>
<g transform="translate(268 520) rotate(0)"><path d="M0 0 H110 A110 110 0 0 1 0 110" fill="none" stroke="#1C1D1F" stroke-width="1.2"/><line x1="0" y1="0" x2="0" y2="110" stroke="#1C1D1F" stroke-width="2.5"/></g><g transform="translate(700 768) rotate(0)"><path d="M0 0 H80 A80 80 0 0 1 0 80" fill="none" stroke="#1C1D1F" stroke-width="1.2"/><line x1="0" y1="0" x2="0" y2="80" stroke="#1C1D1F" stroke-width="2.5"/></g><g transform="translate(1108 380) rotate(0)"><path d="M0 0 H90 A90 90 0 0 1 0 90" fill="none" stroke="#1C1D1F" stroke-width="1.2"/><line x1="0" y1="0" x2="0" y2="90" stroke="#1C1D1F" stroke-width="2.5"/></g><g transform="translate(868 868) rotate(-90)"><path d="M0 0 H80 A80 80 0 0 1 0 80" fill="none" stroke="#1C1D1F" stroke-width="1.2"/><line x1="0" y1="0" x2="0" y2="80" stroke="#1C1D1F" stroke-width="2.5"/></g>
<text x="410" y="380" text-anchor="middle" font-size="17" letter-spacing="2">ENTRY</text><text x="410" y="404" text-anchor="middle" font-size="14" fill="#8A8C8E">14.2 m²</text><text x="830" y="380" text-anchor="middle" font-size="17" letter-spacing="2">LIVING / DINING</text><text x="830" y="404" text-anchor="middle" font-size="14" fill="#8A8C8E">48.6 m²</text><text x="1220" y="330" text-anchor="middle" font-size="17" letter-spacing="2">KITCHEN</text><text x="1220" y="354" text-anchor="middle" font-size="14" fill="#8A8C8E">16.0 m²</text><text x="710" y="650" text-anchor="middle" font-size="17" letter-spacing="2">COURT</text><text x="710" y="674" text-anchor="middle" font-size="14" fill="#8A8C8E">open to sky</text><text x="980" y="650" text-anchor="middle" font-size="17" letter-spacing="2">ENGAWA</text><text x="410" y="820" text-anchor="middle" font-size="17" letter-spacing="2">STUDY</text><text x="410" y="844" text-anchor="middle" font-size="14" fill="#8A8C8E">12.4 m²</text><text x="700" y="880" text-anchor="middle" font-size="17" letter-spacing="2">BATH</text><text x="1100" y="920" text-anchor="middle" font-size="17" letter-spacing="2">BEDROOM</text><text x="1100" y="944" text-anchor="middle" font-size="14" fill="#8A8C8E">22.8 m²</text><text x="1220" y="640" text-anchor="middle" font-size="17" letter-spacing="2">STORE</text>
<g stroke="#9DB4C8" stroke-width="1.5" fill="#9DB4C8">
<line x1="260" y1="1120" x2="1340" y2="1120"/><line x1="260" y1="1108" x2="260" y2="1132"/><line x1="1340" y1="1108" x2="1340" y2="1132"/><line x1="560" y1="1112" x2="560" y2="1128"/><line x1="860" y1="1112" x2="860" y2="1128"/><line x1="1100" y1="1112" x2="1100" y2="1128"/>
<line x1="1480" y1="220" x2="1480" y2="980"/><line x1="1468" y1="220" x2="1492" y2="220"/><line x1="1468" y1="980" x2="1492" y2="980"/>
</g>
<g fill="#9DB4C8" font-size="15"><text x="410" y="1110" text-anchor="middle" fill="#5f7d96">5 460</text><text x="710" y="1110" text-anchor="middle" fill="#5f7d96">5 460</text><text x="980" y="1110" text-anchor="middle" fill="#5f7d96">4 550</text><text x="1220" y="1110" text-anchor="middle" fill="#5f7d96">4 550</text><text x="1500" y="606" fill="#5f7d96" transform="rotate(-90 1500 606)">13 650</text></g>
<g transform="translate(1440 1060)"><circle r="34" fill="none" stroke="#1C1D1F"/><path d="M0 -30 L10 14 L0 6 L-10 14 Z" fill="#1C1D1F"/><text y="-44" text-anchor="middle" font-size="15">N</text></g>
<g transform="translate(160 1165)" font-size="13"><rect width="60" height="8" fill="#1C1D1F"/><rect x="60" width="60" height="8" fill="none" stroke="#1C1D1F"/><rect x="120" width="120" height="8" fill="#1C1D1F"/><text y="-8">0</text><text x="120" y="-8">1</text><text x="240" y="-8">5 m</text></g>
<text x="1440" y="1172" text-anchor="end" font-size="13" fill="#8A8C8E">P-061  HANARE HOUSE  —  GROUND FLOOR  1:100</text>
</g></svg>
