<svg xmlns="http://www.w3.org/2000/svg" viewBox="0 0 1200 1500" width="1200" height="1500" preserveAspectRatio="xMidYMid slice" role="img" aria-label="Summer grasses and a single pale flower in a clear glass vase">
<title>Summer grasses and a single pale flower in a clear glass vase</title>
<defs>
<filter id="soft" x="-50%" y="-50%" width="200%" height="200%"><feGaussianBlur stdDeviation="22"/></filter>
<filter id="soft6" x="-50%" y="-50%" width="200%" height="200%"><feGaussianBlur stdDeviation="6"/></filter>
<filter id="ink" x="-5%" y="-5%" width="110%" height="110%"><feTurbulence type="fractalNoise" baseFrequency="0.04" numOctaves="2" seed="41" result="t"/><feDisplacementMap in="SourceGraphic" in2="t" scale="3" xChannelSelector="R" yChannelSelector="G"/></filter>
<filter id="grain" x="0" y="0" width="100%" height="100%"><feTurbulence type="fractalNoise" baseFrequency="0.8" numOctaves="2" seed="48" stitchTiles="stitch" result="n"/><feColorMatrix in="n" type="matrix" values="0 0 0 0 0.45  0 0 0 0 0.36  0 0 0 0 0.36  0 0 0 0.55 -0.24"/></filter>
<filter id="fibre" x="0" y="0" width="100%" height="100%"><feTurbulence type="fractalNoise" baseFrequency="0.003 0.06" numOctaves="3" seed="44" stitchTiles="stitch" result="n"/><feColorMatrix in="n" type="matrix" values="0 0 0 0 0.6  0 0 0 0 0.5  0 0 0 0 0.5  0 0 0 1.4 -0.78"/></filter>
<linearGradient id="g0" x1="0" y1="0" x2="0" y2="1"><stop offset="0" stop-color="#F7F7F1"/><stop offset="1" stop-color="#E7ECE0"/></linearGradient>
</defs>
<rect width="1200" height="1500" fill="url(#g0)"/>
<ellipse cx="840" cy="375" rx="504" ry="450" fill="#D6E3C7" opacity="0.28" filter="url(#soft)"/>
<rect x="0" y="1280" width="1200" height="220" fill="#E3E6DA"/>
<rect x="0" y="1280" width="1200" height="3" fill="#D3D8C8"/>
<ellipse cx="560" cy="1284" rx="154" ry="12" fill="#2A2627" opacity="0.12" filter="url(#soft6)"/>
<rect x="450" y="860" width="220" height="420" rx="10" fill="#E3ECEA" opacity=".55" stroke="#BFCFCC" stroke-width="3"/>
<rect x="454" y="1049" width="212" height="227" rx="8" fill="#C7DAD6" opacity=".55"/>
<rect x="480.8" y="881" width="17.6" height="357" rx="4" fill="#FFFFFF" opacity=".5"/>
<path d="M542.2 1118.9 L533.2 1100.8 L523.8 1083.2 L514.1 1066 L504 1049.3 L493.6 1033 L482.9 1017.2 L471.9 1001.8 L460.8 986.8 L449.4 972.2 L437.9 957.9 L426.2 944.1 L414.4 930.6 L402.6 917.4 L390.6 904.6 L378.7 892.1 L366.7 879.9 L354.8 868 L342.9 856.3 L331.2 845 L319.5 833.9 L308 823 L296.6 812.4 L285.5 801.9 L274.6 791.7 L263.9 781.7 L253.5 771.8 L243.5 762.1 L233.8 752.5 L224.5 743.1 L215.6 733.7 L207.2 724.5 L199.2 715.3 L191.7 706.3 L184.7 697.2 L178.3 688.3 L172.5 679.3 L167.3 670.4 L162.7 661.5 L158.8 652.6 L155.6 643.6 L154.5 644 L157.6 653.1 L161.5 662.1 L166.1 671.1 L171.2 680.1 L177 689.1 L183.4 698.2 L190.3 707.3 L197.8 716.5 L205.7 725.8 L214.1 735.1 L222.9 744.6 L232.2 754.1 L241.8 763.8 L251.7 773.7 L262 783.6 L272.6 793.8 L283.4 804.1 L294.5 814.6 L305.7 825.4 L317.2 836.3 L328.8 847.4 L340.5 858.9 L352.3 870.5 L364.2 882.4 L376 894.6 L387.9 907.1 L399.8 919.9 L411.6 933.1 L423.3 946.5 L434.9 960.4 L446.4 974.6 L457.6 989.1 L468.7 1004.1 L479.5 1019.5 L490.1 1035.3 L500.3 1051.5 L510.2 1068.2 L519.8 1085.3 L529 1103 L537.7 1121.1Z" fill="#7F9A68" opacity="1.0"/>
<ellipse cx="155" cy="643.8" rx="4" ry="11" transform="rotate(-19 155 643.8)" fill="#C9B98A"/>
<ellipse cx="162.1" cy="661.8" rx="4" ry="11" transform="rotate(-19 162.1 661.8)" fill="#C9B98A"/>
<ellipse cx="171.9" cy="679.7" rx="4" ry="11" transform="rotate(-19 171.9 679.7)" fill="#C9B98A"/>
<ellipse cx="184.1" cy="697.7" rx="4" ry="11" transform="rotate(-19 184.1 697.7)" fill="#C9B98A"/>
<ellipse cx="198.5" cy="715.9" rx="4" ry="11" transform="rotate(-19 198.5 715.9)" fill="#C9B98A"/>
<ellipse cx="214.9" cy="734.4" rx="4" ry="11" transform="rotate(-19 214.9 734.4)" fill="#C9B98A"/>
<ellipse cx="233" cy="753.3" rx="4" ry="11" transform="rotate(-19 233 753.3)" fill="#C9B98A"/>
<ellipse cx="252.6" cy="772.7" rx="4" ry="11" transform="rotate(-19 252.6 772.7)" fill="#C9B98A"/>
<path d="M565.5 1119.1 L555.8 1095.4 L545.7 1071.9 L535.1 1048.7 L524.1 1025.9 L512.8 1003.3 L501.2 981.1 L489.2 959.2 L477 937.6 L464.6 916.3 L452 895.3 L439.2 874.7 L426.3 854.4 L413.3 834.5 L400.3 814.9 L387.2 795.6 L374.1 776.7 L361 758.2 L348 740 L335.1 722.2 L322.4 704.8 L309.8 687.7 L297.4 671.1 L285.3 654.8 L273.4 638.9 L261.9 623.4 L250.7 608.3 L239.9 593.5 L229.5 579.2 L219.5 565.3 L210 551.8 L201 538.7 L192.6 526.1 L184.8 513.8 L177.6 502 L171.1 490.6 L165.2 479.6 L160.1 469.1 L155.7 459 L152.1 449.4 L149.3 440.2 L148.1 440.5 L150.9 449.8 L154.4 459.5 L158.8 469.7 L163.9 480.3 L169.7 491.3 L176.2 502.8 L183.4 514.7 L191.1 527 L199.4 539.8 L208.3 553 L217.7 566.6 L227.6 580.6 L237.9 595 L248.6 609.8 L259.7 625 L271.1 640.6 L282.9 656.6 L294.9 672.9 L307.2 689.7 L319.7 706.8 L332.3 724.2 L345.2 742.1 L358.1 760.3 L371.1 778.8 L384.1 797.7 L397.2 817 L410.2 836.5 L423.1 856.5 L436 876.7 L448.7 897.3 L461.3 918.3 L473.6 939.5 L485.7 961.1 L497.6 983 L509.1 1005.2 L520.3 1027.8 L531.1 1050.6 L541.5 1073.7 L551.4 1097.2 L560.9 1120.9Z" fill="#7F9A68" opacity="1.0"/>
<path d="M532.9 1119.3 L525.3 1094.6 L517.4 1070 L509.1 1045.4 L500.4 1021.1 L491.5 996.8 L482.4 972.7 L473 948.8 L463.4 925.1 L453.7 901.6 L443.8 878.3 L433.7 855.3 L423.6 832.5 L413.4 809.9 L403.1 787.7 L392.8 765.7 L382.5 744.1 L372.3 722.8 L362.1 701.9 L351.9 681.3 L341.9 661.1 L332 641.3 L322.3 622 L312.8 603 L303.4 584.5 L294.4 566.5 L285.5 548.9 L277 531.8 L268.9 515.2 L261 499.2 L253.6 483.7 L246.6 468.7 L240 454.3 L233.9 440.4 L228.2 427.2 L223.1 414.6 L218.5 402.6 L214.5 391.2 L211.1 380.6 L208.4 370.5 L206.2 361.2 L205.1 361.5 L207.1 370.8 L209.9 380.9 L213.2 391.7 L217.2 403.1 L221.7 415.1 L226.7 427.8 L232.3 441.1 L238.3 455 L244.8 469.5 L251.7 484.5 L259.1 500.1 L266.8 516.2 L274.8 532.9 L283.2 550 L291.9 567.7 L300.9 585.8 L310.1 604.4 L319.5 623.4 L329.1 642.8 L338.9 662.6 L348.8 682.8 L358.9 703.4 L369 724.4 L379.2 745.7 L389.5 767.3 L399.7 789.2 L410 811.5 L420.1 834 L430.2 856.8 L440.2 879.8 L450.1 903.1 L459.8 926.6 L469.3 950.3 L478.6 974.2 L487.6 998.3 L496.4 1022.5 L504.9 1046.9 L513 1071.4 L520.8 1096 L528.2 1120.7Z" fill="#6F8A5B" opacity="1.0"/>
<path d="M558.8 1119.4 L552.3 1093.7 L545.6 1068.1 L538.6 1042.4 L531.3 1016.8 L523.7 991.2 L516 965.8 L508 940.4 L499.9 915.2 L491.7 890.1 L483.3 865.2 L474.8 840.5 L466.2 816 L457.5 791.8 L448.9 767.8 L440.1 744.1 L431.4 720.8 L422.7 697.7 L414.1 675 L405.5 652.7 L397 630.8 L388.7 609.3 L380.4 588.2 L372.3 567.6 L364.4 547.5 L356.8 527.9 L349.3 508.9 L342.1 490.3 L335.2 472.4 L328.6 455 L322.3 438.3 L316.4 422.2 L310.8 406.7 L305.6 391.9 L300.9 377.9 L296.6 364.5 L292.7 351.9 L289.4 340.1 L286.6 329 L284.2 318.8 L282.5 309.4 L281.3 309.6 L283 319 L285.3 329.3 L288.1 340.4 L291.3 352.3 L295.1 365 L299.3 378.4 L304 392.5 L309.1 407.3 L314.5 422.8 L320.4 439 L326.5 455.8 L333 473.2 L339.8 491.2 L346.9 509.8 L354.2 528.9 L361.8 548.6 L369.5 568.7 L377.5 589.4 L385.6 610.5 L393.9 632 L402.3 653.9 L410.8 676.3 L419.4 699 L428 722 L436.7 745.4 L445.4 769.1 L454 793.1 L462.6 817.3 L471.2 841.8 L479.6 866.4 L488 891.3 L496.2 916.4 L504.2 941.6 L512.1 967 L519.7 992.4 L527.1 1018 L534.3 1043.6 L541.1 1069.2 L547.7 1094.9 L554 1120.6Z" fill="#6F8A5B" opacity="1.0"/>
<ellipse cx="281.9" cy="309.5" rx="4" ry="11" transform="rotate(1.3 281.9 309.5)" fill="#C9B98A"/>
<ellipse cx="285.9" cy="329.2" rx="4" ry="11" transform="rotate(1.3 285.9 329.2)" fill="#C9B98A"/>
<ellipse cx="292" cy="352.1" rx="4" ry="11" transform="rotate(1.3 292 352.1)" fill="#C9B98A"/>
<ellipse cx="300.1" cy="378.1" rx="4" ry="11" transform="rotate(1.3 300.1 378.1)" fill="#C9B98A"/>
<ellipse cx="309.9" cy="407" rx="4" ry="11" transform="rotate(1.3 309.9 407)" fill="#C9B98A"/>
<ellipse cx="321.3" cy="438.6" rx="4" ry="11" transform="rotate(1.3 321.3 438.6)" fill="#C9B98A"/>
<ellipse cx="334.1" cy="472.8" rx="4" ry="11" transform="rotate(1.3 334.1 472.8)" fill="#C9B98A"/>
<ellipse cx="348.1" cy="509.3" rx="4" ry="11" transform="rotate(1.3 348.1 509.3)" fill="#C9B98A"/>
<path d="M551.6 1119.7 L547.8 1092.2 L543.8 1064.6 L539.7 1036.9 L535.4 1009.1 L531 981.3 L526.4 953.4 L521.8 925.5 L517 897.7 L512.2 870 L507.2 842.4 L502.3 814.9 L497.2 787.5 L492.2 760.4 L487.1 733.5 L482 706.9 L476.9 680.6 L471.8 654.6 L466.7 629 L461.7 603.8 L456.7 579 L451.8 554.6 L446.9 530.8 L442.2 507.5 L437.6 484.7 L433 462.5 L428.7 441 L424.4 420.1 L420.4 399.8 L416.5 380.3 L412.8 361.6 L409.3 343.6 L406.1 326.4 L403.1 310.1 L400.3 294.7 L397.8 280.1 L395.6 266.5 L393.6 253.9 L392 242.2 L390.7 231.6 L389.7 222.1 L388.5 222.2 L389.4 231.8 L390.7 242.4 L392.3 254.1 L394.1 266.7 L396.3 280.4 L398.7 294.9 L401.4 310.4 L404.3 326.8 L407.4 344 L410.8 362 L414.3 380.8 L418.1 400.3 L422 420.5 L426.1 441.5 L430.4 463.1 L434.7 485.3 L439.3 508.1 L443.9 531.4 L448.6 555.3 L453.4 579.6 L458.3 604.4 L463.3 629.7 L468.3 655.3 L473.3 681.3 L478.4 707.6 L483.4 734.2 L488.5 761.1 L493.5 788.2 L498.5 815.5 L503.5 843 L508.3 870.7 L513.1 898.4 L517.8 926.2 L522.4 954.1 L526.8 981.9 L531.1 1009.8 L535.3 1037.6 L539.3 1065.3 L543.1 1092.9 L546.7 1120.3Z" fill="#7F9A68" opacity="1.0"/>
<path d="M536 1119.8 L533.8 1096.7 L531.6 1073.5 L529.2 1050.3 L526.8 1027 L524.3 1003.7 L521.7 980.4 L519 957.1 L516.4 933.9 L513.6 910.8 L510.9 887.8 L508.1 864.9 L505.3 842.1 L502.4 819.5 L499.6 797.1 L496.7 774.9 L493.8 753 L491 731.3 L488.1 709.9 L485.3 688.8 L482.5 668.1 L479.7 647.6 L476.9 627.6 L474.2 608 L471.6 588.7 L469 570 L466.5 551.7 L464.1 533.8 L461.8 516.5 L459.5 499.7 L457.4 483.5 L455.4 467.9 L453.5 452.9 L451.8 438.4 L450.1 424.7 L448.7 411.6 L447.3 399.2 L446.2 387.5 L445.2 376.6 L444.3 366.4 L443.7 357 L442.5 357.1 L443.1 366.5 L443.9 376.7 L444.8 387.6 L445.9 399.3 L447.1 411.7 L448.5 424.9 L450.1 438.6 L451.7 453.1 L453.5 468.1 L455.4 483.8 L457.4 500 L459.5 516.8 L461.7 534.2 L464 552 L466.3 570.3 L468.8 589.1 L471.3 608.4 L473.8 628 L476.5 648.1 L479.1 668.5 L481.9 689.3 L484.6 710.4 L487.4 731.8 L490.2 753.5 L493.1 775.4 L495.9 797.6 L498.7 820 L501.5 842.6 L504.3 865.3 L507.1 888.2 L509.8 911.3 L512.5 934.4 L515.1 957.6 L517.6 980.8 L520.1 1004.1 L522.5 1027.4 L524.8 1050.7 L527 1073.9 L529.1 1097.1 L531.1 1120.2Z" fill="#9DB088" opacity="1.0"/>
<path d="M582.9 1119.8 L580.8 1093.7 L578.6 1067.5 L576.4 1041.1 L574 1014.7 L571.6 988.1 L569.1 961.6 L566.6 935 L564 908.5 L561.4 882 L558.7 855.7 L556 829.4 L553.3 803.3 L550.6 777.4 L547.8 751.7 L545 726.2 L542.3 701 L539.5 676.1 L536.8 651.6 L534 627.4 L531.3 603.6 L528.6 580.2 L526 557.3 L523.4 534.9 L520.9 513 L518.4 491.6 L516 470.8 L513.7 450.7 L511.4 431.1 L509.3 412.3 L507.3 394.1 L505.4 376.7 L503.6 360 L501.9 344.1 L500.4 329 L499 314.8 L497.7 301.5 L496.7 289 L495.7 277.6 L495 267.1 L494.4 257.5 L493.2 257.6 L493.8 267.1 L494.4 277.7 L495.3 289.2 L496.3 301.6 L497.4 314.9 L498.7 329.2 L500.2 344.3 L501.7 360.2 L503.4 376.9 L505.2 394.3 L507.1 412.5 L509.1 431.4 L511.2 450.9 L513.4 471.1 L515.7 491.9 L518 513.3 L520.4 535.2 L522.9 557.7 L525.4 580.6 L528 604 L530.6 627.8 L533.3 652 L536 676.5 L538.7 701.4 L541.4 726.6 L544.1 752.1 L546.8 777.8 L549.5 803.7 L552.2 829.8 L554.9 856 L557.5 882.4 L560.1 908.9 L562.6 935.4 L565.1 962 L567.4 988.5 L569.7 1015 L572 1041.5 L574.1 1067.9 L576.1 1094.1 L578 1120.2Z" fill="#6F8A5B" opacity="1.0"/>
<ellipse cx="493.8" cy="257.6" rx="4" ry="11" transform="rotate(14.3 493.8 257.6)" fill="#C9B98A"/>
<ellipse cx="495.1" cy="277.6" rx="4" ry="11" transform="rotate(14.3 495.1 277.6)" fill="#C9B98A"/>
<ellipse cx="497" cy="301.5" rx="4" ry="11" transform="rotate(14.3 497 301.5)" fill="#C9B98A"/>
<ellipse cx="499.6" cy="329.1" rx="4" ry="11" transform="rotate(14.3 499.6 329.1)" fill="#C9B98A"/>
<ellipse cx="502.7" cy="360.1" rx="4" ry="11" transform="rotate(14.3 502.7 360.1)" fill="#C9B98A"/>
<ellipse cx="506.2" cy="394.2" rx="4" ry="11" transform="rotate(14.3 506.2 394.2)" fill="#C9B98A"/>
<ellipse cx="510.3" cy="431.3" rx="4" ry="11" transform="rotate(14.3 510.3 431.3)" fill="#C9B98A"/>
<ellipse cx="514.7" cy="471" rx="4" ry="11" transform="rotate(14.3 514.7 471)" fill="#C9B98A"/>
<path d="M561 1120 L561 1100.1 L561.1 1080.1 L561.2 1060.1 L561.3 1040.1 L561.4 1020.1 L561.6 1000.2 L561.7 980.3 L561.9 960.5 L562.1 940.7 L562.2 921.1 L562.4 901.5 L562.6 882.1 L562.8 862.9 L563 843.7 L563.2 824.8 L563.4 806.1 L563.6 787.6 L563.8 769.3 L563.9 751.2 L564.1 733.4 L564.2 715.9 L564.4 698.6 L564.5 681.7 L564.6 665.1 L564.7 648.8 L564.9 632.8 L565 617.3 L565.1 602.1 L565.2 587.3 L565.3 573 L565.3 559.1 L565.4 545.6 L565.5 532.6 L565.6 520.1 L565.6 508.1 L565.7 496.5 L565.8 485.6 L565.8 475.1 L565.8 465.3 L565.8 456 L564.7 455.9 L564.6 465.2 L564.5 475.1 L564.4 485.5 L564.2 496.5 L564.1 508 L563.9 520.1 L563.8 532.6 L563.6 545.6 L563.4 559.1 L563.2 573 L563 587.3 L562.8 602.1 L562.5 617.3 L562.3 632.8 L562 648.7 L561.8 665 L561.5 681.6 L561.3 698.6 L561 715.8 L560.7 733.3 L560.5 751.1 L560.2 769.2 L560 787.5 L559.8 806 L559.5 824.8 L559.3 843.7 L559.1 862.8 L558.9 882.1 L558.6 901.5 L558.4 921 L558.2 940.7 L558 960.4 L557.7 980.3 L557.5 1000.2 L557.3 1020.1 L557 1040.1 L556.8 1060.1 L556.5 1080.1 L556.3 1100 L556 1120Z" fill="#9DB088" opacity="1.0"/>
<path d="M587.2 1120.4 L589.7 1103.3 L592.3 1086.3 L595.1 1069.4 L597.9 1052.6 L600.8 1035.9 L603.9 1019.3 L607 1002.8 L610.2 986.4 L613.4 970.1 L616.7 953.9 L620.1 937.9 L623.5 922 L626.9 906.3 L630.3 890.7 L633.8 875.3 L637.2 860 L640.6 844.9 L644 830 L647.4 815.3 L650.7 800.8 L654 786.5 L657.2 772.3 L660.4 758.4 L663.5 744.7 L666.5 731.3 L669.4 718.1 L672.3 705.1 L675 692.4 L677.7 679.9 L680.2 667.7 L682.6 655.8 L684.9 644.1 L687 632.7 L689 621.7 L690.9 610.9 L692.6 600.4 L694.1 590.2 L695.4 580.4 L696.6 570.9 L697.6 561.7 L696.4 561.6 L695.4 570.7 L694.1 580.2 L692.7 590 L691.1 600.2 L689.4 610.6 L687.4 621.4 L685.3 632.4 L683.1 643.8 L680.7 655.4 L678.2 667.3 L675.5 679.4 L672.8 691.9 L669.9 704.6 L666.9 717.5 L663.8 730.7 L660.7 744.1 L657.4 757.8 L654.2 771.6 L650.8 785.7 L647.4 800 L644 814.5 L640.6 829.2 L637.1 844.1 L633.6 859.2 L630.2 874.5 L626.7 889.9 L623.2 905.5 L619.8 921.2 L616.4 937.1 L613 953.1 L609.6 969.3 L606.3 985.6 L603.1 1002 L599.9 1018.5 L596.7 1035.2 L593.7 1051.9 L590.7 1068.7 L587.8 1085.6 L585 1102.6 L582.4 1119.6Z" fill="#9DB088" opacity="1.0"/>
<path d="M548.4 1120.6 L552.8 1102.9 L557.4 1085.4 L562.2 1068 L567.1 1050.8 L572.3 1033.7 L577.6 1016.7 L583 999.9 L588.6 983.3 L594.3 966.8 L600 950.6 L605.9 934.4 L611.8 918.5 L617.7 902.7 L623.7 887.2 L629.7 871.8 L635.7 856.6 L641.6 841.6 L647.5 826.8 L653.4 812.2 L659.2 797.9 L665 783.7 L670.6 769.8 L676.2 756.1 L681.6 742.6 L686.9 729.3 L692 716.3 L697 703.5 L701.8 691 L706.5 678.8 L710.9 666.8 L715.1 655 L719.1 643.5 L722.9 632.3 L726.3 621.4 L729.6 610.8 L732.5 600.4 L735.1 590.3 L737.4 580.6 L739.4 571.1 L741 561.9 L739.9 561.7 L738.2 570.8 L736.1 580.3 L733.8 590 L731.1 600 L728.1 610.3 L724.8 620.9 L721.2 631.8 L717.4 642.9 L713.3 654.4 L709 666 L704.4 678 L699.7 690.2 L694.8 702.6 L689.6 715.4 L684.4 728.3 L678.9 741.5 L673.4 754.9 L667.7 768.6 L662 782.5 L656.1 796.6 L650.2 810.9 L644.3 825.5 L638.3 840.3 L632.3 855.3 L626.2 870.4 L620.2 885.8 L614.2 901.4 L608.2 917.2 L602.3 933.1 L596.4 949.3 L590.6 965.6 L584.9 982 L579.2 998.7 L573.7 1015.5 L568.3 1032.4 L563 1049.5 L557.9 1066.8 L552.9 1084.2 L548.2 1101.7 L543.6 1119.4Z" fill="#6F8A5B" opacity="1.0"/>
<ellipse cx="740.5" cy="561.8" rx="4" ry="11" transform="rotate(39.2 740.5 561.8)" fill="#C9B98A"/>
<ellipse cx="736.8" cy="580.4" rx="4" ry="11" transform="rotate(39.2 736.8 580.4)" fill="#C9B98A"/>
<ellipse cx="731.8" cy="600.2" rx="4" ry="11" transform="rotate(39.2 731.8 600.2)" fill="#C9B98A"/>
<ellipse cx="725.6" cy="621.2" rx="4" ry="11" transform="rotate(39.2 725.6 621.2)" fill="#C9B98A"/>
<ellipse cx="718.2" cy="643.2" rx="4" ry="11" transform="rotate(39.2 718.2 643.2)" fill="#C9B98A"/>
<ellipse cx="709.9" cy="666.4" rx="4" ry="11" transform="rotate(39.2 709.9 666.4)" fill="#C9B98A"/>
<ellipse cx="700.8" cy="690.6" rx="4" ry="11" transform="rotate(39.2 700.8 690.6)" fill="#C9B98A"/>
<ellipse cx="690.8" cy="715.8" rx="4" ry="11" transform="rotate(39.2 690.8 715.8)" fill="#C9B98A"/>
<path d="M543.3 1120.7 L550.1 1097.9 L557.2 1075.1 L564.6 1052.5 L572.4 1030.1 L580.4 1007.8 L588.6 985.7 L597.1 963.7 L605.8 941.9 L614.6 920.4 L623.6 899 L632.7 877.9 L641.9 857 L651.2 836.4 L660.5 816 L669.9 795.9 L679.2 776.1 L688.5 756.5 L697.8 737.3 L706.9 718.4 L716 699.8 L725 681.6 L733.7 663.7 L742.3 646.2 L750.8 629.1 L758.9 612.4 L766.9 596.1 L774.6 580.2 L782 564.7 L789 549.7 L795.8 535.1 L802.1 521 L808.1 507.4 L813.7 494.3 L818.8 481.7 L823.5 469.6 L827.7 458 L831.4 447 L834.6 436.5 L837.2 426.6 L839.2 417.3 L838.1 417.1 L836 426.3 L833.3 436.2 L830.1 446.6 L826.4 457.5 L822.1 469 L817.3 481.1 L812.1 493.6 L806.5 506.7 L800.4 520.2 L793.9 534.3 L787.1 548.8 L779.9 563.7 L772.4 579.1 L764.6 594.9 L756.5 611.2 L748.2 627.8 L739.7 644.9 L730.9 662.4 L722 680.2 L713 698.4 L703.9 716.9 L694.6 735.8 L685.3 755 L675.9 774.5 L666.5 794.3 L657.2 814.4 L647.8 834.8 L638.5 855.5 L629.2 876.4 L620.1 897.5 L611 918.9 L602.1 940.4 L593.4 962.2 L584.8 984.2 L576.4 1006.3 L568.3 1028.7 L560.4 1051.1 L552.8 1073.7 L545.5 1096.5 L538.6 1119.3Z" fill="#6F8A5B" opacity="1.0"/>
<path d="M572.4 1120.8 L578.2 1103.6 L584.3 1086.6 L590.7 1069.8 L597.3 1053.3 L604.1 1037.1 L611.1 1021 L618.3 1005.2 L625.7 989.7 L633.2 974.3 L640.8 959.2 L648.5 944.3 L656.3 929.7 L664.1 915.2 L672 901 L679.9 887 L687.8 873.2 L695.7 859.6 L703.6 846.2 L711.4 833.1 L719.1 820.1 L726.7 807.3 L734.1 794.8 L741.5 782.4 L748.7 770.3 L755.7 758.3 L762.6 746.6 L769.2 735 L775.6 723.7 L781.7 712.5 L787.6 701.5 L793.2 690.7 L798.5 680.2 L803.5 669.8 L808.2 659.5 L812.5 649.5 L816.4 639.7 L819.9 630 L823 620.6 L825.7 611.3 L827.9 602.1 L826.8 601.9 L824.5 610.9 L821.8 620.2 L818.6 629.6 L815 639.2 L811.1 648.9 L806.7 658.9 L802 669 L796.9 679.3 L791.5 689.9 L785.8 700.5 L779.8 711.4 L773.6 722.5 L767.1 733.8 L760.3 745.3 L753.4 756.9 L746.2 768.8 L738.9 780.9 L731.5 793.2 L723.9 805.7 L716.2 818.4 L708.4 831.3 L700.5 844.4 L692.6 857.8 L684.7 871.4 L676.7 885.2 L668.8 899.2 L660.9 913.4 L653 927.9 L645.1 942.6 L637.4 957.5 L629.7 972.6 L622.1 988 L614.7 1003.5 L607.4 1019.4 L600.3 1035.4 L593.3 1051.7 L586.6 1068.2 L580 1085 L573.7 1102 L567.7 1119.2Z" fill="#7F9A68" opacity="1.0"/>
<path d="M583.9 1120.9 L592.9 1097.5 L602.3 1074.5 L612.1 1051.7 L622.4 1029.1 L633 1006.9 L643.9 984.9 L655.1 963.3 L666.6 941.9 L678.3 920.8 L690.2 900.1 L702.3 879.6 L714.5 859.5 L726.8 839.7 L739.1 820.2 L751.5 801 L763.8 782.2 L776.2 763.7 L788.4 745.5 L800.5 727.7 L812.6 710.3 L824.4 693.2 L836 676.5 L847.4 660.1 L858.6 644.1 L869.4 628.5 L880 613.2 L890.1 598.4 L899.9 584 L909.3 569.9 L918.2 556.3 L926.6 543.1 L934.5 530.3 L941.9 517.9 L948.7 506 L954.9 494.5 L960.4 483.4 L965.3 472.8 L969.4 462.6 L972.8 452.9 L975.5 443.6 L974.3 443.3 L971.6 452.5 L968.2 462.1 L964 472.2 L959.1 482.8 L953.5 493.8 L947.3 505.2 L940.4 517.1 L933 529.3 L925 542.1 L916.5 555.2 L907.5 568.7 L898 582.7 L888.1 597 L877.8 611.8 L867.2 626.9 L856.2 642.4 L845 658.4 L833.5 674.7 L821.7 691.3 L809.8 708.4 L797.7 725.8 L785.5 743.6 L773.2 761.7 L760.8 780.2 L748.4 799 L736 818.2 L723.6 837.7 L711.3 857.5 L699 877.7 L686.9 898.1 L675 918.9 L663.2 940 L651.6 961.4 L640.3 983.1 L629.2 1005.1 L618.5 1027.3 L608.1 1049.9 L598.1 1072.7 L588.4 1095.8 L579.3 1119.1Z" fill="#6F8A5B" opacity="1.0"/>
<ellipse cx="974.9" cy="443.4" rx="4" ry="11" transform="rotate(50.2 974.9 443.4)" fill="#C9B98A"/>
<ellipse cx="968.8" cy="462.4" rx="4" ry="11" transform="rotate(50.2 968.8 462.4)" fill="#C9B98A"/>
<ellipse cx="959.7" cy="483.1" rx="4" ry="11" transform="rotate(50.2 959.7 483.1)" fill="#C9B98A"/>
<ellipse cx="948" cy="505.6" rx="4" ry="11" transform="rotate(50.2 948 505.6)" fill="#C9B98A"/>
<ellipse cx="933.7" cy="529.8" rx="4" ry="11" transform="rotate(50.2 933.7 529.8)" fill="#C9B98A"/>
<ellipse cx="917.3" cy="555.7" rx="4" ry="11" transform="rotate(50.2 917.3 555.7)" fill="#C9B98A"/>
<ellipse cx="898.9" cy="583.3" rx="4" ry="11" transform="rotate(50.2 898.9 583.3)" fill="#C9B98A"/>
<ellipse cx="878.9" cy="612.5" rx="4" ry="11" transform="rotate(50.2 878.9 612.5)" fill="#C9B98A"/>
<g transform="translate(500 640) rotate(1.6)"><path d="M0 0 C-28.5 -11.5 -27.6 -46 0 -46 C27.6 -46 28.5 -11.5 0 0Z" transform="rotate(0)" fill="#FFFFFF" stroke="#E7D9D5" stroke-width="1.8"/><path d="M0 0 C-28.5 -11.5 -27.6 -46 0 -46 C27.6 -46 28.5 -11.5 0 0Z" transform="rotate(72)" fill="#FFFFFF" stroke="#E7D9D5" stroke-width="1.8"/><path d="M0 0 C-28.5 -11.5 -27.6 -46 0 -46 C27.6 -46 28.5 -11.5 0 0Z" transform="rotate(144)" fill="#FFFFFF" stroke="#E7D9D5" stroke-width="1.8"/><path d="M0 0 C-28.5 -11.5 -27.6 -46 0 -46 C27.6 -46 28.5 -11.5 0 0Z" transform="rotate(216)" fill="#FFFFFF" stroke="#E7D9D5" stroke-width="1.8"/><path d="M0 0 C-28.5 -11.5 -27.6 -46 0 -46 C27.6 -46 28.5 -11.5 0 0Z" transform="rotate(288)" fill="#FFFFFF" stroke="#E7D9D5" stroke-width="1.8"/><line x1="0" y1="0" x2="-1.8" y2="-17.6" stroke="#C9A43B" stroke-width="1.2" opacity=".8"/><circle cx="-1.8" cy="-17.6" r="2.1" fill="#C9A43B"/><line x1="0" y1="0" x2="12.1" y2="-12.6" stroke="#C9A43B" stroke-width="1.2" opacity=".8"/><circle cx="12.1" cy="-12.6" r="2.1" fill="#C9A43B"/><line x1="0" y1="0" x2="18.1" y2="-1.9" stroke="#C9A43B" stroke-width="1.2" opacity=".8"/><circle cx="18.1" cy="-1.9" r="2.1" fill="#C9A43B"/><line x1="0" y1="0" x2="15.3" y2="11.2" stroke="#C9A43B" stroke-width="1.2" opacity=".8"/><circle cx="15.3" cy="11.2" r="2.1" fill="#C9A43B"/><line x1="0" y1="0" x2="6.1" y2="14.4" stroke="#C9A43B" stroke-width="1.2" opacity=".8"/><circle cx="6.1" cy="14.4" r="2.1" fill="#C9A43B"/><line x1="0" y1="0" x2="-3.4" y2="14.6" stroke="#C9A43B" stroke-width="1.2" opacity=".8"/><circle cx="-3.4" cy="14.6" r="2.1" fill="#C9A43B"/><line x1="0" y1="0" x2="-18.6" y2="8.3" stroke="#C9A43B" stroke-width="1.2" opacity=".8"/><circle cx="-18.6" cy="8.3" r="2.1" fill="#C9A43B"/><line x1="0" y1="0" x2="-15" y2="-3.7" stroke="#C9A43B" stroke-width="1.2" opacity=".8"/><circle cx="-15" cy="-3.7" r="2.1" fill="#C9A43B"/><line x1="0" y1="0" x2="-9.4" y2="-12.3" stroke="#C9A43B" stroke-width="1.2" opacity=".8"/><circle cx="-9.4" cy="-12.3" r="2.1" fill="#C9A43B"/><circle r="5.5" fill="#C9A43B" opacity=".55"/></g>
<rect width="1200" height="1500" filter="url(#fibre)" opacity="0.35"/>
<rect width="1200" height="1500" filter="url(#grain)" opacity="0.5"/>
</svg>
