<svg xmlns="http://www.w3.org/2000/svg" viewBox="0 0 1600 1200" width="1600" height="1200" role="img" aria-label="Morning light through an arched window falls on a wooden counter and a ceramic cup"><defs><filter id="grain" x="0" y="0" width="100%" height="100%"><feTurbulence type="fractalNoise" baseFrequency=".85" numOctaves="2" stitchTiles="stitch" result="n"/><feColorMatrix in="n" type="matrix" values="0 0 0 0 .5  0 0 0 0 .42  0 0 0 0 .33  0 0 0 -1.6 1.05"/></filter>
<linearGradient id="wall" x1="0" y1="0" x2="1" y2="1"><stop offset="0" stop-color="#2A2019"/><stop offset=".6" stop-color="#1D1611"/><stop offset="1" stop-color="#140F0B"/></linearGradient>
<radialGradient id="sky" cx=".55" cy=".35" r=".8"><stop offset="0" stop-color="#FBF3E4"/><stop offset=".55" stop-color="#F1DDBC"/><stop offset="1" stop-color="#D9AE78"/></radialGradient>
<linearGradient id="shaft" x1="1" y1="0" x2="0" y2="1"><stop offset="0" stop-color="#F6E6CC" stop-opacity=".22"/><stop offset="1" stop-color="#F6E6CC" stop-opacity="0"/></linearGradient>
<linearGradient id="top" x1="0" y1="0" x2="0" y2="1"><stop offset="0" stop-color="#7A563B"/><stop offset="1" stop-color="#4A3324"/></linearGradient>
<linearGradient id="front" x1="0" y1="0" x2="0" y2="1"><stop offset="0" stop-color="#2E231B"/><stop offset="1" stop-color="#17110D"/></linearGradient>
<linearGradient id="cup" x1="0" y1="0" x2="1" y2="0"><stop offset="0" stop-color="#B9AC98"/><stop offset=".45" stop-color="#E9E0D1"/><stop offset=".8" stop-color="#F7F1E7"/><stop offset="1" stop-color="#D8CCB9"/></linearGradient>
<radialGradient id="lamp" cx=".5" cy=".5" r=".5"><stop offset="0" stop-color="#E9A65E" stop-opacity=".55"/><stop offset="1" stop-color="#E9A65E" stop-opacity="0"/></radialGradient>
<clipPath id="win"><path d="M1000 760 V330 a190 190 0 0 1 380 0 V760 Z"/></clipPath>
</defs>
<rect width="1600" height="1200" fill="url(#wall)"/>
<circle cx="330" cy="300" r="260" fill="url(#lamp)"/>
<line x1="330" y1="0" x2="330" y2="230" stroke="#0E0A08" stroke-width="3"/>
<path d="M262 292 q68 -82 136 0 z" fill="#C47A3A"/><path d="M262 292 h136" stroke="#8E5226" stroke-width="5"/>
<ellipse cx="330" cy="296" rx="26" ry="8" fill="#FCE3B6"/>
<path d="M1000 760 V330 a190 190 0 0 1 380 0 V760 Z" fill="#120D0A" transform="translate(14 14)" opacity=".7"/>
<g clip-path="url(#win)">
<rect x="990" y="120" width="400" height="660" fill="url(#sky)"/>
<g fill="#B9B48E" opacity=".55"><circle cx="1060" cy="660" r="90"/><circle cx="1160" cy="700" r="110"/><circle cx="1320" cy="640" r="100"/><circle cx="1250" cy="560" r="70"/></g>
<g fill="#8F8C6A" opacity=".45"><circle cx="1110" cy="740" r="80"/><circle cx="1340" cy="730" r="90"/></g>
</g>
<g stroke="#1A1410" stroke-width="12" fill="none"><path d="M1000 760 V330 a190 190 0 0 1 380 0 V760 Z"/><line x1="1190" y1="140" x2="1190" y2="760"/><line x1="1000" y1="430" x2="1380" y2="430"/><line x1="1000" y1="600" x2="1380" y2="600"/></g>
<rect x="970" y="760" width="440" height="22" fill="#3A2B20"/>
<polygon points="1000,420 1380,330 900,860 160,860" fill="url(#shaft)"/>
<rect x="0" y="820" width="1600" height="44" fill="url(#top)"/>
<rect x="0" y="820" width="1600" height="4" fill="#9A7253" opacity=".8"/>
<rect x="0" y="864" width="1600" height="336" fill="url(#front)"/>
<g stroke="#0F0B08" stroke-width="3" opacity=".7"><line x1="40" y1="880" x2="40" y2="1200"/><line x1="120" y1="880" x2="120" y2="1200"/><line x1="200" y1="880" x2="200" y2="1200"/><line x1="280" y1="880" x2="280" y2="1200"/><line x1="360" y1="880" x2="360" y2="1200"/><line x1="440" y1="880" x2="440" y2="1200"/><line x1="520" y1="880" x2="520" y2="1200"/><line x1="600" y1="880" x2="600" y2="1200"/><line x1="680" y1="880" x2="680" y2="1200"/><line x1="760" y1="880" x2="760" y2="1200"/><line x1="840" y1="880" x2="840" y2="1200"/><line x1="920" y1="880" x2="920" y2="1200"/><line x1="1000" y1="880" x2="1000" y2="1200"/><line x1="1080" y1="880" x2="1080" y2="1200"/><line x1="1160" y1="880" x2="1160" y2="1200"/><line x1="1240" y1="880" x2="1240" y2="1200"/><line x1="1320" y1="880" x2="1320" y2="1200"/><line x1="1400" y1="880" x2="1400" y2="1200"/><line x1="1480" y1="880" x2="1480" y2="1200"/><line x1="1560" y1="880" x2="1560" y2="1200"/></g>
<path d="M330 826 L760 826 L640 862 L190 862 Z" fill="#F6E6CC" opacity=".16"/>
<ellipse cx="560" cy="836" rx="170" ry="22" fill="#0E0A08" opacity=".55"/>
<ellipse cx="560" cy="826" rx="152" ry="24" fill="#E4D9C8"/>
<ellipse cx="560" cy="822" rx="118" ry="16" fill="#CFC2AD"/>
<path d="M648 700 c58 -6 74 64 10 82" fill="none" stroke="#DCCFBB" stroke-width="18" stroke-linecap="round"/>
<path d="M466 700 h188 c-4 60 -16 106 -40 116 h-108 c-24 -10 -36 -56 -40 -116 z" fill="url(#cup)"/>
<ellipse cx="560" cy="700" rx="94" ry="17" fill="#F6F0E6"/>
<ellipse cx="560" cy="702" rx="82" ry="12" fill="#2A170C"/>
<ellipse cx="548" cy="700" rx="40" ry="4" fill="#6B3D1D" opacity=".7"/>
<path d="M526.0 668 c -18 -34.199999999999996 18 -60.800000000000004 0 -95.0 s -18 -60.800000000000004 0 -95.0" fill="none" stroke="#F3EDE4" stroke-width="6" stroke-linecap="round" opacity="0.24"/><path d="M560.0 668 c -18 -34.199999999999996 18 -60.800000000000004 0 -95.0 s -18 -60.800000000000004 0 -95.0" fill="none" stroke="#F3EDE4" stroke-width="6" stroke-linecap="round" opacity="0.32"/><path d="M594.0 668 c -18 -34.199999999999996 18 -60.800000000000004 0 -95.0 s -18 -60.800000000000004 0 -95.0" fill="none" stroke="#F3EDE4" stroke-width="6" stroke-linecap="round" opacity="0.24"/>
<path d="M236 820 c-10 -60 6 -100 20 -110 h20 c14 10 30 50 20 110 z" fill="#8B7355"/>
<path d="M266 712 c-6 -80 10 -140 40 -190" fill="none" stroke="#5E4A33" stroke-width="4"/>
<path d="M300 540 c30 -16 54 -6 64 14 c-30 10 -50 6 -64 -14 z" fill="#7F8A5E"/>
<path d="M282 612 c-30 -14 -52 -2 -60 18 c28 8 48 2 60 -18 z" fill="#6E7A52"/>
<g fill="#E6D8C3" opacity=".9"><rect x="1220" y="790" width="40" height="30" rx="4"/><rect x="1270" y="796" width="34" height="24" rx="4"/></g>
<rect width="1600" height="1200" filter="url(#grain)" opacity="0.22"/></svg>
