<svg xmlns="http://www.w3.org/2000/svg" width="1000" height="1400" viewBox="0 0 1000 1400"><defs><filter id="grain" x="0" y="0" width="100%" height="100%"><feTurbulence type="fractalNoise" baseFrequency="0.85" numOctaves="2" seed="7" stitchTiles="stitch"/><feColorMatrix values="0 0 0 0 0.11 0 0 0 0 0.10 0 0 0 0 0.09 3.4 0 0 0 -1.62"/></filter></defs><rect width="1000" height="1400" fill="#F3EDE0"/><rect x="70" y="470" width="860" height="700" fill="#FAF6EC"/><line x1="70" y1="520" x2="930" y2="520" stroke="#C9DCE3" stroke-width="2"/><line x1="70" y1="570" x2="930" y2="570" stroke="#C9DCE3" stroke-width="2"/><line x1="70" y1="620" x2="930" y2="620" stroke="#C9DCE3" stroke-width="2"/><line x1="70" y1="670" x2="930" y2="670" stroke="#C9DCE3" stroke-width="3"/><line x1="70" y1="720" x2="930" y2="720" stroke="#C9DCE3" stroke-width="2"/><line x1="70" y1="770" x2="930" y2="770" stroke="#C9DCE3" stroke-width="2"/><line x1="70" y1="820" x2="930" y2="820" stroke="#C9DCE3" stroke-width="2"/><line x1="70" y1="870" x2="930" y2="870" stroke="#C9DCE3" stroke-width="3"/><line x1="70" y1="920" x2="930" y2="920" stroke="#C9DCE3" stroke-width="2"/><line x1="70" y1="970" x2="930" y2="970" stroke="#C9DCE3" stroke-width="2"/><line x1="70" y1="1020" x2="930" y2="1020" stroke="#C9DCE3" stroke-width="2"/><line x1="70" y1="1070" x2="930" y2="1070" stroke="#C9DCE3" stroke-width="3"/><line x1="70" y1="1120" x2="930" y2="1120" stroke="#C9DCE3" stroke-width="2"/><line x1="165.6" y1="470" x2="165.6" y2="1170" stroke="#D8CFBD" stroke-width="1" stroke-dasharray="4 6"/><line x1="261.1" y1="470" x2="261.1" y2="1170" stroke="#D8CFBD" stroke-width="1" stroke-dasharray="4 6"/><line x1="356.7" y1="470" x2="356.7" y2="1170" stroke="#D8CFBD" stroke-width="1" stroke-dasharray="4 6"/><line x1="452.2" y1="470" x2="452.2" y2="1170" stroke="#D8CFBD" stroke-width="1" stroke-dasharray="4 6"/><line x1="547.8" y1="470" x2="547.8" y2="1170" stroke="#D8CFBD" stroke-width="1" stroke-dasharray="4 6"/><line x1="643.3" y1="470" x2="643.3" y2="1170" stroke="#D8CFBD" stroke-width="1" stroke-dasharray="4 6"/><line x1="738.9" y1="470" x2="738.9" y2="1170" stroke="#D8CFBD" stroke-width="1" stroke-dasharray="4 6"/><line x1="834.4" y1="470" x2="834.4" y2="1170" stroke="#D8CFBD" stroke-width="1" stroke-dasharray="4 6"/><path d="M673 760L674 764L674 768L674 772L673 776L672 779L670 783L668 786L666 789L664 793L663 796L661 800L659 803L657 806L655 809L652 812L649 814L645 816L641 817L637 817L634 818L630 819L626 820L623 821L620 822L617 824L614 825L611 827L607 827L604 828L600 828L596 827L593 826L590 825L586 825L583 824L579 824L576 824L572 824L568 824L564 823L560 822L556 821L553 818L550 816L548 812L545 809L544 806L542 802L540 799L537 796L535 793L533 790L531 786L530 783L529 779L529 775L529 771L530 767L532 764L533 760L534 757L535 753L536 750L536 746L536 743L537 739L537 736L538 732L539 729L541 726L544 723L546 721L549 718L551 716L553 713L555 710L557 707L559 704L561 700L564 697L566 694L570 692L573 690L577 689L581 688L585 688L589 688L592 688L596 688L600 688L604 687L608 687L612 687L615 688L619 689L623 691L626 693L629 696L631 699L634 702L636 705L638 707L641 710L644 712L647 713L650 715L652 718L655 720L657 723L659 726L660 729L661 733L662 736L663 740L664 743L666 746L667 749L669 753L671 756Z" fill="none" stroke="#D9622B" stroke-width="2.5"/><path d="M760 760L760 768L758 777L755 785L752 792L748 800L744 807L741 814L739 822L736 829L733 837L729 844L725 851L719 856L713 861L705 865L697 868L690 871L682 873L675 875L668 878L662 881L656 885L650 890L644 894L637 898L630 901L623 903L615 904L608 903L600 903L593 902L585 901L578 901L570 901L562 902L554 903L545 904L536 903L528 902L520 898L513 894L507 888L501 882L496 875L492 868L487 862L482 855L477 849L472 843L467 837L463 830L459 823L457 815L456 807L456 799L458 790L459 782L461 775L463 767L464 760L464 753L463 746L463 738L462 731L462 723L463 715L465 708L468 701L472 695L476 689L481 683L485 677L489 670L493 663L496 656L499 648L503 641L508 633L514 627L520 622L527 618L535 615L544 613L552 613L560 612L568 611L576 610L584 609L592 608L600 607L608 606L616 607L624 609L631 612L639 616L645 622L651 627L657 633L662 638L668 642L674 646L681 649L688 652L694 655L701 659L707 664L712 669L717 675L720 682L724 689L726 696L730 702L733 709L737 715L742 722L747 729L752 736L756 744L759 752Z" fill="none" stroke="#D9622B" stroke-width="2.5"/><path d="M842 760L839 773L834 785L829 796L825 808L821 819L818 831L815 842L811 854L807 865L801 876L793 885L784 894L773 900L762 906L751 911L740 916L730 921L721 927L713 934L705 942L697 950L688 958L679 965L669 971L658 975L646 978L635 979L623 980L612 980L600 980L588 981L577 983L564 986L551 988L538 990L525 990L512 989L500 984L489 978L479 970L470 960L462 950L454 940L446 931L438 922L430 913L421 905L413 896L405 886L399 876L395 865L392 852L392 840L392 828L394 815L395 804L395 792L395 782L393 771L390 760L387 749L385 737L383 726L383 714L385 702L388 691L393 680L398 670L404 660L409 650L414 639L418 628L422 616L426 604L432 592L438 580L446 570L456 561L467 555L479 550L492 547L504 545L517 543L529 541L541 539L552 536L564 533L576 530L588 528L600 528L612 530L624 534L635 540L645 546L655 554L665 560L674 567L684 571L694 575L705 578L716 581L727 585L738 589L749 595L758 602L766 611L773 620L779 630L785 640L791 650L798 659L805 669L814 678L822 688L830 698L837 710L842 722L844 734L844 747Z" fill="none" stroke="#D9622B" stroke-width="2.5"/><path d="M914 760L908 776L904 792L900 808L897 823L895 839L892 855L887 870L880 885L872 898L861 910L848 921L834 930L821 939L808 947L796 956L785 966L776 977L767 989L757 1002L747 1015L736 1027L723 1036L709 1044L694 1049L678 1053L663 1055L647 1057L631 1059L616 1063L600 1067L584 1072L567 1077L549 1080L532 1081L514 1080L498 1075L482 1067L468 1056L455 1044L443 1032L432 1019L420 1007L409 996L397 986L384 976L372 965L361 953L352 940L344 926L339 910L337 894L336 878L335 862L334 846L332 832L329 818L324 804L318 790L311 775L306 760L301 744L299 728L300 712L303 697L307 682L313 667L319 652L325 638L330 622L334 606L338 590L342 573L348 556L356 540L366 526L379 514L393 505L409 498L426 492L443 488L460 485L476 481L491 476L506 471L521 465L536 460L552 456L568 455L584 456L600 459L615 465L630 472L644 480L658 487L672 492L686 497L700 499L715 501L731 503L747 505L763 509L778 515L791 524L803 534L814 546L824 558L834 571L844 583L854 595L866 606L878 618L891 630L903 644L912 658L920 674L924 691L925 709L923 726L919 743Z" fill="none" stroke="#D9622B" stroke-width="2.5"/><path d="M978 760L976 780L974 799L973 819L971 839L968 859L961 877L952 895L941 912L927 926L912 940L897 953L883 965L870 979L860 994L850 1010L841 1028L831 1046L821 1064L808 1080L793 1094L776 1105L758 1114L738 1121L719 1126L699 1130L680 1136L660 1142L641 1149L621 1157L600 1164L579 1170L557 1172L535 1171L514 1166L494 1156L475 1144L458 1130L442 1115L426 1101L411 1088L395 1076L379 1064L362 1054L346 1042L331 1029L318 1014L307 998L298 979L293 960L288 940L285 921L281 902L275 885L268 868L258 852L248 835L237 818L227 799L219 780L214 760L213 740L214 719L219 700L224 680L230 661L235 641L239 621L243 601L246 580L250 558L256 537L265 516L277 498L292 483L310 470L330 460L351 452L371 445L392 439L411 432L429 425L447 416L465 407L483 399L501 392L521 388L541 387L561 389L581 394L600 400L619 407L637 412L654 416L673 418L692 418L711 418L732 417L753 417L773 420L793 426L811 435L828 446L843 460L857 474L871 489L885 503L900 517L917 530L933 544L950 558L966 574L979 591L988 611L994 632L996 654L995 676L991 698L987 719L982 740Z" fill="none" stroke="#D9622B" stroke-width="2.5"/><path fill="#D9622B" d="M589 782V741H600V773H612V782Z"/><rect x="660.1" y="626.6" width="52" height="24" fill="#FAF6EC"/><path fill="#D9622B" d="M676.3 645.8Q675.3 645.8 674.5 645.4Q673.7 645 673.2 644.3Q672.7 643.6 672.7 642.7H674Q674.1 643.6 674.7 644.1Q675.3 644.6 676.3 644.6Q677.6 644.6 678.4 643.4Q679.2 642.3 679.3 639.9H679.2Q678.7 640.6 678.1 641.1Q677.4 641.6 676.2 641.6Q675.2 641.6 674.4 641.1Q673.6 640.7 673.1 639.8Q672.6 639 672.6 638Q672.6 637 673.1 636.1Q673.5 635.2 674.4 634.7Q675.2 634.2 676.3 634.2Q678.5 634.2 679.5 635.7Q680.5 637.1 680.5 639.6Q680.5 641.4 680 642.8Q679.5 644.2 678.6 645Q677.7 645.8 676.3 645.8ZM676.4 640.4Q677.6 640.4 678.2 639.7Q678.9 639 678.9 637.9Q678.9 636.8 678.2 636.1Q677.6 635.4 676.4 635.4Q675.3 635.4 674.7 636.1Q674 636.8 674 637.9Q674 639 674.7 639.7Q675.3 640.4 676.4 640.4ZM685.9 645.8Q684.9 645.8 684.1 645.4Q683.3 645 682.8 644.3Q682.3 643.6 682.3 642.7H683.6Q683.7 643.6 684.3 644.1Q684.9 644.6 685.9 644.6Q687.2 644.6 688 643.4Q688.8 642.3 688.9 639.9H688.8Q688.3 640.6 687.7 641.1Q687 641.6 685.8 641.6Q684.8 641.6 684 641.1Q683.2 640.7 682.7 639.8Q682.2 639 682.2 638Q682.2 637 682.7 636.1Q683.1 635.2 684 634.7Q684.8 634.2 685.9 634.2Q688.1 634.2 689.1 635.7Q690.1 637.1 690.1 639.6Q690.1 641.4 689.6 642.8Q689.1 644.2 688.2 645Q687.3 645.8 685.9 645.8ZM686 640.4Q687.2 640.4 687.8 639.7Q688.5 639 688.5 637.9Q688.5 636.8 687.8 636.1Q687.2 635.4 686 635.4Q684.9 635.4 684.3 636.1Q683.6 636.8 683.6 637.9Q683.6 639 684.3 639.7Q684.9 640.4 686 640.4ZM695.9 645.8Q694.4 645.8 693.5 645.1Q692.6 644.4 692.2 643.2Q691.7 642 691.7 640.4Q691.7 638.6 692.2 637.2Q692.7 635.8 693.7 635Q694.7 634.2 696 634.2Q697.1 634.2 697.9 634.6Q698.6 635 699.1 635.7Q699.5 636.4 699.6 637.3H698.3Q698.2 636.4 697.6 635.9Q697 635.4 696 635.4Q695.2 635.4 694.6 635.9Q693.9 636.4 693.5 637.5Q693.1 638.5 693 640.2H693.1Q693.4 639.5 694.2 639Q695 638.4 696.1 638.4Q697.1 638.4 697.9 638.9Q698.7 639.4 699.2 640.2Q699.6 641 699.6 642Q699.6 643.1 699.2 643.9Q698.7 644.8 697.9 645.3Q697 645.8 695.9 645.8ZM695.8 644.6Q696.9 644.6 697.6 643.9Q698.3 643.2 698.3 642.1Q698.3 641.1 697.6 640.4Q696.9 639.7 695.8 639.7Q695.1 639.7 694.5 640Q694 640.3 693.7 640.9Q693.4 641.4 693.4 642.1Q693.4 642.8 693.7 643.4Q694 644 694.5 644.3Q695.1 644.6 695.8 644.6Z"/><rect x="705.5" y="563.2" width="52" height="24" fill="#FAF6EC"/><path fill="#D9622B" d="M713.4 582.2V581H716.3V572.6L713.5 573.1V572.1L716.7 571H717.6V581H720.7V582.2ZM726.7 582.4Q725.4 582.4 724.4 581.7Q723.5 581 722.9 579.7Q722.4 578.4 722.4 576.6Q722.4 574.8 722.9 573.5Q723.5 572.2 724.4 571.5Q725.4 570.8 726.7 570.8Q727.9 570.8 728.9 571.5Q729.9 572.2 730.4 573.5Q730.9 574.8 730.9 576.6Q730.9 578.4 730.4 579.7Q729.9 581 728.9 581.7Q727.9 582.4 726.7 582.4ZM723.8 576.6Q723.8 577.7 724 578.5Q724.2 579.4 724.6 580L727.7 572.3Q727.3 572 726.7 572Q725.8 572 725.2 572.6Q724.5 573.1 724.1 574.1Q723.8 575.2 723.8 576.6ZM726.7 581.1Q727.5 581.1 728.2 580.6Q728.8 580 729.2 579Q729.6 578 729.6 576.6Q729.6 575.5 729.3 574.6Q729.1 573.7 728.7 573.1L725.6 580.9Q726.1 581.1 726.7 581.1ZM736.3 582.4Q735 582.4 734 581.7Q733.1 581 732.5 579.7Q732 578.4 732 576.6Q732 574.8 732.5 573.5Q733.1 572.2 734 571.5Q735 570.8 736.3 570.8Q737.5 570.8 738.5 571.5Q739.5 572.2 740 573.5Q740.5 574.8 740.5 576.6Q740.5 578.4 740 579.7Q739.5 581 738.5 581.7Q737.5 582.4 736.3 582.4ZM733.4 576.6Q733.4 577.7 733.6 578.5Q733.8 579.4 734.2 580L737.3 572.3Q736.9 572 736.3 572Q735.4 572 734.8 572.6Q734.1 573.1 733.7 574.1Q733.4 575.2 733.4 576.6ZM736.3 581.1Q737.1 581.1 737.8 580.6Q738.4 580 738.8 579Q739.2 578 739.2 576.6Q739.2 575.5 738.9 574.6Q738.7 573.7 738.3 573.1L735.2 580.9Q735.7 581.1 736.3 581.1ZM745.9 582.4Q744.6 582.4 743.6 581.7Q742.7 581 742.1 579.7Q741.6 578.4 741.6 576.6Q741.6 574.8 742.1 573.5Q742.7 572.2 743.6 571.5Q744.6 570.8 745.9 570.8Q747.1 570.8 748.1 571.5Q749.1 572.2 749.6 573.5Q750.1 574.8 750.1 576.6Q750.1 578.4 749.6 579.7Q749.1 581 748.1 581.7Q747.1 582.4 745.9 582.4ZM743 576.6Q743 577.7 743.2 578.5Q743.4 579.4 743.8 580L746.9 572.3Q746.5 572 745.9 572Q745 572 744.4 572.6Q743.7 573.1 743.3 574.1Q743 575.2 743 576.6ZM745.9 581.1Q746.7 581.1 747.4 580.6Q748 580 748.4 579Q748.8 578 748.8 576.6Q748.8 575.5 748.5 574.6Q748.3 573.7 747.9 573.1L744.8 580.9Q745.3 581.1 745.9 581.1Z"/><rect x="750.8" y="499.7" width="52" height="24" fill="#FAF6EC"/><path fill="#D9622B" d="M758.8 518.7V517.5H761.6V509.1L758.9 509.6V508.6L762.1 507.5H763V517.5H766V518.7ZM772 518.9Q770.8 518.9 769.8 518.2Q768.8 517.5 768.3 516.2Q767.8 514.9 767.8 513.1Q767.8 511.3 768.3 510Q768.8 508.7 769.8 508Q770.8 507.3 772 507.3Q773.3 507.3 774.3 508Q775.2 508.7 775.8 510Q776.3 511.3 776.3 513.1Q776.3 514.9 775.8 516.2Q775.2 517.5 774.3 518.2Q773.3 518.9 772 518.9ZM769.1 513.1Q769.1 514.2 769.4 515.1Q769.6 516 770 516.5L773.1 508.8Q772.6 508.6 772 508.6Q771.2 508.6 770.5 509.1Q769.9 509.7 769.5 510.7Q769.1 511.7 769.1 513.1ZM772 517.7Q772.9 517.7 773.5 517.1Q774.2 516.6 774.6 515.6Q774.9 514.5 774.9 513.1Q774.9 512 774.7 511.2Q774.5 510.3 774 509.7L770.9 517.4Q771.4 517.7 772 517.7ZM781.6 518.9Q780.4 518.9 779.4 518.2Q778.4 517.5 777.9 516.2Q777.4 514.9 777.4 513.1Q777.4 511.3 777.9 510Q778.4 508.7 779.4 508Q780.4 507.3 781.6 507.3Q782.9 507.3 783.9 508Q784.8 508.7 785.4 510Q785.9 511.3 785.9 513.1Q785.9 514.9 785.4 516.2Q784.8 517.5 783.9 518.2Q782.9 518.9 781.6 518.9ZM778.7 513.1Q778.7 514.2 779 515.1Q779.2 516 779.6 516.5L782.7 508.8Q782.2 508.6 781.6 508.6Q780.8 508.6 780.1 509.1Q779.5 509.7 779.1 510.7Q778.7 511.7 778.7 513.1ZM781.6 517.7Q782.5 517.7 783.1 517.1Q783.8 516.6 784.2 515.6Q784.5 514.5 784.5 513.1Q784.5 512 784.3 511.2Q784.1 510.3 783.6 509.7L780.5 517.4Q781 517.7 781.6 517.7ZM792.6 518.7V516.1H787.2V515.1L792.4 507.5H794V514.9H795.6V516.1H794V518.7ZM788.8 514.9H792.7V509.1Z"/><rect x="68" y="468" width="864" height="704" fill="none" stroke="#1F3A5F" stroke-width="3"/><path d="M0 0H1000V1400H0Z M67 467V1173H933V467Z" fill="#F3EDE0" fill-rule="evenodd"/><rect x="68" y="468" width="864" height="704" fill="none" stroke="#1F3A5F" stroke-width="3"/><path d="M376 930L374 935L370 940L367 944L363 948L361 952L360 957L359 962L358 966L355 970L350 972L344 972L337 972L332 971L327 970L324 972L322 975L320 979L317 983L314 986L310 988L306 988L302 987L298 986L294 986L290 988L285 991L279 995L273 997L267 998L262 996L259 991L256 986L254 981L253 976L250 972L247 969L243 966L240 962L238 957L239 952L242 947L245 942L249 937L251 933L252 930L250 927L248 923L245 918L244 914L245 910L247 906L250 903L253 900L254 897L255 892L254 886L254 879L255 873L258 868L262 864L268 863L273 864L279 865L284 866L289 866L293 864L298 863L302 862L307 863L311 866L315 871L317 877L319 882L321 886L324 888L328 889L333 888L337 888L342 890L345 892L347 896L348 900L349 904L352 907L356 910L361 913L367 916L372 920L375 925Z" fill="#1F3A5F"/><path d="M408 960L409 963L408 966L406 968L404 970L403 973L402 976L399 977L395 976L392 975L390 974L388 974L385 974L384 973L383 970L382 968L380 967L377 967L374 965L373 963L374 960L374 957L373 954L372 951L373 948L376 946L380 946L383 945L385 944L387 943L390 944L392 946L394 949L395 950L398 949L400 950L402 951L402 954L403 956L405 958Z" fill="#1F3A5F"/><path d="M398 930L396 937L392 943L388 949L385 954L382 960L380 966L379 972L376 978L372 983L367 986L360 987L352 988L345 988L339 989L335 991L331 994L328 999L324 1004L319 1008L314 1009L308 1009L303 1009L297 1008L292 1008L286 1010L279 1013L272 1016L265 1018L257 1018L251 1015L246 1010L243 1004L240 997L237 991L233 986L229 982L224 977L220 972L218 966L218 960L220 953L224 946L227 940L230 935L230 930L228 925L226 920L224 914L223 908L224 902L227 897L231 893L234 889L237 884L238 878L239 871L240 863L242 855L246 849L251 845L258 843L265 844L272 844L279 845L285 844L291 842L297 841L303 840L309 841L315 844L320 850L324 856L327 862L331 867L335 869L340 871L346 871L352 872L358 874L362 878L365 883L367 888L369 893L372 898L376 902L382 906L388 911L394 917L397 923Z" fill="none" stroke="#1F3A5F" stroke-width="1.5" stroke-dasharray="3 6"/><path d="M421 930L419 938L415 946L410 953L406 960L403 967L401 975L399 982L395 990L390 996L384 1000L375 1003L367 1004L358 1005L351 1006L346 1009L341 1014L336 1019L331 1025L325 1029L318 1031L311 1031L304 1030L297 1029L290 1030L282 1031L274 1034L265 1037L256 1039L247 1038L240 1034L234 1029L229 1021L225 1014L221 1007L216 1000L211 995L205 989L201 983L198 975L197 967L199 959L203 951L206 943L208 936L209 930L207 924L205 917L203 909L202 902L204 895L207 889L211 883L216 877L219 871L221 864L223 855L225 846L228 838L233 830L240 826L248 823L257 823L265 823L273 823L281 822L288 820L296 818L304 818L312 819L319 823L325 828L331 835L336 842L340 847L346 851L352 853L359 854L367 856L373 859L378 864L382 870L385 877L388 883L392 889L397 895L403 900L410 907L416 914L420 922Z" fill="none" stroke="#1F3A5F" stroke-width="1" stroke-dasharray="2 8" opacity="0.6"/><line x1="200" y1="620" x2="260.6" y2="655" stroke="#1F3A5F" stroke-width="3"/><line x1="260.6" y1="655" x2="280.5" y2="638.3" stroke="#1F3A5F" stroke-width="3"/><line x1="248.5" y1="648" x2="268.4" y2="631.3" stroke="#1F3A5F" stroke-width="3"/><circle cx="200" cy="620" r="7" fill="#FAF6EC" stroke="#1F3A5F" stroke-width="3"/><line x1="820" y1="1080" x2="754.2" y2="1056.1" stroke="#1F3A5F" stroke-width="3"/><line x1="754.2" y1="1056.1" x2="737.5" y2="1076" stroke="#1F3A5F" stroke-width="3"/><line x1="767.4" y1="1060.8" x2="750.7" y2="1080.8" stroke="#1F3A5F" stroke-width="3"/><circle cx="820" cy="1080" r="7" fill="#FAF6EC" stroke="#1F3A5F" stroke-width="3"/><line x1="160" y1="1100" x2="225.8" y2="1076.1" stroke="#1F3A5F" stroke-width="3"/><line x1="225.8" y1="1076.1" x2="225.8" y2="1050.1" stroke="#1F3A5F" stroke-width="3"/><line x1="212.6" y1="1080.8" x2="212.6" y2="1054.8" stroke="#1F3A5F" stroke-width="3"/><circle cx="160" cy="1100" r="7" fill="#FAF6EC" stroke="#1F3A5F" stroke-width="3"/><line x1="820" y1="560" x2="766.4" y2="605" stroke="#1F3A5F" stroke-width="3"/><line x1="766.4" y1="605" x2="775.3" y2="629.4" stroke="#1F3A5F" stroke-width="3"/><line x1="777.1" y1="596" x2="786" y2="620.4" stroke="#1F3A5F" stroke-width="3"/><circle cx="820" cy="560" r="7" fill="#FAF6EC" stroke="#1F3A5F" stroke-width="3"/><path fill="#5C6470" d="M85.4 1156V1145.5H91.9V1146.7H86.6V1150.3H91.2V1151.5H86.6V1156ZM99 1156.2Q97.7 1156.2 96.8 1155.5Q95.9 1154.8 95.4 1153.6Q94.9 1152.4 94.9 1150.8Q94.9 1149.1 95.4 1147.9Q95.9 1146.7 96.8 1146Q97.7 1145.3 99 1145.3Q100.3 1145.3 101.2 1146Q102.1 1146.7 102.6 1147.9Q103.1 1149.1 103.1 1150.8Q103.1 1152.4 102.6 1153.6Q102.1 1154.8 101.2 1155.5Q100.3 1156.2 99 1156.2ZM99 1155Q100.2 1155 101 1153.9Q101.8 1152.8 101.8 1150.8Q101.8 1148.7 101 1147.6Q100.2 1146.5 99 1146.5Q97.7 1146.5 97 1147.6Q96.2 1148.7 96.2 1150.8Q96.2 1152.8 97 1153.9Q97.7 1155 99 1155ZM106.2 1156V1145.5H109.5Q110.7 1145.5 111.5 1145.9Q112.2 1146.3 112.6 1147Q113 1147.7 113 1148.6Q113 1149.6 112.5 1150.4Q112 1151.2 110.9 1151.5L113.1 1156H111.6L109.5 1151.7H109.5H107.5V1156ZM107.5 1150.5H109.4Q110.6 1150.5 111.2 1150Q111.7 1149.4 111.7 1148.6Q111.7 1147.7 111.2 1147.2Q110.6 1146.6 109.4 1146.6H107.5ZM116.8 1156V1145.5H123.3V1146.6H118V1150.1H122.9V1151.3H118V1154.9H123.3V1156ZM130.6 1156.2Q129.3 1156.2 128.4 1155.5Q127.5 1154.8 127 1153.6Q126.5 1152.4 126.5 1150.8Q126.5 1149.1 127 1147.9Q127.5 1146.7 128.4 1146Q129.3 1145.3 130.6 1145.3Q132.2 1145.3 133.2 1146.2Q134.2 1147.1 134.3 1148.6H132.9Q132.8 1147.7 132.2 1147.1Q131.6 1146.5 130.6 1146.5Q129.3 1146.5 128.5 1147.6Q127.8 1148.8 127.8 1150.8Q127.8 1152.7 128.5 1153.9Q129.3 1155 130.6 1155Q131.6 1155 132.2 1154.4Q132.8 1153.9 132.9 1153H134.3Q134.1 1154.5 133.1 1155.3Q132.2 1156.2 130.6 1156.2ZM137 1156 140.3 1145.5H141.7L145 1156H143.6L142.9 1153.4H139.1L138.4 1156ZM141 1147.3 139.5 1152.3H142.5L141 1147.3ZM151.6 1156.2Q150.5 1156.2 149.7 1155.8Q148.9 1155.3 148.4 1154.6Q148 1153.8 148 1152.8H149.3Q149.3 1153.7 149.9 1154.4Q150.5 1155 151.6 1155Q152.6 1155 153.2 1154.5Q153.8 1154 153.8 1153.3Q153.8 1152.7 153.5 1152.3Q153.2 1152 152.6 1151.6Q152 1151.3 151 1151Q149.6 1150.6 148.9 1149.8Q148.2 1149.1 148.2 1148Q148.2 1147.2 148.6 1146.6Q149 1146 149.7 1145.7Q150.5 1145.3 151.5 1145.3Q152.5 1145.3 153.3 1145.7Q154 1146.1 154.4 1146.7Q154.8 1147.4 154.8 1148.2H153.5Q153.5 1147.8 153.3 1147.4Q153.1 1147 152.6 1146.7Q152.2 1146.5 151.5 1146.5Q150.6 1146.5 150.1 1146.9Q149.5 1147.3 149.5 1147.9Q149.5 1148.5 149.8 1148.8Q150 1149.2 150.6 1149.5Q151.2 1149.8 152.1 1150.1Q153.1 1150.4 153.7 1150.8Q154.4 1151.2 154.7 1151.8Q155.1 1152.4 155.1 1153.2Q155.1 1154.1 154.6 1154.8Q154.2 1155.4 153.4 1155.8Q152.6 1156.2 151.6 1156.2ZM161.4 1156V1146.6H158.6V1145.5H165.4V1146.6H162.6V1156ZM179 1156 182.3 1145.5H183.7L187 1156H185.6L184.9 1153.4H181.1L180.4 1156ZM183 1147.3 181.5 1152.3H184.5L183 1147.3ZM190.2 1156V1145.5H193.5Q194.7 1145.5 195.5 1145.9Q196.2 1146.3 196.6 1147Q197 1147.7 197 1148.6Q197 1149.6 196.5 1150.4Q196 1151.2 194.9 1151.5L197.1 1156H195.6L193.5 1151.7H193.5H191.5V1156ZM191.5 1150.5H193.4Q194.6 1150.5 195.2 1150Q195.7 1149.4 195.7 1148.6Q195.7 1147.7 195.2 1147.2Q194.6 1146.6 193.4 1146.6H191.5ZM200.8 1156V1145.5H207.3V1146.6H202.1V1150.1H206.9V1151.3H202.1V1154.9H207.3V1156ZM210.5 1156 213.8 1145.5H215.2L218.5 1156H217.1L216.4 1153.4H212.6L211.9 1156ZM214.5 1147.3 213 1152.3H216L214.5 1147.3ZM232.1 1156V1155Q233.7 1153.7 234.9 1152.6Q236.1 1151.6 236.8 1150.6Q237.5 1149.5 237.5 1148.5Q237.5 1147.6 236.9 1147Q236.4 1146.5 235.5 1146.5Q234.8 1146.5 234.3 1146.8Q233.8 1147.1 233.6 1147.6Q233.4 1148 233.4 1148.6H232.1Q232.1 1147.6 232.6 1146.8Q233 1146.1 233.8 1145.7Q234.5 1145.3 235.5 1145.3Q237 1145.3 237.9 1146.2Q238.8 1147 238.8 1148.5Q238.8 1149.4 238.3 1150.3Q237.9 1151.1 237.3 1151.9Q236.6 1152.7 235.8 1153.5Q234.9 1154.2 234.1 1154.9H239V1156ZM244.1 1156 248.2 1146.6H242.4V1145.5H249.5V1146.5L245.4 1156Z"/><path fill="#5C6470" d="M875.5 1156.2Q874.3 1156.2 873.4 1155.5Q872.5 1154.9 872 1153.6Q871.5 1152.4 871.5 1150.8Q871.5 1149.1 872 1147.9Q872.5 1146.6 873.4 1146Q874.3 1145.3 875.5 1145.3Q876.7 1145.3 877.6 1146Q878.5 1146.6 879 1147.9Q879.5 1149.1 879.5 1150.8Q879.5 1152.4 879 1153.6Q878.5 1154.9 877.6 1155.5Q876.7 1156.2 875.5 1156.2ZM872.8 1150.8Q872.8 1151.8 873 1152.6Q873.2 1153.4 873.6 1154L876.5 1146.7Q876.1 1146.5 875.5 1146.5Q874.7 1146.5 874.1 1147Q873.5 1147.5 873.1 1148.5Q872.8 1149.4 872.8 1150.8ZM875.5 1155Q876.3 1155 876.9 1154.5Q877.5 1154 877.9 1153Q878.2 1152.1 878.2 1150.8Q878.2 1149.7 878 1148.9Q877.8 1148.1 877.4 1147.5L874.5 1154.8Q874.9 1155 875.5 1155ZM884.7 1156.2Q883.3 1156.2 882.5 1155.5Q881.6 1154.8 881.2 1153.7Q880.8 1152.6 880.8 1151.2Q880.8 1149.4 881.3 1148.1Q881.7 1146.8 882.6 1146.1Q883.6 1145.3 884.8 1145.3Q885.8 1145.3 886.5 1145.7Q887.3 1146.1 887.7 1146.7Q888.1 1147.4 888.2 1148.2H887Q886.8 1147.4 886.3 1146.9Q885.7 1146.5 884.8 1146.5Q884.1 1146.5 883.5 1146.9Q882.8 1147.4 882.4 1148.4Q882 1149.4 882 1150.9H882.1Q882.4 1150.2 883.1 1149.8Q883.8 1149.3 884.9 1149.3Q885.8 1149.3 886.6 1149.7Q887.3 1150.2 887.7 1150.9Q888.2 1151.7 888.2 1152.7Q888.2 1153.6 887.8 1154.4Q887.3 1155.2 886.5 1155.7Q885.8 1156.2 884.7 1156.2ZM884.6 1155Q885.7 1155 886.3 1154.4Q886.9 1153.7 886.9 1152.7Q886.9 1151.7 886.3 1151.1Q885.7 1150.4 884.6 1150.4Q883.9 1150.4 883.4 1150.7Q882.9 1151 882.6 1151.5Q882.3 1152.1 882.3 1152.7Q882.3 1153.4 882.6 1153.9Q882.9 1154.4 883.4 1154.7Q883.9 1155 884.6 1155ZM893.5 1156Q893 1156 892.7 1155.7Q892.4 1155.4 892.4 1154.9Q892.4 1154.5 892.7 1154.2Q893 1153.9 893.5 1153.9Q894 1153.9 894.3 1154.2Q894.6 1154.5 894.6 1154.9Q894.6 1155.4 894.3 1155.7Q894 1156 893.5 1156ZM893.5 1150.1Q893 1150.1 892.7 1149.8Q892.4 1149.5 892.4 1149Q892.4 1148.6 892.7 1148.2Q893 1147.9 893.5 1147.9Q894 1147.9 894.3 1148.2Q894.6 1148.6 894.6 1149Q894.6 1149.5 894.3 1149.8Q894 1150.1 893.5 1150.1ZM902.5 1156.2Q901.3 1156.2 900.4 1155.5Q899.5 1154.9 899 1153.6Q898.5 1152.4 898.5 1150.8Q898.5 1149.1 899 1147.9Q899.5 1146.6 900.4 1146Q901.3 1145.3 902.5 1145.3Q903.7 1145.3 904.6 1146Q905.5 1146.6 906 1147.9Q906.5 1149.1 906.5 1150.8Q906.5 1152.4 906 1153.6Q905.5 1154.9 904.6 1155.5Q903.7 1156.2 902.5 1156.2ZM899.8 1150.8Q899.8 1151.8 900 1152.6Q900.2 1153.4 900.6 1154L903.5 1146.7Q903.1 1146.5 902.5 1146.5Q901.7 1146.5 901.1 1147Q900.5 1147.5 900.1 1148.5Q899.8 1149.4 899.8 1150.8ZM902.5 1155Q903.3 1155 903.9 1154.5Q904.5 1154 904.9 1153Q905.2 1152.1 905.2 1150.8Q905.2 1149.7 905 1148.9Q904.8 1148.1 904.4 1147.5L901.5 1154.8Q901.9 1155 902.5 1155ZM911.5 1156.2Q910.3 1156.2 909.4 1155.5Q908.5 1154.9 908 1153.6Q907.5 1152.4 907.5 1150.8Q907.5 1149.1 908 1147.9Q908.5 1146.6 909.4 1146Q910.3 1145.3 911.5 1145.3Q912.7 1145.3 913.6 1146Q914.5 1146.6 915 1147.9Q915.5 1149.1 915.5 1150.8Q915.5 1152.4 915 1153.6Q914.5 1154.9 913.6 1155.5Q912.7 1156.2 911.5 1156.2ZM908.8 1150.8Q908.8 1151.8 909 1152.6Q909.2 1153.4 909.6 1154L912.5 1146.7Q912.1 1146.5 911.5 1146.5Q910.7 1146.5 910.1 1147Q909.5 1147.5 909.1 1148.5Q908.8 1149.4 908.8 1150.8ZM911.5 1155Q912.3 1155 912.9 1154.5Q913.5 1154 913.9 1153Q914.2 1152.1 914.2 1150.8Q914.2 1149.7 914 1148.9Q913.8 1148.1 913.4 1147.5L910.5 1154.8Q910.9 1155 911.5 1155Z"/><rect x="0" y="0" width="1000" height="22" fill="#1F3A5F"/><path fill="#1F3A5F" d="M77.3 82.3Q76 82.3 74.9 82Q73.8 81.7 72.9 81.1Q72 80.5 71.5 79.7Q71 78.8 71 77.6Q71 77.5 71 77.4Q71 77.2 71 77.2H73.9Q73.9 77.2 73.9 77.3Q73.9 77.4 73.9 77.5Q73.9 78.3 74.3 78.8Q74.7 79.3 75.5 79.6Q76.3 79.8 77.4 79.8Q78.1 79.8 78.7 79.8Q79.2 79.7 79.6 79.5Q80 79.3 80.3 79.1Q80.6 78.9 80.7 78.6Q80.8 78.3 80.8 78Q80.8 77.3 80.4 76.9Q80 76.5 79.3 76.2Q78.7 75.9 77.8 75.7Q77 75.5 76.1 75.2Q75.2 75 74.3 74.6Q73.5 74.3 72.8 73.8Q72.2 73.3 71.8 72.6Q71.4 71.9 71.4 70.8Q71.4 69.8 71.8 69Q72.3 68.2 73.1 67.7Q73.9 67.2 75 66.9Q76.1 66.6 77.4 66.6Q78.6 66.6 79.7 66.9Q80.8 67.2 81.6 67.7Q82.4 68.2 82.8 69.1Q83.3 69.9 83.3 71V71.3H80.5V71.1Q80.5 70.4 80.1 70Q79.7 69.5 79 69.3Q78.3 69.1 77.4 69.1Q76.4 69.1 75.7 69.3Q75 69.4 74.6 69.8Q74.2 70.2 74.2 70.7Q74.2 71.2 74.6 71.6Q75 72 75.7 72.3Q76.4 72.5 77.2 72.7Q78.1 73 79 73.2Q79.9 73.5 80.7 73.8Q81.5 74.1 82.2 74.6Q82.9 75.1 83.3 75.8Q83.7 76.6 83.7 77.6Q83.7 79.3 82.9 80.3Q82 81.3 80.6 81.8Q79.2 82.3 77.3 82.3ZM91.6 82V66.9H94.5V73H101.5V66.9H104.4V82H101.5V75.5H94.5V82ZM113 82V66.9H115.9V82ZM131.4 82.3Q129.1 82.3 127.4 81.4Q125.6 80.6 124.7 78.8Q123.8 77.1 123.8 74.5Q123.8 71.8 124.7 70.1Q125.6 68.3 127.4 67.5Q129.1 66.6 131.4 66.6Q133.8 66.6 135.5 67.5Q137.2 68.3 138.1 70.1Q139 71.8 139 74.5Q139 77.1 138.1 78.8Q137.2 80.6 135.5 81.4Q133.8 82.3 131.4 82.3ZM131.4 79.8Q132.6 79.8 133.4 79.5Q134.3 79.2 134.9 78.5Q135.5 77.9 135.8 76.9Q136.1 76 136.1 74.7V74.2Q136.1 73 135.8 72Q135.5 71 134.9 70.4Q134.3 69.7 133.4 69.4Q132.6 69.1 131.4 69.1Q130.3 69.1 129.4 69.4Q128.5 69.7 127.9 70.4Q127.4 71 127.1 72Q126.8 73 126.8 74.2V74.7Q126.8 76 127.1 76.9Q127.4 77.9 127.9 78.5Q128.5 79.2 129.4 79.5Q130.3 79.8 131.4 79.8ZM147 82V66.9H154.9Q156.6 66.9 157.7 67.5Q158.8 68.1 159.3 69.1Q159.9 70.2 159.9 71.6Q159.9 73.1 159.2 74.2Q158.6 75.3 157.3 75.9L160.4 82H157.3L154.5 76.4H149.8V82ZM149.8 74H154.7Q155.8 74 156.4 73.4Q157 72.7 157 71.6Q157 70.9 156.7 70.4Q156.5 69.9 156 69.6Q155.4 69.3 154.7 69.3H149.8ZM168 82V66.9H170.9V82ZM189.2 82V66.9H197.4Q198.6 66.9 199.6 67.4Q200.5 67.8 201.1 68.7Q201.6 69.5 201.6 70.6Q201.6 71.5 201.3 72.2Q201 72.9 200.4 73.4Q199.9 73.8 199.2 74.1V74.2Q200 74.3 200.7 74.8Q201.3 75.3 201.7 76.1Q202.1 76.9 202.1 77.8Q202.1 79.2 201.4 80.2Q200.8 81.1 199.8 81.5Q198.7 82 197.4 82ZM192.1 79.6H197.1Q198 79.6 198.5 79.1Q199.1 78.6 199.1 77.5Q199.1 76.9 198.9 76.4Q198.6 76 198.1 75.7Q197.6 75.5 196.9 75.5H192.1ZM192.1 73.1H196.7Q197.3 73.1 197.8 72.8Q198.2 72.6 198.5 72.2Q198.7 71.7 198.7 71.2Q198.7 70.3 198.2 69.8Q197.7 69.3 196.8 69.3H192.1ZM216.3 82.3Q214.3 82.3 212.9 81.6Q211.4 81 210.7 79.7Q209.9 78.4 209.9 76.4V66.9H212.8V76.3Q212.8 78.1 213.7 79Q214.6 79.8 216.3 79.8Q217.9 79.8 218.9 79Q219.8 78.1 219.8 76.3V66.9H222.7V76.4Q222.7 78.4 221.9 79.7Q221.1 81 219.7 81.6Q218.3 82.3 216.3 82.3ZM231.2 82V66.9H233.9L240.4 75.8Q240.5 76 240.7 76.2Q240.8 76.4 240.9 76.6Q241.1 76.9 241.1 77H241.2Q241.2 76.7 241.2 76.4Q241.2 76.1 241.2 75.8V66.9H244V82H241.3L234.8 73Q234.6 72.8 234.4 72.4Q234.2 72 234.1 71.8H234Q234 72.1 234 72.4Q234 72.7 234 73V82ZM252.6 82V66.9H255.5V73.9L262.1 66.9H265.6L259.8 73L265.8 82H262.4L257.9 75L255.5 77.1V82ZM278.9 82.3Q276.5 82.3 274.8 81.4Q273.1 80.6 272.2 78.8Q271.3 77.1 271.3 74.5Q271.3 71.8 272.2 70.1Q273.1 68.3 274.8 67.5Q276.5 66.6 278.9 66.6Q281.3 66.6 283 67.5Q284.7 68.3 285.6 70.1Q286.5 71.8 286.5 74.5Q286.5 77.1 285.6 78.8Q284.7 80.6 283 81.4Q281.3 82.3 278.9 82.3ZM278.9 79.8Q280 79.8 280.9 79.5Q281.8 79.2 282.4 78.5Q283 77.9 283.3 76.9Q283.6 76 283.6 74.7V74.2Q283.6 73 283.3 72Q283 71 282.4 70.4Q281.8 69.7 280.9 69.4Q280 69.1 278.9 69.1Q277.7 69.1 276.9 69.4Q276 69.7 275.4 70.4Q274.8 71 274.5 72Q274.2 73 274.2 74.2V74.7Q274.2 76 274.5 76.9Q274.8 77.9 275.4 78.5Q276 79.2 276.9 79.5Q277.7 79.8 278.9 79.8Z"/><path fill="#1F3A5F" d="M813.8 83V63.4H816.7L824.9 77.8V63.4H827.8V83H824.9L816.7 68.6V83ZM837.6 83.3Q835.6 83.3 834 82.4Q832.5 81.5 831.6 79.9Q830.7 78.3 830.7 76.1Q830.7 73.8 831.6 72.2Q832.5 70.6 834 69.7Q835.6 68.8 837.6 68.8Q839.6 68.8 841.2 69.7Q842.8 70.6 843.6 72.2Q844.5 73.8 844.5 76.1Q844.5 78.3 843.6 79.9Q842.7 81.5 841.2 82.4Q839.6 83.3 837.6 83.3ZM837.6 80.5Q838.7 80.5 839.6 80Q840.5 79.6 841 78.6Q841.5 77.6 841.5 76.1Q841.5 74.5 841 73.5Q840.5 72.6 839.6 72.1Q838.7 71.6 837.6 71.6Q836.6 71.6 835.7 72.1Q834.8 72.6 834.2 73.5Q833.7 74.5 833.7 76.1Q833.7 78.4 834.8 79.4Q836 80.5 837.6 80.5ZM854.4 83.2Q853.4 83.2 852.6 82.5Q851.9 81.8 851.9 80.8Q851.9 79.8 852.6 79.2Q853.4 78.5 854.4 78.5Q855.5 78.5 856.2 79.2Q856.9 79.8 856.9 80.8Q856.9 81.8 856.2 82.5Q855.5 83.2 854.4 83.2ZM888 83.3Q885.7 83.3 884 82.1Q882.3 80.9 881.4 78.6Q880.5 76.3 880.5 73.2Q880.5 70.1 881.4 67.8Q882.3 65.5 884 64.3Q885.7 63.1 888 63.1Q890.3 63.1 892 64.3Q893.7 65.5 894.6 67.8Q895.5 70.1 895.5 73.2Q895.5 76.3 894.6 78.6Q893.7 80.9 892 82.1Q890.3 83.3 888 83.3ZM883.5 73.2Q883.5 74.8 883.8 76.1Q884.1 77.3 884.6 78.3L889.5 66.2Q888.8 65.8 888 65.8Q886 65.8 884.8 67.8Q883.5 69.8 883.5 73.2ZM888 80.6Q889.3 80.6 890.3 79.7Q891.3 78.8 891.9 77.1Q892.5 75.5 892.5 73.2Q892.5 71.6 892.2 70.3Q891.9 69.1 891.4 68.1L886.5 80.3Q887.2 80.6 888 80.6ZM898.4 83V80.6Q901.2 78.4 903.4 76.4Q905.6 74.5 906.8 72.7Q908 70.9 908 69.1Q908 67.5 907.2 66.6Q906.3 65.8 904.8 65.8Q903.1 65.8 902.2 66.8Q901.3 67.9 901.3 69.4H898.4Q898.4 67.3 899.3 65.9Q900.1 64.5 901.5 63.8Q903 63.1 904.8 63.1Q907.8 63.1 909.4 64.7Q911.1 66.3 911.1 69Q911.1 70.7 910.3 72.3Q909.6 73.8 908.4 75.3Q907.2 76.7 905.7 78Q904.2 79.3 902.8 80.5H911.6V83ZM917.7 83 925.1 66.1H914.9V63.4H928.2V65.7L920.8 83Z"/><line x1="70" y1="108" x2="930" y2="108" stroke="#1F3A5F" stroke-width="2"/><path fill="#1F3A5F" d="M84 238 71 155H90L93 194Q94 198 94 202Q94 205 95 207Q95 209 95 211H96Q96 209 96 207Q96 205 97 203Q97 200 97 198Q97 196 98 194L103 155H123L127 194Q127 196 128 199Q128 202 128 205Q129 208 129 211H130Q130 210 130 208Q130 206 130 203Q131 201 131 198Q131 196 132 194L136 155H154L140 238H119L114 199Q114 196 114 192Q113 189 113 187Q113 184 113 183H112Q112 184 111 188Q111 191 110 194Q110 197 110 199L104 238ZM160 238V155H205V171H178V188H201V204H178V222H206V238ZM209 238 226 155H251L269 238H249L247 223H230L227 238ZM232 207H244L241 185Q241 184 240 183Q240 181 240 179Q240 177 239 175Q239 174 239 172H238Q238 174 237 176Q237 179 237 181Q236 184 236 185ZM280 238V171H263V155H314V171H298V238ZM322 238V155H340V188H353V155H371V238H353V204H340V238ZM382 238V155H428V171H400V188H423V204H400V222H428V238ZM436 238V155H464Q473 155 478 159Q483 162 485 168Q487 173 487 180Q487 187 486 193Q484 199 479 203L490 238H471L463 209H455V238ZM455 194H461Q466 194 467 190Q469 187 469 182Q469 178 468 176Q468 173 466 172Q464 171 461 171H455ZM510 238V155H538Q547 155 552 159Q557 162 559 168Q561 173 561 180Q561 187 559 193Q558 199 553 203L564 238H545L537 209H528V238ZM528 194H535Q540 194 541 190Q543 187 543 182Q543 178 542 176Q541 173 540 172Q538 171 535 171H528ZM570 238V155H615V171H588V188H611V204H588V222H616V238ZM624 238V155H653Q661 155 665 159Q670 162 672 168Q674 174 674 182Q674 190 672 197Q670 203 665 207Q660 210 653 210H642V238ZM642 195H649Q653 195 654 192Q656 188 656 183Q656 179 655 176Q655 173 653 172Q651 171 648 171H642ZM708 239Q698 239 692 235Q685 231 682 221Q679 212 679 197Q679 182 682 172Q685 163 692 158Q698 154 708 154Q718 154 724 158Q730 163 733 172Q737 182 737 197Q737 212 733 221Q730 231 724 235Q718 239 708 239ZM708 224Q711 224 713 222Q715 221 716 218Q717 216 718 212Q718 208 718 204V190Q718 185 718 181Q717 178 716 175Q715 172 713 171Q711 170 708 170Q705 170 703 171Q701 172 700 175Q699 178 698 181Q698 185 698 190V204Q698 208 698 212Q699 216 700 218Q701 221 703 222Q705 224 708 224ZM746 238V155H774Q783 155 788 159Q793 162 795 168Q797 173 797 180Q797 187 795 193Q793 199 789 203L800 238H781L773 209H764V238ZM764 194H771Q775 194 777 190Q778 187 778 182Q778 178 778 176Q777 173 775 172Q774 171 771 171H764ZM817 238V171H801V155H852V171H836V238Z"/><path fill="#1F3A5F" d="M75 350V276H111V290H91V308H108V322H91V350ZM117 350V276H142Q150 276 154 279Q159 282 161 287Q163 292 163 298Q163 305 161 310Q159 315 156 318L165 350H148L141 324H133V350ZM133 311H140Q143 311 145 308Q146 305 146 300Q146 297 146 295Q145 292 144 291Q142 290 139 290H133ZM194 351Q186 351 180 347Q174 343 172 335Q169 327 169 313Q169 300 172 291Q174 283 180 279Q186 275 194 275Q203 275 209 279Q215 283 217 291Q220 300 220 313Q220 327 217 335Q215 343 209 347Q203 351 194 351ZM194 337Q197 337 199 336Q201 335 202 333Q203 330 203 327Q203 324 203 319V307Q203 303 203 299Q203 296 202 294Q201 292 199 290Q197 289 194 289Q192 289 190 290Q188 292 187 294Q186 296 186 299Q185 303 185 307V319Q185 324 186 327Q186 330 187 333Q188 335 190 336Q192 337 194 337ZM228 350V276H251L257 309Q258 311 258 314Q258 316 259 319Q259 322 260 324H261Q261 322 261 320Q262 317 262 315Q262 312 263 310L269 276H291V350H276V318Q276 314 276 311Q276 307 276 305Q276 302 276 301H275Q275 302 275 303Q274 305 274 307Q274 308 274 310L266 350H253L246 310Q246 309 245 307Q245 305 245 304Q244 302 244 301H243Q244 303 244 306Q244 308 244 312Q244 315 244 318V350ZM308 350 324 276H346L362 350H345L342 336H328L325 350ZM330 323H340L337 303Q337 302 337 301Q337 299 336 298Q336 296 336 294Q336 293 335 291H335Q334 293 334 295Q334 297 333 299Q333 302 333 303ZM399 351Q395 351 391 350Q387 349 384 347Q381 344 379 340Q377 336 377 329Q377 328 377 328Q377 327 377 326H393Q393 327 393 328Q393 328 393 329Q393 332 394 334Q394 336 396 337Q397 337 399 337Q400 337 401 337Q402 337 403 336Q403 336 404 335Q404 334 404 332Q405 331 405 330Q405 327 403 325Q402 324 401 323Q399 321 396 320Q394 319 391 318Q389 317 387 315Q384 313 382 311Q380 309 379 305Q378 302 378 297Q378 291 380 287Q382 283 385 280Q388 278 391 276Q395 275 399 275Q404 275 408 276Q411 277 414 280Q417 282 418 286Q420 290 420 295V298H405V297Q405 294 404 293Q404 291 403 290Q402 289 400 289Q398 289 397 290Q396 290 395 292Q395 293 395 295Q395 298 396 300Q397 302 399 303Q401 304 403 305Q405 306 408 308Q411 309 413 310Q415 312 417 314Q419 317 420 320Q421 323 421 328Q421 336 419 341Q416 346 411 349Q406 351 399 351ZM428 350V276H451L457 309Q457 311 458 314Q458 316 458 319Q459 322 459 324H460Q460 322 461 320Q461 317 462 315Q462 312 462 310L468 276H491V350H475V318Q475 314 475 311Q475 307 476 305Q476 302 476 301H475Q475 302 474 303Q474 305 474 307Q474 308 473 310L466 350H453L445 310Q445 309 445 307Q445 305 444 304Q444 302 444 301H443Q443 303 443 306Q443 308 443 312Q443 315 443 318V350ZM496 350 511 276H534L549 350H532L529 336H515L512 350ZM517 323H528L524 303Q524 302 524 301Q524 299 523 298Q523 296 523 294Q523 293 522 291H522Q522 293 521 295Q521 297 521 299Q520 302 520 303ZM554 350V276H570V336H592V350ZM598 350V276H614V336H636V350ZM654 350V276H671V350ZM700 351Q696 351 692 350Q688 349 685 347Q682 344 680 340Q678 336 678 329Q678 328 678 328Q678 327 678 326H694Q694 327 694 328Q694 328 694 329Q694 332 695 334Q695 336 697 337Q698 337 700 337Q701 337 702 337Q703 337 704 336Q704 336 705 335Q705 334 706 332Q706 331 706 330Q706 327 705 325Q703 324 702 323Q700 321 697 320Q695 319 693 318Q690 317 688 315Q685 313 683 311Q682 309 680 305Q679 302 679 297Q679 291 681 287Q683 283 686 280Q689 278 693 276Q696 275 701 275Q705 275 709 276Q712 277 715 280Q718 282 719 286Q721 290 721 295V298H706V297Q706 294 705 293Q705 291 704 290Q703 289 701 289Q699 289 698 290Q697 290 696 292Q696 293 696 295Q696 298 697 300Q698 302 700 303Q702 304 704 305Q707 306 709 308Q712 309 714 310Q716 312 718 314Q720 317 721 320Q722 323 722 328Q722 336 720 341Q717 346 712 349Q707 351 700 351ZM729 350V276H745V336H767V350ZM768 350 784 276H806L822 350H805L802 336H787L785 350ZM789 323H800L797 303Q797 302 797 301Q796 299 796 298Q796 296 796 294Q795 293 795 291H794Q794 293 794 295Q794 297 793 299Q793 302 793 303ZM827 350V276H842L853 306Q853 307 854 308Q854 309 855 311Q855 312 855 314H856Q856 312 856 310Q856 308 856 306V276H871V350H856L845 320Q844 318 844 316Q843 314 843 312H842Q842 314 842 316Q842 318 842 320V350ZM881 350V276H903Q912 276 917 280Q922 284 924 292Q927 300 927 313Q927 326 924 334Q922 342 917 346Q912 350 903 350ZM897 336H902Q904 336 906 335Q907 334 908 332Q909 330 910 327Q910 324 910 319V309Q910 304 910 300Q909 297 908 295Q907 293 906 291Q904 290 902 290H897Z"/><path fill="#1F3A5F" d="M87.4 402.6Q87.4 401 86.7 399.8Q86 398.7 84.5 398.1Q82.9 397.5 80.3 397.5H75.1L75.3 395.7H82.2Q85.5 395.7 87.5 396.6Q89.5 397.5 90.4 399Q91.3 400.5 91.3 402.4Q91.3 404.4 90.4 406Q89.4 407.6 87.4 408.6Q85.4 409.5 82.2 409.5H75.3L75.1 407.8H82Q83.6 407.8 84.8 407.2Q86 406.6 86.7 405.4Q87.4 404.3 87.4 402.6ZM78 395.7V418.3L80.9 419.3V420H71.4V419.3L74.2 418.3V397.4L71.4 396.4V395.7ZM100 418.9Q101.2 418.9 102.2 418.3Q103.1 417.6 103.7 416.2Q104.2 414.8 104.2 412.6Q104.2 410.2 103.7 408.6Q103.1 407 102.2 406.1Q101.2 405.3 99.8 405.3Q98.6 405.3 97.6 406Q96.7 406.6 96.1 408Q95.6 409.4 95.6 411.6Q95.6 414 96.1 415.6Q96.6 417.3 97.6 418.1Q98.6 418.9 100 418.9ZM99.8 420.4Q97.4 420.4 95.6 419.4Q93.8 418.3 92.8 416.5Q91.8 414.7 91.8 412.3Q91.8 409.8 92.9 407.9Q93.9 406 95.8 404.9Q97.6 403.9 100 403.9Q102.4 403.9 104.2 404.9Q106 405.9 107 407.7Q108 409.6 108 412Q108 414.4 106.9 416.3Q105.8 418.2 104 419.3Q102.2 420.4 99.8 420.4ZM118.1 403.9Q119.9 403.9 121.3 404.7Q122.6 405.5 123.4 407Q124.2 408.6 124.4 410.7H113.2L113.2 409.5L122.4 409.1L120.8 409.9Q120.7 408.4 120.4 407.4Q120 406.4 119.3 405.9Q118.7 405.3 117.7 405.3Q116.6 405.3 115.7 406Q114.8 406.6 114.4 407.9Q113.9 409.2 113.9 411.2Q113.9 413.3 114.6 414.8Q115.4 416.2 116.7 417Q118.1 417.8 119.9 417.8Q120.7 417.8 121.4 417.6Q122.1 417.4 122.7 417.1Q123.4 416.7 124 416.1L124.5 416.7Q123.5 417.9 122.6 418.8Q121.6 419.6 120.4 420Q119.3 420.4 118 420.4Q115.8 420.4 114.1 419.4Q112.4 418.3 111.4 416.5Q110.5 414.7 110.5 412.4Q110.5 410 111.4 408.1Q112.3 406.2 114 405Q115.7 403.9 118.1 403.9ZM132.4 407.3V418.5L134.8 419.3V420H126.4V419.3L129 418.5V407.7Q128.7 407.3 128.1 407Q127.5 406.7 126.4 406.2V405.7L131.5 403.8H131.8ZM142.3 408.5V418.5L144.6 419.3V420H136.5V419.3L138.9 418.5V409.4Q138.9 408.5 138.5 407.9Q138.1 407.3 137.4 407Q136.8 406.7 135.8 406.7Q134.7 406.7 133.6 407.1Q132.6 407.5 132.1 408.1L131.5 407.4Q132.5 406.4 133.3 405.7Q134.2 405 134.9 404.6Q135.7 404.2 136.5 404Q137.2 403.9 138.1 403.9Q139.6 403.9 140.6 404.5Q141.5 405.1 141.9 406.2Q142.3 407.2 142.3 408.5ZM152.2 409.3V418.5L154.8 419.3V420H146.4V419.3L148.8 418.5V409.4Q148.8 408.5 148.4 407.9Q148 407.3 147.3 407Q146.6 406.7 145.7 406.7Q144.6 406.7 143.5 407.1Q142.5 407.5 142 408.1L141.4 407.4Q142.4 406.4 143.2 405.7Q144 405 144.8 404.6Q145.6 404.2 146.4 404Q147.1 403.9 148 403.9Q150.2 403.9 151.2 405.3Q152.2 406.6 152.2 409.3ZM162.4 403.9Q163.5 403.9 164.4 404.1Q165.3 404.3 166.4 404.8L166.7 409.1H165.8L163.9 404.7L165.2 406.2Q164.5 405.7 163.8 405.4Q163.2 405.1 162.4 405.1Q161.1 405.1 160.3 405.7Q159.5 406.3 159.5 407.3Q159.5 408.1 159.9 408.7Q160.4 409.2 161.2 409.6Q162 410 163.1 410.5Q164 410.8 164.8 411.3Q165.5 411.7 166 412.3Q166.6 412.9 166.9 413.6Q167.2 414.4 167.2 415.4Q167.2 417 166.4 418.1Q165.6 419.2 164.2 419.8Q162.8 420.4 161.1 420.4Q159.9 420.4 159 420.2Q158 420 157.2 419.6L156.4 415.1H157.3L159.9 419.8L157.7 418.4Q158.4 418.7 158.9 418.9Q159.4 419 159.8 419.1Q160.2 419.2 160.7 419.2Q162.3 419.2 163.3 418.5Q164.3 417.8 164.3 416.5Q164.3 415.8 164 415.3Q163.7 414.8 163.2 414.5Q162.6 414.1 161.9 413.8Q161.2 413.5 160.3 413.1Q159.2 412.7 158.5 412Q157.7 411.4 157.2 410.5Q156.8 409.6 156.8 408.4Q156.8 406.9 157.6 405.9Q158.3 404.9 159.6 404.4Q160.8 403.9 162.4 403.9ZM180.2 419 182.1 419 179 420.4 178.4 420.1 178.9 416.3V398.2Q178.7 397.9 178.3 397.7Q177.9 397.4 177.4 397.1Q176.9 396.7 176.2 396.4V396L182.2 394.3H182.6L182.4 397.5V415.4Q182.4 416.4 182.9 417.2Q183.3 418 184.2 418.4Q185.1 418.9 186.3 418.9Q187.7 418.9 188.7 418.1Q189.7 417.3 190.2 415.9Q190.8 414.4 190.8 412.3Q190.8 410.3 190.2 408.9Q189.6 407.5 188.5 406.8Q187.5 406.1 186.1 406.1Q185.1 406.1 184.3 406.3Q183.4 406.4 182.7 406.8Q181.9 407.1 181.3 407.6L181 406.4Q182 405.8 182.9 405.3Q183.8 404.8 184.6 404.5Q185.4 404.2 186.2 404Q186.9 403.9 187.6 403.9Q189.9 403.9 191.4 404.8Q193 405.7 193.8 407.4Q194.6 409.1 194.6 411.3Q194.6 413.4 193.9 415.1Q193.2 416.8 192 418Q190.7 419.2 189.1 419.8Q187.5 420.4 185.7 420.4Q184.8 420.4 183.9 420.3Q183 420.1 182.1 419.8Q181.2 419.5 180.2 419ZM206.3 417 204.5 421.2 197.3 405.9 195.1 405V404.2H203.4V405L201.1 405.7ZM199.3 429.4Q198.3 429.4 197.6 428.9Q196.9 428.3 196.9 427.3Q196.9 426.8 197.1 426.4Q197.3 426 197.7 425.8Q198 425.6 198.4 425.6Q198.7 425.6 199 425.8Q199.3 426 199.7 426.1Q200.1 426.3 200.6 426.3Q201.1 426.3 201.5 426.1Q201.9 425.9 202.2 425.4Q202.6 425 203 424.1L205 419.2L205.9 416.9L209.9 405.7L207.7 405V404.2H213.6V405L211.7 405.7L204.7 423.7Q203.8 425.9 203 427.2Q202.2 428.4 201.3 428.9Q200.4 429.4 199.3 429.4ZM225.1 418.3V397.7L222.1 396.4V395.7H229L243.3 415.1L242.3 416.7V397.4L239.2 396.4V395.7H246.9V396.4L244.1 397.4V420.3H242.5L226.2 398.3L226.9 397.6V418.3L229.9 419.3V420H222.3V419.3ZM256.7 418.9Q258 418.9 258.9 418.3Q259.9 417.6 260.4 416.2Q261 414.8 261 412.6Q261 410.2 260.4 408.6Q259.9 407 258.9 406.1Q258 405.3 256.6 405.3Q255.3 405.3 254.4 406Q253.4 406.6 252.9 408Q252.4 409.4 252.4 411.6Q252.4 414 252.9 415.6Q253.4 417.3 254.4 418.1Q255.4 418.9 256.7 418.9ZM256.6 420.4Q254.2 420.4 252.4 419.4Q250.6 418.3 249.6 416.5Q248.6 414.7 248.6 412.3Q248.6 409.8 249.6 407.9Q250.7 406 252.5 404.9Q254.4 403.9 256.8 403.9Q259.1 403.9 260.9 404.9Q262.7 405.9 263.8 407.7Q264.8 409.6 264.8 412Q264.8 414.4 263.7 416.3Q262.6 418.2 260.8 419.3Q258.9 420.4 256.6 420.4ZM276.9 410 277.1 411.3Q275.2 411.8 273.9 412.3Q272.7 412.7 272 413.2Q271.3 413.8 271.1 414.3Q270.8 414.9 270.8 415.6Q270.8 416.8 271.5 417.4Q272.1 418.1 273.1 418.1Q273.9 418.1 274.5 417.7Q275.2 417.3 275.6 416.6Q275.9 416 275.9 415.2V408.4Q275.9 407.1 275.3 406.4Q274.6 405.7 273.1 405.7Q272.6 405.7 271.9 405.8Q271.2 405.9 270.6 406.2L271.4 405.3Q271.4 406 271.2 406.6Q271.1 407.1 271 407.5Q270.8 407.9 270.6 408.2Q270.4 408.5 269.9 408.7Q269.4 408.8 269 408.8Q268.3 408.8 267.9 408.5Q267.6 408.3 267.6 407.8Q267.6 407.2 268.2 406.5Q268.8 405.8 269.8 405.3Q270.8 404.7 272.1 404.3Q273.3 404 274.6 404Q276.3 404 277.4 404.5Q278.5 405 278.9 406Q279.4 407 279.4 408.4V416.8Q279.4 417.3 279.5 417.7Q279.7 418 280 418.2Q280.3 418.3 280.7 418.3Q281.1 418.3 281.6 418.2Q282.1 418.1 282.5 417.8V418.6Q281.7 419.5 280.7 420Q279.8 420.4 279 420.4Q278 420.4 277.3 420Q276.7 419.5 276.3 418.7Q276 418 276 416.9L276.1 416.8Q275.8 417.9 275.2 418.7Q274.6 419.5 273.6 419.9Q272.7 420.4 271.7 420.4Q269.8 420.4 268.6 419.4Q267.4 418.3 267.4 416.3Q267.4 415.3 267.8 414.5Q268.2 413.7 269.2 412.9Q270.2 412.2 272.1 411.5Q274 410.7 276.9 410ZM306.4 396.8 303.7 396.2 305.9 394.6H306.3L307.5 402.7L306.7 402.9L303.3 397.2L304.2 398.3Q303.2 397.6 302.2 397.2Q301.2 396.9 300 396.9Q297.7 396.9 296.5 397.9Q295.3 399 295.3 400.6Q295.3 401.8 295.8 402.6Q296.3 403.4 297.2 403.9Q298.1 404.5 299.2 404.9Q300.3 405.3 301.5 405.7Q302.8 406.2 304 406.7Q305.2 407.2 306.1 408Q307.1 408.8 307.7 410Q308.3 411.2 308.3 412.9Q308.3 415.3 307.2 417Q306 418.6 304 419.5Q301.9 420.4 299.3 420.4Q297.5 420.4 296.1 420.2Q294.7 419.9 293.1 419.3L291.6 412.8H292.6L297.2 419.3L293.9 417.2Q295.3 418 296.5 418.4Q297.6 418.7 298.9 418.7Q300.9 418.7 302.2 418.2Q303.6 417.7 304.3 416.7Q305 415.7 305 414.2Q305 412.9 304.4 412Q303.8 411.1 302.8 410.5Q301.7 409.9 300.5 409.5Q299.3 409 298.1 408.6Q296.9 408.2 295.9 407.6Q294.8 407.1 294 406.3Q293.2 405.6 292.8 404.5Q292.3 403.5 292.3 402Q292.3 399.9 293.3 398.4Q294.3 396.9 296.1 396.1Q298 395.3 300.5 395.3Q302.1 395.3 303.5 395.7Q304.9 396 306.4 396.8ZM321.1 419.3 323.6 418.5V409.7Q323.6 408.7 323.2 408.1Q322.8 407.4 322.1 407.1Q321.3 406.7 320.2 406.7Q318.9 406.7 317.8 407.2Q316.7 407.6 316.1 408.2L315.5 407.7Q316.5 406.6 317.4 405.8Q318.3 405.1 319.2 404.7Q320 404.2 320.8 404.1Q321.6 403.9 322.6 403.9Q324.8 403.9 325.9 405.3Q327 406.7 327 409.7V418.5L329.6 419.3V420H321.1ZM319 420H310.5V419.3L313 418.5V398.2Q312.8 397.9 312.4 397.6Q312 397.4 311.5 397.1Q310.9 396.7 310.2 396.4V396L316.3 394.3H316.7L316.5 398.2V418.5L319 419.3ZM334.9 399.1Q333.9 399.1 333.2 398.4Q332.5 397.7 332.5 396.7Q332.5 395.7 333.2 395Q333.9 394.3 334.9 394.3Q336 394.3 336.7 395Q337.4 395.7 337.4 396.7Q337.4 397.7 336.7 398.4Q336 399.1 334.9 399.1ZM337 403.8 336.8 407.1V418.5L339.4 419.3V420H330.8V419.3L333.4 418.5V407.5Q333.2 407.2 332.8 407Q332.4 406.7 331.9 406.4Q331.4 406.1 330.8 405.9V405.4L336.5 403.8ZM352 404Q353 404 353.5 404.5Q353.9 405 353.9 405.8Q353.9 406.7 353.3 407.3Q352.7 407.8 351.7 407.8Q351.2 407.8 350.8 407.7Q350.4 407.5 350 407.4Q349.5 407.2 349 407.2Q348.5 407.2 348.1 407.4Q347.6 407.5 347.2 407.7Q346.7 407.9 346.3 408.2L346 407.5Q347.1 406.6 347.9 405.9Q348.8 405.2 349.6 404.8Q350.3 404.4 350.9 404.2Q351.5 404 352 404ZM346.8 407.3V418.5L349.5 419.3V420H340.8V419.3L343.4 418.5V407.7Q343.1 407.4 342.8 407.2Q342.4 406.9 341.9 406.7Q341.4 406.5 340.8 406.2V405.7L346.2 403.8H346.6ZM364.6 410 364.8 411.3Q362.9 411.8 361.6 412.3Q360.4 412.7 359.7 413.2Q359 413.8 358.7 414.3Q358.5 414.9 358.5 415.6Q358.5 416.8 359.2 417.4Q359.8 418.1 360.8 418.1Q361.6 418.1 362.2 417.7Q362.9 417.3 363.3 416.6Q363.6 416 363.6 415.2V408.4Q363.6 407.1 363 406.4Q362.3 405.7 360.8 405.7Q360.2 405.7 359.6 405.8Q358.9 405.9 358.3 406.2L359.1 405.3Q359.1 406 358.9 406.6Q358.8 407.1 358.7 407.5Q358.5 407.9 358.3 408.2Q358.1 408.5 357.6 408.7Q357.1 408.8 356.6 408.8Q356 408.8 355.6 408.5Q355.3 408.3 355.3 407.8Q355.3 407.2 355.9 406.5Q356.5 405.8 357.5 405.3Q358.5 404.7 359.8 404.3Q361 404 362.3 404Q364 404 365.1 404.5Q366.2 405 366.6 406Q367.1 407 367.1 408.4V416.8Q367.1 417.3 367.2 417.7Q367.4 418 367.7 418.2Q368 418.3 368.4 418.3Q368.8 418.3 369.3 418.2Q369.8 418.1 370.2 417.8V418.6Q369.4 419.5 368.4 420Q367.5 420.4 366.7 420.4Q365.7 420.4 365 420Q364.4 419.5 364 418.7Q363.7 418 363.7 416.9L363.8 416.8Q363.5 417.9 362.9 418.7Q362.2 419.5 361.3 419.9Q360.4 420.4 359.4 420.4Q357.5 420.4 356.3 419.4Q355 418.3 355 416.3Q355 415.3 355.5 414.5Q355.9 413.7 356.9 412.9Q357.9 412.2 359.8 411.5Q361.7 410.7 364.6 410ZM376.9 407.3V418.5L379.4 419.3V420H370.9V419.3L373.5 418.5V407.7Q373.2 407.3 372.6 407Q372 406.7 370.9 406.2V405.7L375.9 403.8H376.3ZM381.5 419.3 384 418.5V409.7Q384 408.7 383.7 408.1Q383.3 407.4 382.6 407.1Q381.8 406.7 380.7 406.7Q379.4 406.7 378.3 407.2Q377.2 407.6 376.6 408.2L376 407.7Q377 406.6 377.9 405.8Q378.8 405.1 379.6 404.7Q380.4 404.2 381.3 404.1Q382.1 403.9 383 403.9Q385.3 403.9 386.4 405.3Q387.5 406.7 387.5 409.7V418.5L390.1 419.3V420H381.5ZM399.2 403.9Q401.1 403.9 402.5 404.7Q403.8 405.5 404.6 407Q405.4 408.6 405.6 410.7H394.3L394.4 409.5L403.6 409.1L402 409.9Q401.9 408.4 401.5 407.4Q401.2 406.4 400.5 405.9Q399.9 405.3 398.9 405.3Q397.7 405.3 396.9 406Q396 406.6 395.5 407.9Q395 409.2 395 411.2Q395 413.3 395.8 414.8Q396.6 416.2 397.9 417Q399.3 417.8 401.1 417.8Q401.8 417.8 402.5 417.6Q403.2 417.4 403.9 417.1Q404.6 416.7 405.2 416.1L405.7 416.7Q404.7 417.9 403.7 418.8Q402.7 419.6 401.6 420Q400.5 420.4 399.2 420.4Q397 420.4 395.3 419.4Q393.6 418.3 392.6 416.5Q391.7 414.7 391.7 412.4Q391.7 410 392.6 408.1Q393.4 406.2 395.1 405Q396.8 403.9 399.2 403.9Z"/><path fill="#5C6470" d="M664.3 408.1 664.6 406.9H672.1L671.9 408.1ZM666.4 416.8Q666.3 417 666.2 417.2Q666.2 417.4 666.2 417.6Q666.2 417.7 666.2 417.8Q666.2 418.1 666.3 418.2Q666.4 418.3 666.5 418.3Q666.8 418.3 667.4 418Q668 417.6 668.6 416.9Q669.3 416.3 670.1 415.3L670.6 415.7Q669.9 416.7 669.2 417.6Q668.6 418.4 667.9 419Q667.3 419.6 666.7 420Q666.1 420.3 665.5 420.3Q664.9 420.3 664.5 419.9Q664.1 419.5 664.1 418.6Q664.1 418.2 664.2 417.7Q664.3 417.1 664.5 416.4L668 404.2H670ZM676.2 408.6Q676.2 408.6 676.1 408.6Q676.1 408.5 676 408.5Q675.5 408.5 675 408.8Q674.5 409 673.9 409.6Q673.4 410.2 672.8 411.2L672.3 411Q673 409.3 673.7 408.4Q674.5 407.4 675.3 407Q676.1 406.6 676.9 406.6Q677.2 406.6 677.5 406.7Q677.8 406.7 678.1 406.8Q678.3 406.8 678.6 406.9L677 412.2H676.9Q677.9 410.2 678.8 409Q679.7 407.8 680.6 407.2Q681.4 406.6 682.3 406.6Q683.2 406.6 683.6 407.1Q684 407.5 684 408.1Q684 408.6 683.8 409Q683.5 409.4 683.1 409.6Q682.7 409.8 682.2 409.8Q682.1 409.8 681.9 409.7Q681.8 409.6 681.6 409.3Q681.4 408.9 681.3 408.8Q681.1 408.6 680.9 408.6Q680.5 408.6 680 409Q679.5 409.4 679 410Q678.5 410.7 678 411.5Q677.4 412.4 677 413.5Q676.5 414.6 676.1 415.8L674.8 420H672.7ZM689.8 419.3 691.4 414.4H691.8Q690.6 416.1 689.7 417.2Q688.8 418.4 688 419Q687.3 419.7 686.6 420Q686 420.3 685.4 420.3Q684.6 420.3 684 420Q683.4 419.7 683.1 419Q682.7 418.4 682.7 417.3Q682.7 416.1 683.2 414.7Q683.6 413.3 684.4 411.9Q685.2 410.6 686.3 409.4Q687.3 408.3 688.6 407.6Q689.8 406.9 691.2 406.9Q692 406.9 692.6 407.2Q693.2 407.5 693.7 408.2L693.1 408.9Q693 408.5 692.6 408.2Q692.1 407.9 691.5 407.9Q690.4 407.9 689.5 408.6Q688.5 409.3 687.7 410.4Q686.9 411.5 686.3 412.7Q685.6 414 685.3 415.2Q685 416.3 685 417.1Q685 417.8 685.4 418.1Q685.7 418.4 686.3 418.4Q686.8 418.4 687.5 418Q688.3 417.6 689.1 416.9Q689.9 416.1 690.6 415.1Q691.3 414 691.8 412.8L693.6 407.1L695.3 406.9H695.8L691.9 418.9L691.6 418.4Q692.1 418.4 692.8 418.2Q693.4 418 694.1 417.6Q694.9 417.1 695.6 416.4L696 416.9Q694.3 418.8 693.1 419.5Q691.9 420.3 690.9 420.3Q690.2 420.3 689.9 420Q689.6 419.7 689.8 419.3ZM697.8 411.2 697.3 411Q697.9 409.3 698.7 408.4Q699.4 407.4 700.3 407Q701.1 406.6 701.9 406.6Q702.2 406.6 702.5 406.7Q702.8 406.7 703.1 406.8Q703.3 406.8 703.6 406.9L701.8 412.8H701.7Q702.4 411.6 703.2 410.4Q704 409.3 704.8 408.5Q705.7 407.6 706.6 407.2Q707.4 406.7 708.3 406.7Q709.6 406.7 710.1 407.2Q710.6 407.8 710.6 408.6Q710.6 409.1 710.4 409.7Q710.3 410.3 710 411L706.9 418.9V418.4Q707.4 418.4 708 418.2Q708.6 417.9 709.3 417.5Q710 417.1 710.7 416.4L711.1 416.9Q710 418.1 709.1 418.9Q708.2 419.7 707.4 420Q706.6 420.3 706 420.3Q705 420.3 704.8 420Q704.5 419.7 704.9 418.9L708.1 410.6Q708.2 410.2 708.3 409.9Q708.4 409.6 708.4 409.3Q708.4 408.9 708.2 408.7Q707.9 408.5 707.3 408.5Q706.5 408.5 705.7 409.1Q704.8 409.7 703.9 410.8Q703 411.8 702.2 413.2Q701.5 414.5 701.1 416L699.8 420H697.7L701.2 408.6Q701.2 408.6 701.1 408.6Q701.1 408.5 701 408.5Q700.5 408.5 700 408.8Q699.5 409 698.9 409.6Q698.4 410.2 697.8 411.2ZM713.2 416.9Q713.4 417 713.6 417.3Q713.8 417.6 714.2 418.2Q714.6 418.9 715 419.1Q715.4 419.3 715.8 419.3Q716.5 419.3 717 419.1Q717.5 418.9 717.7 418.4Q718 418 718 417.4Q718 416.9 717.9 416.5Q717.7 416 717.3 415.4Q717 414.8 716.3 414.1Q715.6 413.3 715.2 412.6Q714.8 412 714.7 411.5Q714.5 410.9 714.5 410.4Q714.5 409.4 715 408.5Q715.5 407.7 716.4 407.1Q717.4 406.6 718.7 406.6Q719.7 406.6 720.4 406.9Q721 407.2 721.3 407.6Q721.6 408 721.6 408.6Q721.6 408.9 721.4 409.2Q721.3 409.5 721 409.6Q720.7 409.8 720.3 409.8Q720.1 409.7 719.9 409.5Q719.7 409.2 719.4 408.7Q719 408.2 718.6 407.9Q718.2 407.7 717.8 407.7Q717 407.7 716.5 408.1Q716.1 408.6 716.1 409.4Q716.1 409.7 716.2 410.2Q716.4 410.6 716.8 411.2Q717.1 411.7 717.8 412.5Q718.5 413.3 718.8 414Q719.2 414.7 719.4 415.3Q719.6 415.8 719.6 416.3Q719.6 417.5 719 418.4Q718.4 419.3 717.3 419.8Q716.3 420.3 715 420.3Q713.9 420.3 713.2 420Q712.5 419.7 712.2 419.2Q711.8 418.8 711.8 418.2Q711.8 417.9 712 417.6Q712.2 417.3 712.5 417.1Q712.8 416.9 713.2 416.9ZM727.7 400.9Q727.4 400.7 727.1 400.5Q726.8 400.3 726.5 400.1Q726.2 399.9 725.8 399.7L725.9 399.4L730.1 398.6H730.4L724.3 418.8L724.1 418.3Q724.5 418.4 725.2 418.2Q725.8 418 726.5 417.6Q727.3 417.1 728 416.4L728.4 416.9Q727.3 418.2 726.4 418.9Q725.5 419.7 724.7 420Q724 420.3 723.3 420.3Q722.6 420.3 722.2 420.1Q721.9 419.9 722.1 419.4ZM736.4 419.3 738 414.4H738.3Q737.2 416.1 736.3 417.2Q735.3 418.4 734.6 419Q733.8 419.7 733.2 420Q732.6 420.3 732 420.3Q731.2 420.3 730.6 420Q730 419.7 729.6 419Q729.3 418.4 729.3 417.3Q729.3 416.1 729.8 414.7Q730.2 413.3 731 411.9Q731.8 410.6 732.9 409.4Q733.9 408.3 735.2 407.6Q736.4 406.9 737.8 406.9Q738.6 406.9 739.2 407.2Q739.8 407.5 740.3 408.2L739.7 408.9Q739.6 408.5 739.2 408.2Q738.7 407.9 738.1 407.9Q737 407.9 736.1 408.6Q735.1 409.3 734.3 410.4Q733.5 411.5 732.8 412.7Q732.2 414 731.9 415.2Q731.6 416.3 731.6 417.1Q731.6 417.8 731.9 418.1Q732.3 418.4 732.9 418.4Q733.4 418.4 734.1 418Q734.9 417.6 735.7 416.9Q736.5 416.1 737.2 415.1Q737.9 414 738.4 412.8L740.2 407.1L741.9 406.9H742.4L738.5 418.9L738.2 418.4Q738.7 418.4 739.4 418.2Q740 418 740.7 417.6Q741.5 417.1 742.2 416.4L742.5 416.9Q740.9 418.8 739.7 419.5Q738.5 420.3 737.5 420.3Q736.8 420.3 736.5 420Q736.2 419.7 736.4 419.3ZM744.8 408.1 745.1 406.9H752.5L752.3 408.1ZM746.8 416.8Q746.8 417 746.7 417.2Q746.7 417.4 746.6 417.6Q746.6 417.7 746.6 417.8Q746.6 418.1 746.7 418.2Q746.8 418.3 747 418.3Q747.3 418.3 747.9 418Q748.4 417.6 749.1 416.9Q749.8 416.3 750.5 415.3L751.1 415.7Q750.4 416.7 749.7 417.6Q749 418.4 748.4 419Q747.7 419.6 747.1 420Q746.5 420.3 746 420.3Q745.4 420.3 745 419.9Q744.6 419.5 744.6 418.6Q744.6 418.2 744.6 417.7Q744.7 417.1 744.9 416.4L748.4 404.2H750.5ZM759.5 407.6Q758.6 407.6 757.9 408.1Q757.2 408.7 756.6 409.6Q756.1 410.5 755.7 411.6Q755.3 412.7 755.1 413.8Q754.9 414.8 754.9 415.7Q754.9 417.3 755.5 417.9Q756.2 418.6 757.2 418.6Q757.9 418.6 758.5 418.3Q759.1 418.1 759.7 417.4Q760.3 416.8 760.8 415.7H761.6Q760.8 417.4 760.1 418.5Q759.3 419.5 758.4 419.9Q757.6 420.3 756.4 420.3Q755.3 420.3 754.5 419.9Q753.6 419.4 753.2 418.5Q752.7 417.7 752.7 416.4Q752.7 414.8 753.1 413.4Q753.5 411.9 754.2 410.7Q754.8 409.5 755.7 408.6Q756.6 407.6 757.7 407.1Q758.8 406.6 759.9 406.6Q761 406.6 761.6 407Q762.3 407.4 762.6 407.9Q762.9 408.5 762.9 409.2Q762.9 409.9 762.6 410.5Q762.4 411.1 761.9 411.6Q761.1 411.9 760.2 412.2Q759.4 412.6 758.4 412.9Q757.5 413.3 756.6 413.6Q755.7 413.9 754.7 414.2L754.8 413.2Q756.3 412.8 757.3 412.3Q758.4 411.9 759.1 411.5Q759.8 411.1 760.2 410.7Q760.6 410.3 760.7 409.9Q760.9 409.5 760.9 409Q760.9 408.6 760.8 408.3Q760.6 408 760.3 407.8Q760 407.6 759.5 407.6ZM774 408.9Q773.9 408.4 773.5 408.1Q773 407.8 772.4 407.8Q771.3 407.8 770.3 408.5Q769.3 409.2 768.5 410.3Q767.6 411.4 767 412.7Q766.4 414 766.1 415.1Q765.8 416.3 765.8 417.1Q765.8 417.8 766.1 418.1Q766.5 418.4 767 418.4Q767.5 418.4 768.1 418.2Q768.6 417.9 769.3 417.4Q770 416.9 770.6 416.1Q771.3 415.4 771.8 414.6Q772.4 413.7 772.7 412.8L776.4 400.9Q776.1 400.7 775.8 400.5Q775.6 400.3 775.2 400.1Q774.9 399.9 774.5 399.7L774.6 399.4L778.8 398.6H779.1L772.8 418.9L772.5 418.4Q773 418.4 773.7 418.2Q774.3 418 775 417.6Q775.8 417.1 776.5 416.4L776.9 416.9Q775.2 418.8 774 419.5Q772.8 420.3 771.8 420.3Q771.1 420.3 770.8 420Q770.5 419.7 770.7 419.2L772.3 414.4H772.6Q771.5 416.1 770.5 417.3Q769.6 418.4 768.8 419.1Q768 419.7 767.4 420Q766.7 420.3 766.2 420.3Q765.3 420.3 764.7 420Q764.1 419.7 763.8 419Q763.5 418.3 763.5 417.3Q763.5 416.1 763.9 414.7Q764.4 413.3 765.2 411.9Q766 410.5 767.1 409.3Q768.2 408.1 769.4 407.4Q770.7 406.7 772.1 406.7Q772.9 406.7 773.5 407Q774.1 407.4 774.6 408.1ZM787.5 415.4Q787.3 416 787.2 416.6Q787.1 417.1 787.1 417.5Q787.1 418.4 787.5 418.9Q787.9 419.4 788.7 419.4Q789.5 419.4 790.3 418.8Q791.2 418.3 792 417.4Q792.7 416.5 793.4 415.3Q794 414.2 794.3 413Q794.7 411.8 794.7 410.6Q794.7 409.6 794.3 409.1Q793.9 408.5 793 408.5Q792.5 408.5 791.9 408.9Q791.2 409.2 790.6 409.7Q790 410.3 789.4 411Q788.9 411.7 788.5 412.5Q788.1 413.3 787.8 414.1ZM789.8 400.9Q789.5 400.7 789.2 400.5Q788.9 400.3 788.6 400.1Q788.3 399.9 787.8 399.8L787.9 399.4L792.1 398.6H792.4L788.4 412.1L788.3 411.6Q789.4 409.9 790.4 408.8Q791.4 407.7 792.4 407.2Q793.3 406.6 794.1 406.6Q795.6 406.6 796.3 407.6Q797 408.5 797 410Q797 411.5 796.5 413Q796.1 414.5 795.2 415.8Q794.4 417.1 793.4 418.1Q792.3 419.1 791.1 419.7Q789.9 420.3 788.7 420.3Q787.1 420.3 786.2 419.3Q785.3 418.4 785.3 416.8Q785.3 416.3 785.3 415.9Q785.4 415.4 785.6 414.9ZM799.1 412.2H798.5Q798.8 410.6 799.1 409.5Q799.4 408.4 799.9 407.8Q800.4 407.2 800.9 406.9Q801.5 406.6 802.2 406.6Q802.5 406.6 802.8 406.8Q803.1 407 803.3 407.4Q803.5 407.8 803.7 408.6Q803.8 409.4 804.1 411Q804.3 412.5 804.6 415Q804.9 417.5 805.2 421.1L803.3 422.6Q803 420.2 802.8 418.3Q802.6 416.5 802.5 415.1Q802.3 413.7 802.2 412.7Q802 411.7 801.9 411Q801.7 410 801.6 409.5Q801.5 409 801.4 408.9Q801.3 408.7 801.1 408.7Q800.8 408.7 800.4 409Q800.1 409.3 799.7 410.1Q799.4 410.8 799.1 412.2ZM804 421.1 804.5 420.6Q805.7 418.8 806.5 417.2Q807.3 415.6 807.8 414Q808.3 412.4 808.5 410.7Q808.7 409 808.7 406.9Q809.2 406.8 809.6 406.7Q809.9 406.6 810.3 406.6Q810.7 406.6 810.9 406.8Q811.1 407 811.1 407.4Q811.1 408.1 810.9 409.1Q810.7 410 810.4 411.2Q810 412.4 809.4 413.7Q808.8 415.1 807.9 416.6Q807.1 418.2 806 420Q804.1 423 802.6 424.7Q801.1 426.4 799.9 427.1Q798.6 427.8 797.3 427.8Q796.2 427.8 795.7 427.4Q795.2 426.9 795.2 426Q795.2 425.4 795.6 425Q795.9 424.6 796.5 424.6Q796.7 424.6 796.8 424.7Q797 424.9 797.4 425.4Q797.7 425.8 798 426Q798.4 426.2 798.7 426.2Q799.3 426.2 800.2 425.6Q801.1 424.9 802.1 423.8Q803.1 422.6 804 421.1ZM825.5 400.9 823.3 400.3 823.5 399.8H830.4L830.2 400.3L827.8 401L822.4 418.8L824.5 419.5L824.3 420H817.4L817.6 419.5L820 418.8ZM833.7 400.9Q833.5 400.7 833.2 400.5Q832.9 400.3 832.6 400.1Q832.3 399.9 831.9 399.7L832 399.4L836.2 398.6H836.5L830.4 418.8L830.2 418.3Q830.6 418.4 831.3 418.2Q831.9 418 832.6 417.6Q833.4 417.1 834.1 416.4L834.5 416.9Q833.4 418.2 832.5 418.9Q831.6 419.7 830.8 420Q830.1 420.3 829.4 420.3Q828.7 420.3 828.3 420.1Q828 419.9 828.1 419.4ZM836.5 416.9Q836.7 417 836.9 417.3Q837 417.6 837.5 418.2Q837.9 418.9 838.3 419.1Q838.7 419.3 839.1 419.3Q839.7 419.3 840.2 419.1Q840.7 418.9 841 418.4Q841.2 418 841.2 417.4Q841.2 416.9 841.1 416.5Q841 416 840.6 415.4Q840.2 414.8 839.5 414.1Q838.8 413.3 838.5 412.6Q838.1 412 837.9 411.5Q837.8 410.9 837.8 410.4Q837.8 409.4 838.2 408.5Q838.7 407.7 839.7 407.1Q840.6 406.6 842 406.6Q843 406.6 843.6 406.9Q844.2 407.2 844.5 407.6Q844.8 408 844.8 408.6Q844.8 408.9 844.7 409.2Q844.5 409.5 844.2 409.6Q843.9 409.8 843.5 409.8Q843.4 409.7 843.2 409.5Q843 409.2 842.6 408.7Q842.2 408.2 841.8 407.9Q841.4 407.7 841 407.7Q840.2 407.7 839.8 408.1Q839.3 408.6 839.3 409.4Q839.3 409.7 839.5 410.2Q839.6 410.6 840 411.2Q840.4 411.7 841 412.5Q841.7 413.3 842.1 414Q842.5 414.7 842.7 415.3Q842.8 415.8 842.8 416.3Q842.8 417.5 842.2 418.4Q841.6 419.3 840.6 419.8Q839.6 420.3 838.2 420.3Q837.2 420.3 836.4 420Q835.7 419.7 835.4 419.2Q835.1 418.8 835.1 418.2Q835.1 417.9 835.2 417.6Q835.4 417.3 835.7 417.1Q836.1 416.9 836.5 416.9ZM852.3 407.6Q851.4 407.6 850.7 408.1Q849.9 408.7 849.4 409.6Q848.8 410.5 848.5 411.6Q848.1 412.7 847.9 413.8Q847.7 414.8 847.7 415.7Q847.7 417.3 848.3 417.9Q848.9 418.6 849.9 418.6Q850.6 418.6 851.2 418.3Q851.9 418.1 852.5 417.4Q853 416.8 853.6 415.7H854.4Q853.6 417.4 852.8 418.5Q852.1 419.5 851.2 419.9Q850.4 420.3 849.2 420.3Q848.1 420.3 847.3 419.9Q846.4 419.4 846 418.5Q845.5 417.7 845.5 416.4Q845.5 414.8 845.9 413.4Q846.3 411.9 846.9 410.7Q847.6 409.5 848.5 408.6Q849.4 407.6 850.5 407.1Q851.6 406.6 852.7 406.6Q853.7 406.6 854.4 407Q855.1 407.4 855.4 407.9Q855.7 408.5 855.7 409.2Q855.7 409.9 855.4 410.5Q855.1 411.1 854.7 411.6Q853.9 411.9 853 412.2Q852.1 412.6 851.2 412.9Q850.3 413.3 849.4 413.6Q848.4 413.9 847.5 414.2L847.6 413.2Q849 412.8 850.1 412.3Q851.2 411.9 851.9 411.5Q852.6 411.1 853 410.7Q853.4 410.3 853.5 409.9Q853.7 409.5 853.7 409Q853.7 408.6 853.5 408.3Q853.4 408 853.1 407.8Q852.8 407.6 852.3 407.6ZM867.1 401 865.2 400.3 865.4 399.8H872.3L872.1 400.3L869.5 400.9L871 417.7H870.1L881 401L878.9 400.3L879 399.8H885.1L885 400.3L882.5 401L869.7 420.3H869ZM886.2 419.3 887.8 414.4H888.1Q887 416.1 886.1 417.2Q885.1 418.4 884.4 419Q883.6 419.7 883 420Q882.4 420.3 881.8 420.3Q881 420.3 880.4 420Q879.8 419.7 879.5 419Q879.1 418.4 879.1 417.3Q879.1 416.1 879.6 414.7Q880 413.3 880.8 411.9Q881.6 410.6 882.7 409.4Q883.7 408.3 885 407.6Q886.2 406.9 887.6 406.9Q888.4 406.9 889 407.2Q889.6 407.5 890.1 408.2L889.5 408.9Q889.4 408.5 889 408.2Q888.5 407.9 887.9 407.9Q886.8 407.9 885.9 408.6Q884.9 409.3 884.1 410.4Q883.3 411.5 882.7 412.7Q882 414 881.7 415.2Q881.4 416.3 881.4 417.1Q881.4 417.8 881.8 418.1Q882.1 418.4 882.7 418.4Q883.2 418.4 883.9 418Q884.7 417.6 885.5 416.9Q886.3 416.1 887 415.1Q887.7 414 888.2 412.8L890 407.1L891.7 406.9H892.2L888.3 418.9L888 418.4Q888.5 418.4 889.2 418.2Q889.8 418 890.5 417.6Q891.3 417.1 892 416.4L892.3 416.9Q890.7 418.8 889.5 419.5Q888.3 420.3 887.3 420.3Q886.6 420.3 886.3 420Q886 419.7 886.2 419.3ZM897.6 408.6Q897.6 408.6 897.5 408.6Q897.5 408.5 897.4 408.5Q896.9 408.5 896.4 408.8Q895.9 409 895.3 409.6Q894.8 410.2 894.2 411.2L893.7 411Q894.3 409.3 895.1 408.4Q895.8 407.4 896.7 407Q897.5 406.6 898.3 406.6Q898.6 406.6 898.9 406.7Q899.2 406.7 899.5 406.8Q899.7 406.8 900 406.9L898.4 412.2H898.3Q899.3 410.2 900.2 409Q901.1 407.8 902 407.2Q902.8 406.6 903.7 406.6Q904.6 406.6 905 407.1Q905.4 407.5 905.4 408.1Q905.4 408.6 905.2 409Q904.9 409.4 904.5 409.6Q904.1 409.8 903.6 409.8Q903.5 409.8 903.3 409.7Q903.2 409.6 903 409.3Q902.8 408.9 902.7 408.8Q902.5 408.6 902.3 408.6Q901.9 408.6 901.4 409Q900.9 409.4 900.4 410Q899.9 410.7 899.4 411.5Q898.8 412.4 898.4 413.5Q897.9 414.6 897.5 415.8L896.2 420H894.1ZM916.6 408.8Q916.3 408.8 916.1 408.7Q915.8 408.6 915.6 408.4Q915.3 408.2 914.9 408Q914.6 407.8 914.1 407.6Q913.5 407.5 912.7 407.5L912.4 406.8Q913.6 407 914.5 406.9Q915.3 406.9 915.9 406.7Q916.6 406.6 917.2 406.6Q917.5 406.6 917.7 406.8Q917.9 407 917.9 407.3Q917.9 407.7 917.8 407.9Q917.7 408.2 917.5 408.4Q917.3 408.6 917.1 408.7Q916.8 408.8 916.6 408.8ZM909.1 415.3Q909.6 415.3 910.2 415Q910.7 414.8 911.2 414.2Q911.6 413.7 912 413Q912.3 412.3 912.6 411.4Q912.8 410.5 912.8 409.5Q912.8 408.4 912.4 408Q912.1 407.5 911.4 407.5Q910.9 407.5 910.4 407.8Q909.8 408.1 909.4 408.6Q908.9 409.1 908.5 409.8Q908.2 410.6 908 411.4Q907.7 412.3 907.7 413.4Q907.7 414.4 908.1 414.8Q908.4 415.3 909.1 415.3ZM911.6 406.6Q912.6 406.6 913.3 407.1Q914.1 407.5 914.4 408.3Q914.8 409.1 914.8 410.1Q914.8 411.3 914.3 412.4Q913.9 413.5 913.1 414.4Q912.2 415.2 911.2 415.7Q910.1 416.2 908.9 416.2Q907.9 416.2 907.2 415.8Q906.5 415.3 906.1 414.6Q905.7 413.8 905.7 412.7Q905.7 411.5 906.2 410.4Q906.6 409.3 907.4 408.5Q908.3 407.6 909.3 407.1Q910.4 406.6 911.6 406.6ZM908.7 427.8Q907.2 427.8 906.1 427.6Q904.9 427.4 904.1 426.9Q903.3 426.5 902.9 425.8Q902.5 425.2 902.5 424.4Q902.5 423.4 903.1 422.7Q903.8 421.9 905 421.5Q906.3 421 908.2 420.8H909.5V421.1Q908.3 421.2 907.4 421.4Q906.4 421.6 905.8 422Q905.1 422.4 904.8 422.9Q904.4 423.5 904.4 424.1Q904.4 425 904.9 425.6Q905.4 426.2 906.3 426.6Q907.3 426.9 908.7 426.9Q910.1 426.9 911 426.6Q912 426.2 912.4 425.6Q912.8 425 912.8 424.4Q912.8 423.8 912.5 423.3Q912.3 422.9 911.7 422.5Q911.1 422.1 910.1 421.8Q909.2 421.5 908 421.1Q906.9 420.8 906.3 420.4Q905.7 419.9 905.5 419.4Q905.3 418.9 905.3 418.4Q905.3 417.8 905.6 417.3Q906 416.8 906.7 416.3Q907.4 415.9 908.3 415.6L908.9 415.9Q908 416.1 907.5 416.5Q907 416.9 907 417.4Q907 417.6 907.1 417.9Q907.2 418.1 907.5 418.4Q907.9 418.6 908.5 418.9Q909 419.1 910 419.4Q911.8 420.1 912.8 420.7Q913.8 421.4 914.3 422.1Q914.7 422.8 914.7 423.7Q914.7 424.6 914.3 425.4Q913.8 426.1 913.1 426.7Q912.3 427.2 911.2 427.5Q910 427.8 908.7 427.8ZM923.4 419.3 924.9 414.4H925.3Q924.2 416.1 923.2 417.2Q922.3 418.4 921.6 419Q920.8 419.7 920.2 420Q919.5 420.3 919 420.3Q918.2 420.3 917.6 420Q917 419.7 916.6 419Q916.3 418.4 916.3 417.3Q916.3 416.1 916.7 414.7Q917.2 413.3 918 411.9Q918.8 410.6 919.8 409.4Q920.9 408.3 922.2 407.6Q923.4 406.9 924.7 406.9Q925.6 406.9 926.2 407.2Q926.8 407.5 927.2 408.2L926.7 408.9Q926.6 408.5 926.1 408.2Q925.7 407.9 925.1 407.9Q924 407.9 923 408.6Q922.1 409.3 921.2 410.4Q920.4 411.5 919.8 412.7Q919.2 414 918.9 415.2Q918.6 416.3 918.6 417.1Q918.6 417.8 918.9 418.1Q919.3 418.4 919.8 418.4Q920.3 418.4 921.1 418Q921.8 417.6 922.6 416.9Q923.4 416.1 924.2 415.1Q924.9 414 925.4 412.8L927.2 407.1L928.9 406.9H929.3L925.5 418.9L925.2 418.4Q925.7 418.4 926.3 418.2Q927 418 927.7 417.6Q928.4 417.1 929.1 416.4L929.5 416.9Q927.9 418.8 926.7 419.5Q925.5 420.3 924.5 420.3Q923.8 420.3 923.5 420Q923.2 419.7 923.4 419.3Z"/><line x1="70" y1="1215" x2="930" y2="1215" stroke="#1F3A5F" stroke-width="2"/><circle cx="98" cy="1290" r="24" fill="none" stroke="#1F3A5F" stroke-width="3"/><path d="M91 1275h14v30l-7 -7l-7 7z" fill="#1F3A5F"/><path fill="#1F3A5F" d="M143.6 1296.2Q142.7 1296.2 141.8 1296Q140.9 1295.8 140.2 1295.3Q139.5 1294.9 139.2 1294.2Q138.8 1293.5 138.8 1292.6Q138.8 1292.5 138.8 1292.4Q138.8 1292.3 138.8 1292.3H141Q141 1292.3 141 1292.4Q141 1292.5 141 1292.5Q141 1293.1 141.3 1293.5Q141.6 1293.9 142.2 1294.1Q142.9 1294.3 143.7 1294.3Q144.3 1294.3 144.7 1294.3Q145.1 1294.2 145.4 1294.1Q145.8 1293.9 146 1293.8Q146.2 1293.6 146.3 1293.4Q146.3 1293.1 146.3 1292.9Q146.3 1292.4 146 1292.1Q145.7 1291.8 145.2 1291.5Q144.7 1291.3 144 1291.1Q143.4 1291 142.7 1290.8Q142 1290.6 141.4 1290.3Q140.7 1290 140.2 1289.7Q139.7 1289.3 139.4 1288.7Q139.1 1288.2 139.1 1287.4Q139.1 1286.5 139.4 1285.9Q139.8 1285.3 140.4 1284.9Q141 1284.5 141.9 1284.3Q142.7 1284.1 143.7 1284.1Q144.7 1284.1 145.5 1284.3Q146.3 1284.5 146.9 1284.9Q147.6 1285.4 147.9 1286Q148.3 1286.6 148.3 1287.5V1287.7H146.1V1287.6Q146.1 1287.1 145.8 1286.7Q145.5 1286.4 145 1286.2Q144.4 1286 143.7 1286Q142.9 1286 142.4 1286.1Q141.9 1286.3 141.6 1286.6Q141.3 1286.9 141.3 1287.3Q141.3 1287.7 141.6 1288Q141.9 1288.3 142.4 1288.5Q142.9 1288.7 143.6 1288.8Q144.2 1289 144.9 1289.2Q145.6 1289.4 146.3 1289.7Q146.9 1289.9 147.4 1290.3Q148 1290.7 148.3 1291.2Q148.6 1291.8 148.6 1292.6Q148.6 1293.9 147.9 1294.7Q147.3 1295.5 146.2 1295.8Q145.1 1296.2 143.6 1296.2ZM154.4 1296V1284.3H156.6V1289.1H162V1284.3H164.2V1296H162V1291H156.6V1296ZM170.6 1296V1284.3H172.8V1296ZM184.4 1296.2Q182.6 1296.2 181.3 1295.5Q180 1294.9 179.3 1293.6Q178.6 1292.2 178.6 1290.2Q178.6 1288.1 179.3 1286.8Q180 1285.4 181.3 1284.8Q182.6 1284.1 184.4 1284.1Q186.3 1284.1 187.6 1284.8Q188.9 1285.4 189.6 1286.8Q190.3 1288.1 190.3 1290.2Q190.3 1292.2 189.6 1293.6Q188.9 1294.9 187.6 1295.5Q186.3 1296.2 184.4 1296.2ZM184.4 1294.3Q185.3 1294.3 186 1294.1Q186.7 1293.8 187.1 1293.3Q187.6 1292.8 187.8 1292.1Q188.1 1291.3 188.1 1290.4V1290Q188.1 1289 187.8 1288.3Q187.6 1287.5 187.1 1287Q186.7 1286.5 186 1286.3Q185.3 1286 184.4 1286Q183.6 1286 182.9 1286.3Q182.2 1286.5 181.8 1287Q181.3 1287.5 181.1 1288.3Q180.8 1289 180.8 1290V1290.4Q180.8 1291.3 181.1 1292.1Q181.3 1292.8 181.8 1293.3Q182.2 1293.8 182.9 1294.1Q183.6 1294.3 184.4 1294.3ZM196.1 1296V1284.3H202.3Q203.6 1284.3 204.4 1284.8Q205.3 1285.2 205.7 1286Q206.1 1286.9 206.1 1288Q206.1 1289.1 205.6 1290Q205.1 1290.8 204.1 1291.3L206.5 1296H204.1L202 1291.7H198.3V1296ZM198.3 1289.8H202.1Q202.9 1289.8 203.4 1289.3Q203.9 1288.8 203.9 1288Q203.9 1287.4 203.7 1287Q203.5 1286.6 203.1 1286.4Q202.7 1286.2 202.1 1286.2H198.3ZM212.1 1296V1284.3H214.3V1296ZM227.7 1296V1284.3H233.6Q234.9 1284.3 235.7 1284.8Q236.5 1285.3 237 1286.1Q237.4 1286.9 237.4 1288.1Q237.4 1289.2 237 1290.1Q236.5 1290.9 235.6 1291.4Q234.8 1291.9 233.5 1291.9H229.9V1296ZM229.9 1290H233.4Q234.2 1290 234.7 1289.5Q235.2 1289 235.2 1288.1Q235.2 1287.5 235 1287.1Q234.8 1286.7 234.4 1286.4Q234 1286.2 233.4 1286.2H229.9ZM242.9 1296V1284.3H249Q250.3 1284.3 251.1 1284.8Q252 1285.2 252.4 1286Q252.8 1286.9 252.8 1288Q252.8 1289.1 252.3 1290Q251.8 1290.8 250.8 1291.3L253.2 1296H250.8L248.7 1291.7H245.1V1296ZM245.1 1289.8H248.8Q249.7 1289.8 250.1 1289.3Q250.6 1288.8 250.6 1288Q250.6 1287.4 250.4 1287Q250.2 1286.6 249.8 1286.4Q249.4 1286.2 248.8 1286.2H245.1ZM258.8 1296V1284.3H267.9V1286.2H261V1289.1H267.1V1291H261V1294.1H268V1296ZM278.3 1296.2Q277.3 1296.2 276.4 1296Q275.6 1295.8 274.9 1295.3Q274.2 1294.9 273.8 1294.2Q273.4 1293.5 273.4 1292.6Q273.4 1292.5 273.4 1292.4Q273.4 1292.3 273.4 1292.3H275.7Q275.7 1292.3 275.7 1292.4Q275.6 1292.5 275.6 1292.5Q275.6 1293.1 276 1293.5Q276.3 1293.9 276.9 1294.1Q277.5 1294.3 278.4 1294.3Q278.9 1294.3 279.3 1294.3Q279.8 1294.2 280.1 1294.1Q280.4 1293.9 280.6 1293.8Q280.8 1293.6 280.9 1293.4Q281 1293.1 281 1292.9Q281 1292.4 280.7 1292.1Q280.4 1291.8 279.9 1291.5Q279.4 1291.3 278.7 1291.1Q278 1291 277.4 1290.8Q276.7 1290.6 276 1290.3Q275.4 1290 274.8 1289.7Q274.3 1289.3 274 1288.7Q273.7 1288.2 273.7 1287.4Q273.7 1286.5 274.1 1285.9Q274.4 1285.3 275 1284.9Q275.7 1284.5 276.5 1284.3Q277.4 1284.1 278.4 1284.1Q279.3 1284.1 280.1 1284.3Q281 1284.5 281.6 1284.9Q282.2 1285.4 282.6 1286Q282.9 1286.6 282.9 1287.5V1287.7H280.7V1287.6Q280.7 1287.1 280.5 1286.7Q280.2 1286.4 279.6 1286.2Q279.1 1286 278.4 1286Q277.6 1286 277.1 1286.1Q276.5 1286.3 276.2 1286.6Q275.9 1286.9 275.9 1287.3Q275.9 1287.7 276.2 1288Q276.6 1288.3 277.1 1288.5Q277.6 1288.7 278.2 1288.8Q278.9 1289 279.6 1289.2Q280.3 1289.4 280.9 1289.7Q281.6 1289.9 282.1 1290.3Q282.6 1290.7 282.9 1291.2Q283.2 1291.8 283.2 1292.6Q283.2 1293.9 282.6 1294.7Q282 1295.5 280.8 1295.8Q279.7 1296.2 278.3 1296.2ZM293.4 1296.2Q292.4 1296.2 291.5 1296Q290.6 1295.8 290 1295.3Q289.3 1294.9 288.9 1294.2Q288.5 1293.5 288.5 1292.6Q288.5 1292.5 288.5 1292.4Q288.5 1292.3 288.5 1292.3H290.7Q290.7 1292.3 290.7 1292.4Q290.7 1292.5 290.7 1292.5Q290.7 1293.1 291.1 1293.5Q291.4 1293.9 292 1294.1Q292.6 1294.3 293.4 1294.3Q294 1294.3 294.4 1294.3Q294.9 1294.2 295.2 1294.1Q295.5 1293.9 295.7 1293.8Q295.9 1293.6 296 1293.4Q296.1 1293.1 296.1 1292.9Q296.1 1292.4 295.8 1292.1Q295.5 1291.8 295 1291.5Q294.4 1291.3 293.8 1291.1Q293.1 1291 292.4 1290.8Q291.7 1290.6 291.1 1290.3Q290.4 1290 289.9 1289.7Q289.4 1289.3 289.1 1288.7Q288.8 1288.2 288.8 1287.4Q288.8 1286.5 289.1 1285.9Q289.5 1285.3 290.1 1284.9Q290.8 1284.5 291.6 1284.3Q292.5 1284.1 293.5 1284.1Q294.4 1284.1 295.2 1284.3Q296 1284.5 296.7 1284.9Q297.3 1285.4 297.7 1286Q298 1286.6 298 1287.5V1287.7H295.8V1287.6Q295.8 1287.1 295.5 1286.7Q295.2 1286.4 294.7 1286.2Q294.2 1286 293.4 1286Q292.7 1286 292.1 1286.1Q291.6 1286.3 291.3 1286.6Q291 1286.9 291 1287.3Q291 1287.7 291.3 1288Q291.6 1288.3 292.1 1288.5Q292.7 1288.7 293.3 1288.8Q294 1289 294.7 1289.2Q295.4 1289.4 296 1289.7Q296.7 1289.9 297.2 1290.3Q297.7 1290.7 298 1291.2Q298.3 1291.8 298.3 1292.6Q298.3 1293.9 297.7 1294.7Q297 1295.5 295.9 1295.8Q294.8 1296.2 293.4 1296.2Z"/><path fill="#1F3A5F" d="M717.9 1290.5Q719.1 1290.5 720.2 1290.2Q721.2 1289.8 721.9 1289.2Q722.6 1288.6 723 1287.7Q723.4 1286.7 723.4 1285.5Q723.4 1284.5 723 1283.8Q722.6 1283 721.7 1282.7Q720.8 1282.3 719.4 1282.3H715.1L715.7 1281.1H719.9Q722 1281.1 723.3 1281.7Q724.6 1282.2 725.1 1283.1Q725.7 1284.1 725.7 1285.2Q725.7 1286.7 725.2 1287.9Q724.6 1289 723.5 1289.9Q722.5 1290.7 721 1291.2Q719.5 1291.7 717.6 1291.7H712.4L712.6 1290.5ZM712 1298.9 714 1299.5 713.9 1300H707.4L707.6 1299.5L709.9 1298.8L714.9 1282.2L712.9 1281.6L713.1 1281.1H717.4ZM731.2 1287.5Q732.4 1287.5 733.2 1288Q734 1288.5 734.4 1289.4Q734.8 1290.3 734.8 1291.6Q734.8 1293.3 734.3 1294.8Q733.8 1296.4 732.9 1297.6Q732 1298.8 730.8 1299.6Q729.6 1300.3 728.1 1300.3Q727 1300.3 726.2 1299.8Q725.4 1299.3 725 1298.4Q724.6 1297.5 724.6 1296.2Q724.6 1294.5 725.1 1293Q725.6 1291.4 726.5 1290.2Q727.4 1289 728.6 1288.2Q729.8 1287.5 731.2 1287.5ZM728.2 1299.4Q728.9 1299.4 729.6 1298.9Q730.3 1298.4 730.9 1297.5Q731.5 1296.7 731.9 1295.6Q732.3 1294.5 732.6 1293.3Q732.9 1292.1 732.9 1291Q732.9 1289.7 732.5 1289Q732.1 1288.4 731.2 1288.4Q730.5 1288.4 729.8 1288.9Q729.1 1289.4 728.5 1290.3Q727.9 1291.1 727.5 1292.2Q727 1293.3 726.8 1294.5Q726.5 1295.7 726.5 1296.8Q726.5 1298.1 726.9 1298.8Q727.3 1299.4 728.2 1299.4ZM742.8 1288.4Q742 1288.4 741.3 1288.9Q740.6 1289.4 740.1 1290.3Q739.6 1291.1 739.2 1292.2Q738.9 1293.2 738.7 1294.2Q738.5 1295.2 738.5 1296Q738.5 1297.5 739.1 1298.1Q739.7 1298.7 740.6 1298.7Q741.3 1298.7 741.8 1298.4Q742.4 1298.2 742.9 1297.6Q743.5 1297 744 1296H744.7Q744 1297.6 743.3 1298.6Q742.6 1299.5 741.8 1299.9Q741 1300.3 739.9 1300.3Q738.9 1300.3 738.1 1299.9Q737.3 1299.5 736.9 1298.6Q736.5 1297.8 736.5 1296.6Q736.5 1295.2 736.8 1293.8Q737.2 1292.4 737.8 1291.3Q738.4 1290.2 739.3 1289.3Q740.1 1288.5 741.1 1288Q742.1 1287.5 743.2 1287.5Q744.1 1287.5 744.8 1287.9Q745.4 1288.2 745.7 1288.8Q746 1289.3 746 1289.9Q746 1290.5 745.7 1291.1Q745.5 1291.7 745 1292.1Q744.3 1292.4 743.5 1292.8Q742.7 1293.1 741.8 1293.4Q740.9 1293.7 740.1 1294Q739.2 1294.3 738.3 1294.6L738.4 1293.6Q739.8 1293.2 740.7 1292.9Q741.7 1292.5 742.4 1292.1Q743 1291.7 743.4 1291.3Q743.8 1290.9 743.9 1290.5Q744.1 1290.2 744.1 1289.8Q744.1 1289.3 744 1289.1Q743.8 1288.8 743.5 1288.6Q743.2 1288.4 742.8 1288.4ZM748 1288.9 748.2 1287.8H755.2L755 1288.9ZM749.8 1297Q749.8 1297.2 749.7 1297.4Q749.7 1297.6 749.7 1297.7Q749.7 1297.9 749.7 1298Q749.7 1298.2 749.8 1298.3Q749.8 1298.4 750 1298.4Q750.3 1298.4 750.8 1298.1Q751.3 1297.8 752 1297.1Q752.6 1296.5 753.3 1295.6L753.8 1296Q753.2 1297 752.5 1297.8Q751.9 1298.5 751.3 1299.1Q750.7 1299.7 750.1 1300Q749.6 1300.3 749.1 1300.3Q748.5 1300.3 748.1 1299.9Q747.7 1299.6 747.7 1298.7Q747.7 1298.3 747.8 1297.8Q747.9 1297.3 748.1 1296.7L751.3 1285.3H753.3ZM759.1 1289.4Q759 1289.3 759 1289.3Q758.9 1289.3 758.9 1289.3Q758.4 1289.3 757.9 1289.5Q757.4 1289.7 756.9 1290.3Q756.4 1290.8 755.9 1291.8L755.4 1291.6Q756 1290 756.7 1289.2Q757.4 1288.3 758.2 1287.9Q758.9 1287.5 759.7 1287.5Q760 1287.5 760.3 1287.6Q760.5 1287.6 760.8 1287.7Q761 1287.7 761.3 1287.8L759.8 1292.7H759.7Q760.6 1290.9 761.5 1289.7Q762.3 1288.6 763.1 1288.1Q763.9 1287.5 764.8 1287.5Q765.6 1287.5 766 1287.9Q766.3 1288.3 766.3 1288.9Q766.3 1289.4 766.1 1289.7Q765.9 1290.1 765.5 1290.3Q765.1 1290.5 764.7 1290.5Q764.5 1290.5 764.4 1290.4Q764.3 1290.3 764.1 1290Q763.9 1289.7 763.8 1289.5Q763.6 1289.4 763.4 1289.4Q763.1 1289.4 762.6 1289.7Q762.1 1290.1 761.7 1290.7Q761.2 1291.3 760.7 1292.1Q760.2 1292.9 759.8 1294Q759.3 1295 759 1296.1L757.7 1300H755.8ZM766.6 1292.7H766Q766.3 1291.2 766.6 1290.2Q766.9 1289.2 767.3 1288.6Q767.8 1288 768.3 1287.8Q768.8 1287.5 769.5 1287.5Q769.8 1287.5 770 1287.7Q770.3 1287.8 770.5 1288.2Q770.7 1288.6 770.8 1289.4Q771 1290.1 771.2 1291.6Q771.4 1293 771.7 1295.3Q772 1297.7 772.3 1301L770.5 1302.5Q770.3 1300.2 770.1 1298.4Q769.9 1296.7 769.7 1295.4Q769.6 1294.1 769.5 1293.2Q769.3 1292.3 769.2 1291.6Q769.1 1290.6 768.9 1290.2Q768.8 1289.8 768.7 1289.6Q768.6 1289.5 768.5 1289.5Q768.1 1289.5 767.8 1289.8Q767.5 1290 767.2 1290.7Q766.9 1291.4 766.6 1292.7ZM771.2 1301 771.6 1300.5Q772.8 1298.8 773.5 1297.3Q774.3 1295.9 774.7 1294.4Q775.2 1292.9 775.4 1291.3Q775.6 1289.7 775.6 1287.8Q776 1287.6 776.4 1287.6Q776.7 1287.5 777 1287.5Q777.4 1287.5 777.6 1287.7Q777.8 1287.8 777.8 1288.2Q777.8 1288.9 777.6 1289.8Q777.5 1290.7 777.1 1291.8Q776.7 1292.9 776.2 1294.1Q775.6 1295.4 774.8 1296.9Q774.1 1298.3 773 1300Q771.3 1302.8 769.9 1304.4Q768.5 1306 767.3 1306.7Q766.1 1307.3 764.9 1307.3Q763.9 1307.3 763.4 1306.9Q763 1306.4 763 1305.6Q763 1305.1 763.3 1304.7Q763.6 1304.3 764.1 1304.3Q764.3 1304.3 764.5 1304.4Q764.6 1304.6 765 1305Q765.3 1305.4 765.6 1305.6Q765.9 1305.8 766.2 1305.8Q766.8 1305.8 767.6 1305.2Q768.5 1304.6 769.4 1303.5Q770.3 1302.5 771.2 1301ZM785.2 1299.4 788.9 1289.1 789.3 1289.4Q788.8 1289.4 788.2 1289.6Q787.7 1289.8 787 1290.3Q786.4 1290.8 785.7 1291.5L785.4 1291.1Q786.3 1289.7 787.2 1288.9Q788 1288.1 788.7 1287.8Q789.4 1287.5 790.1 1287.5Q790.6 1287.5 790.9 1287.8Q791.1 1288 791 1288.4L787.3 1299L787 1298.4Q787.5 1298.5 788.1 1298.3Q788.7 1298.2 789.3 1297.7Q790 1297.3 790.7 1296.7L791.1 1297.1Q790.1 1298.3 789.2 1299Q788.4 1299.7 787.7 1300Q787 1300.3 786.3 1300.3Q785.5 1300.3 785.3 1300.1Q785 1299.8 785.2 1299.4ZM789.9 1281.7Q789.9 1281.3 790.1 1280.9Q790.3 1280.6 790.7 1280.4Q791 1280.1 791.5 1280.1Q792.3 1280.1 792.7 1280.6Q793.1 1281.1 793.1 1281.7Q793.1 1282.2 792.9 1282.5Q792.7 1282.9 792.4 1283.1Q792 1283.3 791.5 1283.3Q790.8 1283.3 790.4 1282.9Q789.9 1282.4 789.9 1281.7ZM793.1 1291.8 792.6 1291.6Q793.2 1290 793.9 1289.2Q794.6 1288.3 795.4 1287.9Q796.2 1287.5 796.9 1287.5Q797.2 1287.5 797.5 1287.6Q797.7 1287.6 798 1287.7Q798.3 1287.7 798.5 1287.8L796.8 1293.3H796.7Q797.4 1292.1 798.1 1291.1Q798.9 1290 799.7 1289.2Q800.4 1288.5 801.3 1288Q802.1 1287.6 802.9 1287.6Q804.1 1287.6 804.6 1288.1Q805 1288.6 805 1289.4Q805 1289.8 804.9 1290.4Q804.7 1290.9 804.5 1291.6L801.6 1299V1298.5Q802.1 1298.5 802.6 1298.3Q803.2 1298.1 803.8 1297.7Q804.5 1297.3 805.1 1296.7L805.5 1297.1Q804.5 1298.3 803.6 1299Q802.8 1299.7 802.1 1300Q801.4 1300.3 800.7 1300.3Q799.8 1300.3 799.6 1300Q799.4 1299.7 799.7 1299L802.7 1291.2Q802.8 1290.9 802.9 1290.6Q803 1290.3 803 1290Q803 1289.7 802.8 1289.5Q802.5 1289.2 801.9 1289.2Q801.3 1289.2 800.4 1289.8Q799.6 1290.4 798.8 1291.4Q797.9 1292.4 797.2 1293.6Q796.6 1294.9 796.1 1296.3L795 1300H793L796.3 1289.4Q796.3 1289.3 796.2 1289.3Q796.2 1289.3 796.1 1289.3Q795.6 1289.3 795.1 1289.5Q794.6 1289.7 794.1 1290.3Q793.6 1290.8 793.1 1291.8ZM814.3 1288.9 814.6 1287.8H821.6L821.3 1288.9ZM816.2 1297Q816.2 1297.2 816.1 1297.4Q816.1 1297.6 816 1297.7Q816 1297.9 816 1298Q816 1298.2 816.1 1298.3Q816.2 1298.4 816.4 1298.4Q816.7 1298.4 817.2 1298.1Q817.7 1297.8 818.4 1297.1Q819 1296.5 819.7 1295.6L820.2 1296Q819.5 1297 818.9 1297.8Q818.3 1298.5 817.7 1299.1Q817.1 1299.7 816.5 1300Q816 1300.3 815.5 1300.3Q814.9 1300.3 814.5 1299.9Q814.1 1299.6 814.1 1298.7Q814.1 1298.3 814.2 1297.8Q814.3 1297.3 814.5 1296.7L817.7 1285.3H819.6ZM825.4 1289.4Q825.4 1289.3 825.4 1289.3Q825.3 1289.3 825.2 1289.3Q824.8 1289.3 824.3 1289.5Q823.8 1289.7 823.3 1290.3Q822.8 1290.8 822.2 1291.8L821.8 1291.6Q822.4 1290 823.1 1289.2Q823.8 1288.3 824.6 1287.9Q825.3 1287.5 826.1 1287.5Q826.4 1287.5 826.6 1287.6Q826.9 1287.6 827.1 1287.7Q827.4 1287.7 827.7 1287.8L826.2 1292.7H826.1Q827 1290.9 827.8 1289.7Q828.7 1288.6 829.5 1288.1Q830.3 1287.5 831.1 1287.5Q832 1287.5 832.3 1287.9Q832.7 1288.3 832.7 1288.9Q832.7 1289.4 832.5 1289.7Q832.2 1290.1 831.9 1290.3Q831.5 1290.5 831 1290.5Q830.9 1290.5 830.8 1290.4Q830.6 1290.3 830.5 1290Q830.3 1289.7 830.2 1289.5Q830 1289.4 829.8 1289.4Q829.4 1289.4 829 1289.7Q828.5 1290.1 828 1290.7Q827.5 1291.3 827.1 1292.1Q826.6 1292.9 826.1 1294Q825.7 1295 825.3 1296.1L824.1 1300H822.2ZM838.1 1299.3 839.6 1294.8H839.9Q838.8 1296.3 838 1297.4Q837.1 1298.5 836.4 1299.1Q835.7 1299.7 835.1 1300Q834.5 1300.2 834 1300.2Q833.2 1300.2 832.7 1300Q832.1 1299.7 831.8 1299.1Q831.5 1298.5 831.5 1297.5Q831.5 1296.4 831.9 1295.1Q832.3 1293.8 833.1 1292.5Q833.8 1291.2 834.8 1290.1Q835.8 1289 837 1288.4Q838.1 1287.7 839.4 1287.7Q840.2 1287.7 840.7 1288Q841.3 1288.3 841.7 1289L841.2 1289.7Q841.1 1289.3 840.7 1289Q840.3 1288.7 839.7 1288.7Q838.7 1288.7 837.8 1289.4Q836.9 1290 836.1 1291Q835.4 1292.1 834.8 1293.2Q834.2 1294.4 833.9 1295.5Q833.6 1296.6 833.6 1297.3Q833.6 1297.9 834 1298.2Q834.3 1298.5 834.8 1298.5Q835.3 1298.5 836 1298.2Q836.7 1297.8 837.4 1297.1Q838.2 1296.4 838.9 1295.4Q839.5 1294.4 840 1293.3L841.7 1288L843.2 1287.8H843.7L840.1 1299L839.8 1298.5Q840.3 1298.5 840.9 1298.3Q841.5 1298.2 842.1 1297.7Q842.8 1297.3 843.5 1296.7L843.8 1297.1Q842.3 1298.9 841.2 1299.6Q840 1300.3 839.1 1300.3Q838.5 1300.3 838.2 1300Q838 1299.8 838.1 1299.3ZM845.6 1291.8 845.1 1291.6Q845.7 1290 846.4 1289.2Q847.1 1288.3 847.9 1287.9Q848.6 1287.5 849.4 1287.5Q849.7 1287.5 850 1287.6Q850.2 1287.6 850.5 1287.7Q850.7 1287.7 851 1287.8L849.3 1293.3H849.2Q849.9 1292.1 850.6 1291.1Q851.3 1290 852.1 1289.2Q852.9 1288.5 853.7 1288Q854.6 1287.6 855.4 1287.6Q856.6 1287.6 857 1288.1Q857.5 1288.6 857.5 1289.4Q857.5 1289.8 857.3 1290.4Q857.2 1290.9 856.9 1291.6L854.1 1299V1298.5Q854.5 1298.5 855.1 1298.3Q855.7 1298.1 856.3 1297.7Q857 1297.3 857.6 1296.7L858 1297.1Q857 1298.3 856.1 1299Q855.3 1299.7 854.5 1300Q853.8 1300.3 853.2 1300.3Q852.3 1300.3 852.1 1300Q851.9 1299.7 852.2 1299L855.2 1291.2Q855.3 1290.9 855.4 1290.6Q855.5 1290.3 855.5 1290Q855.5 1289.7 855.2 1289.5Q855 1289.2 854.4 1289.2Q853.7 1289.2 852.9 1289.8Q852.1 1290.4 851.2 1291.4Q850.4 1292.4 849.7 1293.6Q849 1294.9 848.6 1296.3L847.4 1300H845.5L848.8 1289.4Q848.7 1289.3 848.7 1289.3Q848.6 1289.3 848.6 1289.3Q848.1 1289.3 847.6 1289.5Q847.1 1289.7 846.6 1290.3Q846.1 1290.8 845.6 1291.8ZM860 1297.1Q860.2 1297.2 860.3 1297.5Q860.5 1297.8 860.9 1298.3Q861.3 1298.9 861.6 1299.2Q862 1299.4 862.4 1299.4Q863 1299.4 863.4 1299.2Q863.9 1299 864.2 1298.5Q864.4 1298.1 864.4 1297.5Q864.4 1297.1 864.3 1296.7Q864.2 1296.3 863.8 1295.7Q863.5 1295.2 862.8 1294.5Q862.2 1293.7 861.8 1293.1Q861.5 1292.5 861.3 1292Q861.2 1291.5 861.2 1291.1Q861.2 1290.1 861.6 1289.3Q862.1 1288.5 863 1288Q863.9 1287.5 865.1 1287.5Q866 1287.5 866.6 1287.8Q867.2 1288 867.5 1288.4Q867.8 1288.8 867.8 1289.3Q867.8 1289.7 867.6 1289.9Q867.5 1290.2 867.2 1290.3Q866.9 1290.5 866.5 1290.5Q866.4 1290.4 866.2 1290.2Q866 1290 865.7 1289.5Q865.3 1289 865 1288.7Q864.6 1288.5 864.2 1288.5Q863.5 1288.5 863 1288.9Q862.6 1289.3 862.6 1290.1Q862.6 1290.4 862.8 1290.8Q862.9 1291.2 863.3 1291.7Q863.6 1292.3 864.2 1293Q864.8 1293.8 865.2 1294.4Q865.6 1295 865.7 1295.6Q865.9 1296.1 865.9 1296.6Q865.9 1297.6 865.3 1298.5Q864.8 1299.3 863.8 1299.8Q862.8 1300.3 861.6 1300.3Q860.6 1300.3 859.9 1300Q859.3 1299.7 859 1299.3Q858.7 1298.8 858.7 1298.3Q858.7 1298 858.8 1297.7Q859 1297.5 859.3 1297.3Q859.6 1297.1 860 1297.1ZM873.4 1282.2Q873.2 1282 872.9 1281.8Q872.7 1281.6 872.4 1281.4Q872.1 1281.2 871.7 1281.1L871.8 1280.8L875.7 1280H876L870.3 1298.9L870.1 1298.4Q870.5 1298.5 871.1 1298.3Q871.7 1298.2 872.4 1297.7Q873.1 1297.3 873.8 1296.7L874.1 1297.1Q873.1 1298.3 872.3 1299Q871.4 1299.7 870.7 1300Q870 1300.3 869.4 1300.3Q868.7 1300.3 868.4 1300.1Q868.1 1299.9 868.2 1299.4ZM881.6 1299.3 883.1 1294.8H883.4Q882.3 1296.3 881.5 1297.4Q880.6 1298.5 879.9 1299.1Q879.2 1299.7 878.6 1300Q878 1300.2 877.5 1300.2Q876.7 1300.2 876.2 1300Q875.6 1299.7 875.3 1299.1Q875 1298.5 875 1297.5Q875 1296.4 875.4 1295.1Q875.8 1293.8 876.6 1292.5Q877.3 1291.2 878.3 1290.1Q879.3 1289 880.5 1288.4Q881.6 1287.7 882.9 1287.7Q883.7 1287.7 884.2 1288Q884.8 1288.3 885.2 1289L884.7 1289.7Q884.6 1289.3 884.2 1289Q883.8 1288.7 883.2 1288.7Q882.2 1288.7 881.3 1289.4Q880.4 1290 879.6 1291Q878.8 1292.1 878.3 1293.2Q877.7 1294.4 877.4 1295.5Q877.1 1296.6 877.1 1297.3Q877.1 1297.9 877.4 1298.2Q877.8 1298.5 878.3 1298.5Q878.8 1298.5 879.5 1298.2Q880.1 1297.8 880.9 1297.1Q881.7 1296.4 882.3 1295.4Q883 1294.4 883.5 1293.3L885.2 1288L886.7 1287.8H887.2L883.5 1299L883.3 1298.5Q883.8 1298.5 884.4 1298.3Q885 1298.2 885.6 1297.7Q886.3 1297.3 887 1296.7L887.3 1297.1Q885.8 1298.9 884.7 1299.6Q883.5 1300.3 882.6 1300.3Q882 1300.3 881.7 1300Q881.4 1299.8 881.6 1299.3ZM889.4 1288.9 889.7 1287.8H896.7L896.4 1288.9ZM891.3 1297Q891.3 1297.2 891.2 1297.4Q891.2 1297.6 891.1 1297.7Q891.1 1297.9 891.1 1298Q891.1 1298.2 891.2 1298.3Q891.3 1298.4 891.5 1298.4Q891.8 1298.4 892.3 1298.1Q892.8 1297.8 893.5 1297.1Q894.1 1296.5 894.8 1295.6L895.3 1296Q894.6 1297 894 1297.8Q893.4 1298.5 892.8 1299.1Q892.2 1299.7 891.6 1300Q891.1 1300.3 890.5 1300.3Q889.9 1300.3 889.6 1299.9Q889.2 1299.6 889.2 1298.7Q889.2 1298.3 889.3 1297.8Q889.4 1297.3 889.6 1296.7L892.8 1285.3H894.7ZM897 1299.4 900.7 1289.1 901.1 1289.4Q900.7 1289.4 900.1 1289.6Q899.5 1289.8 898.8 1290.3Q898.2 1290.8 897.6 1291.5L897.2 1291.1Q898.2 1289.7 899 1288.9Q899.8 1288.1 900.5 1287.8Q901.2 1287.5 901.9 1287.5Q902.5 1287.5 902.7 1287.8Q903 1288 902.8 1288.4L899.1 1299L898.9 1298.4Q899.3 1298.5 899.9 1298.3Q900.5 1298.2 901.2 1297.7Q901.8 1297.3 902.5 1296.7L902.9 1297.1Q901.9 1298.3 901.1 1299Q900.2 1299.7 899.5 1300Q898.8 1300.3 898.2 1300.3Q897.4 1300.3 897.1 1300.1Q896.8 1299.8 897 1299.4ZM901.7 1281.7Q901.7 1281.3 901.9 1280.9Q902.1 1280.6 902.5 1280.4Q902.9 1280.1 903.3 1280.1Q904.1 1280.1 904.5 1280.6Q905 1281.1 905 1281.7Q905 1282.2 904.8 1282.5Q904.5 1282.9 904.2 1283.1Q903.8 1283.3 903.3 1283.3Q902.6 1283.3 902.2 1282.9Q901.7 1282.4 901.7 1281.7ZM911.2 1287.5Q912.3 1287.5 913.1 1288Q913.9 1288.5 914.3 1289.4Q914.8 1290.3 914.8 1291.6Q914.8 1293.3 914.3 1294.8Q913.7 1296.4 912.8 1297.6Q911.9 1298.8 910.7 1299.6Q909.5 1300.3 908.1 1300.3Q907 1300.3 906.2 1299.8Q905.3 1299.3 904.9 1298.4Q904.5 1297.5 904.5 1296.2Q904.5 1294.5 905 1293Q905.5 1291.4 906.4 1290.2Q907.3 1289 908.5 1288.2Q909.8 1287.5 911.2 1287.5ZM908.1 1299.4Q908.8 1299.4 909.5 1298.9Q910.2 1298.4 910.8 1297.5Q911.4 1296.7 911.8 1295.6Q912.3 1294.5 912.5 1293.3Q912.8 1292.1 912.8 1291Q912.8 1289.7 912.4 1289Q912 1288.4 911.1 1288.4Q910.4 1288.4 909.7 1288.9Q909 1289.4 908.5 1290.3Q907.9 1291.1 907.4 1292.2Q907 1293.3 906.7 1294.5Q906.5 1295.7 906.5 1296.8Q906.5 1298.1 906.9 1298.8Q907.2 1299.4 908.1 1299.4ZM916.9 1291.8 916.4 1291.6Q917 1290 917.7 1289.2Q918.4 1288.3 919.2 1287.9Q920 1287.5 920.7 1287.5Q921 1287.5 921.3 1287.6Q921.5 1287.6 921.8 1287.7Q922.1 1287.7 922.3 1287.8L920.6 1293.3H920.5Q921.2 1292.1 921.9 1291.1Q922.7 1290 923.5 1289.2Q924.2 1288.5 925.1 1288Q925.9 1287.6 926.7 1287.6Q927.9 1287.6 928.4 1288.1Q928.8 1288.6 928.8 1289.4Q928.8 1289.8 928.7 1290.4Q928.5 1290.9 928.3 1291.6L925.4 1299V1298.5Q925.9 1298.5 926.4 1298.3Q927 1298.1 927.6 1297.7Q928.3 1297.3 928.9 1296.7L929.3 1297.1Q928.3 1298.3 927.4 1299Q926.6 1299.7 925.9 1300Q925.2 1300.3 924.5 1300.3Q923.6 1300.3 923.4 1300Q923.2 1299.7 923.5 1299L926.5 1291.2Q926.6 1290.9 926.7 1290.6Q926.8 1290.3 926.8 1290Q926.8 1289.7 926.6 1289.5Q926.3 1289.2 925.7 1289.2Q925.1 1289.2 924.2 1289.8Q923.4 1290.4 922.6 1291.4Q921.7 1292.4 921 1293.6Q920.4 1294.9 919.9 1296.3L918.8 1300H916.8L920.1 1289.4Q920.1 1289.3 920 1289.3Q920 1289.3 919.9 1289.3Q919.4 1289.3 918.9 1289.5Q918.5 1289.7 917.9 1290.3Q917.4 1290.8 916.9 1291.8Z"/><rect width="1000" height="1400" filter="url(#grain)" opacity="0.2"/></svg>