<svg xmlns="http://www.w3.org/2000/svg" width="1000" height="1400" viewBox="0 0 1000 1400"><defs><filter id="grain" x="0" y="0" width="100%" height="100%"><feTurbulence type="fractalNoise" baseFrequency="0.85" numOctaves="2" seed="7" stitchTiles="stitch"/><feColorMatrix values="0 0 0 0 0.11 0 0 0 0 0.10 0 0 0 0 0.09 3.4 0 0 0 -1.62"/></filter></defs><rect width="1000" height="1400" fill="#1F3A5F"/><rect x="0" y="0" width="1000" height="120" fill="#13233A"/><path fill="#F3EDE0" d="M78 69.3Q76.6 69.3 75.4 69Q74.1 68.7 73.1 68.1Q72.2 67.4 71.6 66.5Q71.1 65.5 71.1 64.2Q71.1 64.1 71.1 63.9Q71.1 63.8 71.1 63.7H74.2Q74.2 63.8 74.2 63.9Q74.2 64 74.2 64.1Q74.2 64.9 74.7 65.5Q75.1 66 76 66.3Q76.9 66.6 78 66.6Q78.8 66.6 79.4 66.6Q80.1 66.5 80.5 66.3Q80.9 66.1 81.2 65.8Q81.5 65.6 81.7 65.3Q81.8 65 81.8 64.6Q81.8 63.9 81.4 63.5Q80.9 63 80.2 62.7Q79.5 62.4 78.5 62.1Q77.6 61.9 76.6 61.6Q75.7 61.3 74.7 61Q73.8 60.6 73.1 60.1Q72.4 59.5 71.9 58.7Q71.5 57.9 71.5 56.8Q71.5 55.7 72 54.8Q72.5 53.9 73.4 53.4Q74.3 52.8 75.5 52.5Q76.7 52.2 78.1 52.2Q79.4 52.2 80.6 52.5Q81.7 52.8 82.6 53.4Q83.5 54 84 54.9Q84.5 55.8 84.5 57V57.3H81.4V57.1Q81.4 56.4 81 55.9Q80.6 55.4 79.8 55.2Q79.1 54.9 78.1 54.9Q77 54.9 76.2 55.1Q75.4 55.3 75 55.7Q74.6 56.1 74.6 56.7Q74.6 57.3 75.1 57.7Q75.5 58.1 76.2 58.4Q77 58.7 77.9 58.9Q78.8 59.1 79.8 59.4Q80.8 59.7 81.7 60Q82.6 60.4 83.3 60.9Q84.1 61.5 84.5 62.3Q84.9 63.1 84.9 64.2Q84.9 66 84 67.2Q83.1 68.3 81.6 68.8Q80 69.3 78 69.3ZM93.6 69V52.5H96.7V59.2H104.4V52.5H107.5V69H104.4V61.9H96.7V69ZM116.9 69V52.5H120V69ZM137 69.3Q134.4 69.3 132.6 68.4Q130.7 67.4 129.7 65.5Q128.7 63.6 128.7 60.8Q128.7 57.9 129.7 56Q130.7 54.1 132.6 53.2Q134.4 52.2 137 52.2Q139.6 52.2 141.5 53.2Q143.3 54.1 144.3 56Q145.3 57.9 145.3 60.8Q145.3 63.6 144.3 65.5Q143.3 67.4 141.5 68.4Q139.6 69.3 137 69.3ZM137 66.6Q138.3 66.6 139.2 66.3Q140.2 65.9 140.8 65.2Q141.4 64.5 141.8 63.5Q142.1 62.4 142.1 61.1V60.5Q142.1 59.1 141.8 58.1Q141.4 57 140.8 56.3Q140.2 55.6 139.2 55.2Q138.3 54.9 137 54.9Q135.8 54.9 134.8 55.2Q133.9 55.6 133.2 56.3Q132.6 57 132.2 58.1Q131.9 59.1 131.9 60.5V61.1Q131.9 62.4 132.2 63.5Q132.6 64.5 133.2 65.2Q133.9 65.9 134.8 66.3Q135.8 66.6 137 66.6ZM154 69V52.5H162.6Q164.5 52.5 165.7 53.2Q166.9 53.8 167.5 54.9Q168.1 56.1 168.1 57.6Q168.1 59.3 167.3 60.5Q166.6 61.7 165.2 62.4L168.6 69H165.2L162.2 62.9H157.1V69ZM157.1 60.3H162.4Q163.6 60.3 164.2 59.6Q164.9 58.9 164.9 57.6Q164.9 56.9 164.6 56.3Q164.3 55.8 163.8 55.5Q163.2 55.2 162.4 55.2H157.1ZM176.9 69V52.5H180.1V69ZM200 69V52.5H209Q210.3 52.5 211.4 53Q212.4 53.5 213 54.5Q213.6 55.4 213.6 56.6Q213.6 57.5 213.3 58.3Q212.9 59.1 212.3 59.6Q211.7 60.1 210.9 60.4V60.5Q211.8 60.6 212.5 61.2Q213.3 61.7 213.7 62.6Q214.1 63.4 214.1 64.5Q214.1 66 213.4 67Q212.7 68 211.6 68.5Q210.4 69 209 69ZM203.2 66.3H208.6Q209.6 66.3 210.2 65.8Q210.9 65.3 210.9 64.1Q210.9 63.4 210.6 62.9Q210.3 62.4 209.8 62.1Q209.2 61.9 208.4 61.9H203.2ZM203.2 59.3H208.2Q208.9 59.3 209.4 59Q209.9 58.7 210.1 58.3Q210.4 57.8 210.4 57.3Q210.4 56.2 209.8 55.7Q209.3 55.2 208.4 55.2H203.2ZM229.6 69.3Q227.4 69.3 225.9 68.6Q224.3 67.9 223.5 66.5Q222.6 65 222.6 62.9V52.5H225.8V62.8Q225.8 64.7 226.8 65.7Q227.8 66.6 229.6 66.6Q231.4 66.6 232.4 65.7Q233.4 64.7 233.4 62.8V52.5H236.6V62.9Q236.6 65 235.7 66.5Q234.9 67.9 233.3 68.6Q231.8 69.3 229.6 69.3ZM245.9 69V52.5H248.8L255.9 62.3Q256 62.4 256.2 62.7Q256.3 62.9 256.5 63.1Q256.6 63.4 256.7 63.5H256.8Q256.8 63.2 256.8 62.9Q256.8 62.6 256.8 62.3V52.5H259.8V69H256.8L249.8 59.2Q249.6 58.9 249.3 58.5Q249.1 58.1 249 57.9H248.9Q248.9 58.2 248.9 58.5Q248.9 58.9 248.9 59.2V69ZM269.2 69V52.5H272.3V60.2L279.6 52.5H283.4L277 59.2L283.6 69H279.9L274.9 61.4L272.3 63.7V69ZM297.9 69.3Q295.3 69.3 293.4 68.4Q291.6 67.4 290.6 65.5Q289.6 63.6 289.6 60.8Q289.6 57.9 290.6 56Q291.6 54.1 293.4 53.2Q295.3 52.2 297.9 52.2Q300.5 52.2 302.3 53.2Q304.2 54.1 305.2 56Q306.2 57.9 306.2 60.8Q306.2 63.6 305.2 65.5Q304.2 67.4 302.3 68.4Q300.5 69.3 297.9 69.3ZM297.9 66.6Q299.1 66.6 300.1 66.3Q301 65.9 301.7 65.2Q302.3 64.5 302.7 63.5Q303 62.4 303 61.1V60.5Q303 59.1 302.7 58.1Q302.3 57 301.7 56.3Q301 55.6 300.1 55.2Q299.1 54.9 297.9 54.9Q296.6 54.9 295.7 55.2Q294.7 55.6 294.1 56.3Q293.4 57 293.1 58.1Q292.8 59.1 292.8 60.5V61.1Q292.8 62.4 293.1 63.5Q293.4 64.5 294.1 65.2Q294.7 65.9 295.7 66.3Q296.6 66.6 297.9 66.6Z"/><path fill="#F3EDE0" d="M813.8 70V50.4H816.7L824.9 64.8V50.4H827.8V70H824.9L816.7 55.6V70ZM837.6 70.3Q835.6 70.3 834 69.4Q832.5 68.5 831.6 66.9Q830.7 65.3 830.7 63.1Q830.7 60.8 831.6 59.2Q832.5 57.6 834 56.7Q835.6 55.8 837.6 55.8Q839.6 55.8 841.2 56.7Q842.8 57.6 843.6 59.2Q844.5 60.8 844.5 63.1Q844.5 65.3 843.6 66.9Q842.7 68.5 841.2 69.4Q839.6 70.3 837.6 70.3ZM837.6 67.5Q838.7 67.5 839.6 67Q840.5 66.6 841 65.6Q841.5 64.6 841.5 63.1Q841.5 61.5 841 60.5Q840.5 59.6 839.6 59.1Q838.7 58.6 837.6 58.6Q836.6 58.6 835.7 59.1Q834.8 59.6 834.2 60.5Q833.7 61.5 833.7 63.1Q833.7 65.4 834.8 66.4Q836 67.5 837.6 67.5ZM854.4 70.2Q853.4 70.2 852.6 69.5Q851.9 68.8 851.9 67.8Q851.9 66.8 852.6 66.2Q853.4 65.5 854.4 65.5Q855.5 65.5 856.2 66.2Q856.9 66.8 856.9 67.8Q856.9 68.8 856.2 69.5Q855.5 70.2 854.4 70.2ZM888 70.3Q885.7 70.3 884 69.1Q882.3 67.9 881.4 65.6Q880.5 63.3 880.5 60.2Q880.5 57.1 881.4 54.8Q882.3 52.5 884 51.3Q885.7 50.1 888 50.1Q890.3 50.1 892 51.3Q893.7 52.5 894.6 54.8Q895.5 57.1 895.5 60.2Q895.5 63.3 894.6 65.6Q893.7 67.9 892 69.1Q890.3 70.3 888 70.3ZM883.5 60.2Q883.5 61.8 883.8 63.1Q884.1 64.3 884.6 65.3L889.5 53.2Q888.8 52.8 888 52.8Q886 52.8 884.8 54.8Q883.5 56.8 883.5 60.2ZM888 67.6Q889.3 67.6 890.3 66.7Q891.3 65.8 891.9 64.1Q892.5 62.5 892.5 60.2Q892.5 58.6 892.2 57.3Q891.9 56.1 891.4 55.1L886.5 67.3Q887.2 67.6 888 67.6ZM898.2 70V67.3H903.1V53.9L898.5 54.7V52.3L904.2 50.4H906.1V67.3H911.3V70ZM923.8 70V65.8H914.5V63.4L923.2 50.4H926.7V63.1H929.3V65.8H926.7V70ZM917.8 63.1H923.9V53.7Z"/><rect x="80" y="170" width="840" height="590" fill="#F3EDE0"/><rect x="94" y="184" width="812" height="562" fill="none" stroke="#1F3A5F" stroke-width="4"/><rect x="103" y="193" width="794" height="544" fill="none" stroke="#1F3A5F" stroke-width="1.2"/><path fill="#1F3A5F" d="M440.2 252V236.6H450V238.7H442.5V243.2H449.3V245.2H442.5V249.9H450V252ZM467.2 252.3Q465.5 252.3 464.3 251.7Q463.1 251.1 462.4 250Q461.7 248.9 461.7 247.4H464.1Q464.2 248.5 464.9 249.3Q465.7 250.2 467.1 250.2Q468.4 250.2 469.2 249.6Q469.9 249 469.9 248Q469.9 247.2 469.5 246.6Q469 246.1 468.1 245.7Q467.2 245.2 465.8 244.8Q463.9 244.2 463 243.1Q462.1 242 462.1 240.4Q462.1 238.6 463.4 237.5Q464.7 236.3 467 236.3Q469.3 236.3 470.6 237.5Q472 238.6 472 240.7H469.6Q469.6 240.1 469.2 239.6Q468.9 239.1 468.4 238.8Q467.8 238.4 467 238.4Q465.9 238.4 465.2 238.9Q464.5 239.4 464.5 240.3Q464.5 241.4 465.4 242Q466.2 242.6 468.2 243.2Q469.4 243.6 470.3 244.2Q471.2 244.8 471.8 245.6Q472.3 246.5 472.3 247.8Q472.3 249.1 471.7 250.1Q471.1 251.1 469.9 251.7Q468.8 252.3 467.2 252.3ZM489.2 252.3Q487.5 252.3 486.3 251.7Q485.1 251.1 484.4 250Q483.7 248.9 483.7 247.4H486.1Q486.2 248.5 486.9 249.3Q487.7 250.2 489.1 250.2Q490.4 250.2 491.2 249.6Q491.9 249 491.9 248Q491.9 247.2 491.5 246.6Q491 246.1 490.1 245.7Q489.2 245.2 487.8 244.8Q485.9 244.2 485 243.1Q484.1 242 484.1 240.4Q484.1 238.6 485.4 237.5Q486.7 236.3 489 236.3Q491.3 236.3 492.6 237.5Q494 238.6 494 240.7H491.6Q491.6 240.1 491.2 239.6Q490.9 239.1 490.4 238.8Q489.8 238.4 489 238.4Q487.9 238.4 487.2 238.9Q486.5 239.4 486.5 240.3Q486.5 241.4 487.4 242Q488.2 242.6 490.2 243.2Q491.4 243.6 492.3 244.2Q493.2 244.8 493.8 245.6Q494.3 246.5 494.3 247.8Q494.3 249.1 493.7 250.1Q493.1 251.1 491.9 251.7Q490.8 252.3 489.2 252.3ZM505 252 509.6 236.6H512.4L517 252H514.5L513.4 248.3H508.6L507.5 252ZM510.9 239.9 509.1 246.4H512.9L511.1 239.9ZM531.8 252V246.1L526.8 236.6H529.4L533 243.7L536.6 236.6H539.2L534.2 246.1V252ZM555.2 252.3Q553.5 252.3 552.3 251.7Q551.1 251.1 550.4 250Q549.7 248.9 549.7 247.4H552.1Q552.2 248.5 552.9 249.3Q553.7 250.2 555.1 250.2Q556.4 250.2 557.2 249.6Q557.9 249 557.9 248Q557.9 247.2 557.5 246.6Q557 246.1 556.1 245.7Q555.2 245.2 553.8 244.8Q551.9 244.2 551 243.1Q550.1 242 550.1 240.4Q550.1 238.6 551.4 237.5Q552.7 236.3 555 236.3Q557.3 236.3 558.6 237.5Q560 238.6 560 240.7H557.6Q557.6 240.1 557.2 239.6Q556.9 239.1 556.4 238.8Q555.8 238.4 555 238.4Q553.9 238.4 553.2 238.9Q552.5 239.4 552.5 240.3Q552.5 241.4 553.4 242Q554.2 242.6 556.2 243.2Q557.4 243.6 558.3 244.2Q559.2 244.8 559.8 245.6Q560.3 246.5 560.3 247.8Q560.3 249.1 559.7 250.1Q559.1 251.1 557.9 251.7Q556.8 252.3 555.2 252.3Z"/><line x1="440" y1="272" x2="560" y2="272" stroke="#1F3A5F" stroke-width="2"/><path fill="#1F3A5F" d="M192 385 210 300H236L254 385H234L231 369H214L212 385ZM217 353H229L225 331Q225 330 225 328Q225 326 225 324Q224 322 224 320Q224 318 223 317H223Q222 319 222 321Q222 324 221 326Q221 329 221 331ZM274 385V300H317V316H293V336H312V353H293V385ZM323 385V300H342V385ZM353 385V300H401V316H372V334H396V350H372V369H401V385ZM410 385V300H429V369H454V385ZM461 385V300H487Q497 300 503 304Q508 309 511 318Q513 327 513 342Q513 357 511 366Q508 376 502 380Q496 385 486 385ZM479 369H485Q487 369 489 368Q491 367 492 365Q493 362 494 359Q494 355 494 349V337Q494 331 494 327Q493 323 492 321Q491 318 489 317Q487 316 485 316H479ZM564 386Q550 386 543 376Q536 365 536 342Q536 327 539 317Q542 308 549 303Q556 298 566 298Q573 298 578 300Q583 302 586 306Q590 310 591 316Q593 322 593 330H575Q575 327 575 324Q574 321 573 319Q572 317 570 316Q568 314 565 314Q562 314 560 316Q558 317 557 320Q556 322 555 326Q555 330 555 335V350Q555 357 556 361Q557 366 559 368Q561 370 566 370Q570 370 572 368Q574 366 575 363Q575 359 575 354V353H564V338H593V385H583L582 377Q580 380 578 382Q575 384 572 385Q568 386 564 386ZM628 386Q621 386 615 384Q609 381 606 375Q603 368 603 357V300H622V358Q622 364 623 367Q624 370 628 370Q632 370 634 367Q635 364 635 358V300H654V357Q654 368 651 375Q648 381 642 384Q636 386 628 386ZM665 385V300H684V385ZM695 385V300H721Q731 300 737 304Q743 309 745 318Q748 327 748 342Q748 357 745 366Q743 376 737 380Q731 385 720 385ZM714 369H719Q722 369 724 368Q725 367 726 365Q727 362 728 359Q728 355 728 349V337Q728 331 728 327Q727 323 726 321Q725 318 724 317Q722 316 719 316H714ZM757 385V300H804V316H776V334H800V350H776V369H805V385Z"/><path fill="#1F3A5F" d="M296 499V430H279V414H332V430H315V499ZM363 500Q353 500 346 496Q340 491 337 482Q333 472 333 456Q333 441 337 431Q340 421 346 417Q353 412 363 412Q373 412 380 417Q386 421 389 431Q393 441 393 456Q393 472 389 482Q386 491 380 496Q373 500 363 500ZM363 484Q366 484 368 483Q370 482 371 479Q372 476 373 472Q373 468 373 464V449Q373 444 373 440Q372 437 371 434Q370 431 368 430Q366 428 363 428Q360 428 358 430Q356 431 355 434Q353 437 353 440Q352 444 352 449V464Q352 468 353 472Q353 476 355 479Q356 482 358 483Q360 484 363 484ZM417 499V414H464V430H436V448H459V464H436V483H464V499ZM473 499V414H499L506 452Q507 454 507 457Q508 460 508 463Q509 467 509 469H510Q510 467 511 464Q511 461 512 458Q512 455 513 452L519 414H545V499H527V462Q527 457 528 453Q528 449 528 446Q528 443 528 442H527Q527 443 527 445Q526 447 526 449Q526 451 525 452L516 499H502L493 452Q493 451 492 449Q492 447 492 445Q491 443 491 442H490Q490 444 490 447Q491 451 491 455Q491 458 491 462V499ZM557 499V414H586Q594 414 599 417Q604 421 606 427Q609 433 609 441Q609 450 606 456Q604 463 599 467Q594 470 586 470H576V499ZM576 455H582Q586 455 588 451Q590 448 590 442Q590 438 589 435Q588 432 586 431Q585 430 582 430H576ZM627 499V430H609V414H663V430H646V499ZM684 499V466L663 414H683L693 445H694L704 414H723L702 466V499Z"/><path fill="#1F3A5F" d="M312 614Q307 614 302 613Q298 612 294 609Q290 606 288 601Q286 596 286 588Q286 588 286 587Q286 586 287 586H305Q305 586 305 587Q305 588 305 588Q305 592 305 594Q306 597 308 598Q309 598 312 598Q313 598 314 598Q315 598 316 597Q317 596 317 595Q318 594 318 593Q318 591 318 589Q318 587 317 585Q316 583 313 581Q311 580 309 579Q306 577 303 576Q300 574 297 573Q295 571 292 568Q290 565 289 561Q288 557 288 552Q288 545 290 540Q292 535 295 532Q298 529 303 528Q307 526 312 526Q317 526 322 527Q326 529 329 531Q332 534 334 539Q336 543 336 550V553H318V551Q318 548 318 546Q317 544 316 543Q315 542 312 542Q311 542 309 543Q308 544 307 546Q307 547 307 550Q307 553 308 555Q309 557 312 558Q314 560 316 561Q319 562 322 564Q325 565 328 567Q330 569 333 572Q335 574 336 578Q337 582 337 587Q337 597 334 603Q331 609 326 612Q320 614 312 614ZM359 613V544H341V528H395V544H378V613ZM389 613 407 528H433L451 613H431L428 597H411L408 613ZM413 581H426L422 559Q422 558 422 556Q421 554 421 552Q421 550 420 548Q420 546 420 545H419Q419 547 418 549Q418 552 418 554Q417 557 417 559ZM462 613V544H445V528H498V544H481V613ZM505 613V528H524V613ZM564 614Q554 614 547 610Q541 605 537 596Q534 586 534 570Q534 555 537 545Q541 535 547 531Q554 526 564 526Q574 526 580 531Q587 535 590 545Q593 555 593 570Q593 586 590 596Q587 605 580 610Q574 614 564 614ZM564 598Q567 598 569 597Q571 596 572 593Q573 590 574 586Q574 582 574 578V563Q574 558 574 554Q573 551 572 548Q571 545 569 544Q567 542 564 542Q561 542 559 544Q557 545 555 548Q554 551 554 554Q553 558 553 563V578Q553 582 554 586Q554 590 555 593Q557 596 559 597Q561 598 564 598ZM603 613V528H621L634 562Q634 563 634 565Q635 566 635 568Q636 569 636 571H637Q637 568 637 566Q637 564 637 562V528H655V613H637L624 578Q624 576 623 574Q622 571 622 569H621Q621 571 621 573Q621 576 621 578V613ZM689 614Q684 614 679 613Q674 612 671 609Q667 606 665 601Q663 596 663 588Q663 588 663 587Q663 586 664 586H682Q682 586 682 587Q682 588 682 588Q682 592 682 594Q683 597 685 598Q686 598 688 598Q690 598 691 598Q692 598 693 597Q694 596 694 595Q695 594 695 593Q695 591 695 589Q695 587 694 585Q693 583 690 581Q688 580 686 579Q683 577 680 576Q677 574 674 573Q671 571 669 568Q667 565 666 561Q665 557 665 552Q665 545 667 540Q669 535 672 532Q675 529 680 528Q684 526 689 526Q694 526 699 527Q703 529 706 531Q709 534 711 539Q713 543 713 550V553H695V551Q695 548 695 546Q694 544 693 543Q692 542 689 542Q688 542 686 543Q685 544 684 546Q684 547 684 550Q684 553 685 555Q686 557 688 558Q691 560 693 561Q696 562 699 564Q702 565 705 567Q707 569 710 572Q712 574 713 578Q714 582 714 587Q714 597 711 603Q708 609 703 612Q697 614 689 614Z"/><path fill="#1F3A5F" d="M378 670 375 669 377 667H378L379 677L378 677L374 670L375 671Q374 671 373 670Q371 670 370 670Q367 670 366 671Q364 672 364 674Q364 676 365 677Q366 678 367 678Q368 679 369 680Q370 680 372 681Q373 681 375 682Q376 682 378 683Q379 684 380 686Q380 687 380 689Q380 692 379 694Q377 696 375 697Q372 698 369 698Q367 698 365 698Q364 698 362 697L360 689H361L367 697L363 695Q364 696 366 696Q367 696 369 696Q371 696 373 696Q374 695 375 694Q376 693 376 691Q376 689 375 688Q375 687 373 686Q372 686 371 685Q369 685 368 684Q366 684 365 683Q364 682 363 681Q362 680 361 679Q361 678 361 676Q361 673 362 672Q363 670 365 669Q368 668 371 668Q373 668 374 668Q376 669 378 670ZM395 686 396 687Q393 688 392 689Q390 689 389 690Q388 690 388 691Q388 692 388 693Q388 694 389 695Q390 696 391 696Q392 696 392 695Q393 695 394 694Q394 693 394 692V684Q394 682 393 681Q393 680 391 680Q390 680 389 681Q388 681 388 681L389 680Q389 681 388 682Q388 682 388 683Q388 683 388 684Q387 684 387 684Q386 684 386 684Q385 684 384 684Q384 684 384 683Q384 682 385 682Q385 681 387 680Q388 679 389 679Q391 678 392 678Q395 678 396 679Q397 680 398 681Q398 682 398 684V694Q398 695 399 695Q399 696 399 696Q399 696 400 696Q401 696 401 696Q402 696 402 695V696Q401 697 400 698Q399 698 398 698Q397 698 396 698Q395 697 395 696Q394 696 394 694L394 694Q394 695 393 696Q392 697 391 698Q390 698 389 698Q387 698 385 697Q384 696 384 694Q384 692 384 691Q385 690 386 689Q387 688 389 688Q392 687 395 686ZM414 694 412 699 403 681 401 680V679H411V680L408 681ZM406 710Q405 710 404 709Q403 708 403 707Q403 706 403 706Q403 705 404 705Q404 705 405 705Q405 705 405 705Q406 705 406 705Q407 706 407 706Q408 706 408 705Q409 705 409 705Q410 704 410 703L413 697L414 694L419 680L416 680V679H423V680L421 680L412 702Q411 705 410 707Q409 708 408 709Q407 710 406 710ZM434 697Q435 697 437 696Q438 695 438 693Q439 692 439 689Q439 686 438 684Q438 682 437 681Q435 680 434 680Q432 680 431 681Q430 682 429 683Q429 685 429 688Q429 691 429 693Q430 695 431 696Q432 697 434 697ZM434 698Q431 698 429 697Q426 696 425 694Q424 692 424 689Q424 686 425 683Q427 681 429 680Q431 678 434 678Q437 678 439 680Q441 681 442 683Q444 685 444 688Q444 691 442 693Q441 696 439 697Q437 698 434 698ZM494 696 497 697V698H485V697L489 696L487 672L487 672L476 698H474L463 672L463 672L462 696L465 697V698H456V697L459 696L461 671L457 669V668H466L477 693H476L487 668H495V669L492 670ZM504 673Q503 673 502 672Q501 671 501 670Q501 668 502 667Q503 667 504 667Q505 667 506 667Q507 668 507 670Q507 671 506 672Q505 673 504 673ZM507 678 506 682V696L510 697V698H499V697L502 696V683Q502 682 501 682Q501 682 500 681Q500 681 499 681V680L506 678ZM519 682V696L522 697V698H511V697L514 696V683Q514 682 513 682Q513 682 511 681V681L517 678H518ZM524 697 527 696V685Q527 684 527 683Q526 683 525 682Q525 682 523 682Q522 682 520 682Q519 683 518 684L517 683Q519 682 520 681Q521 680 522 679Q523 679 524 679Q525 678 526 678Q529 678 530 680Q532 682 532 685V696L535 697V698H524ZM546 678Q548 678 550 679Q551 680 552 682Q553 684 554 687H540L540 685L551 685L549 686Q549 684 549 683Q548 681 547 681Q547 680 545 680Q544 680 543 681Q542 682 541 683Q541 685 541 687Q541 690 542 692Q543 693 544 694Q546 695 548 695Q549 695 550 695Q551 695 552 694Q552 694 553 693L554 694Q553 695 551 696Q550 697 549 698Q547 698 546 698Q543 698 541 697Q539 696 538 694Q537 692 537 689Q537 686 538 683Q539 681 541 680Q543 678 546 678ZM565 710Q562 710 561 709Q559 709 558 708Q557 708 556 707Q555 706 555 704Q555 704 556 703Q556 702 557 701Q558 701 560 700Q561 700 564 699H565V700Q563 700 562 701Q560 701 560 702Q559 703 559 704Q559 705 560 706Q561 707 562 707Q563 708 565 708Q567 708 569 707Q570 707 571 706Q572 705 572 704Q572 703 572 702Q571 702 570 701Q570 701 568 701Q567 700 564 700Q562 700 561 700Q559 699 559 699Q558 698 558 697Q557 697 557 696Q557 694 559 693Q560 692 563 691L563 692Q562 692 561 693Q561 693 561 694Q561 695 561 695Q561 695 562 696Q562 696 564 696Q565 696 567 697Q569 697 571 697Q572 697 573 698Q574 699 575 700Q576 701 576 702Q576 704 574 706Q573 707 571 708Q568 710 565 710ZM565 692Q562 692 561 691Q559 691 558 689Q557 687 557 685Q557 683 558 682Q559 680 561 679Q562 678 565 678Q567 678 568 679Q570 679 571 680Q572 681 572 683Q573 684 573 685Q573 687 572 689Q571 691 569 691Q567 692 565 692ZM565 691Q567 691 568 689Q569 688 569 686Q569 683 567 681Q566 680 565 680Q563 680 562 681Q561 683 561 685Q561 688 562 689Q563 691 565 691ZM568 680 567 679Q569 679 570 679Q571 679 572 679Q573 678 574 678Q575 678 575 678Q576 678 577 679Q577 679 577 680Q577 681 576 681Q576 682 575 682Q574 682 574 682Q573 681 572 681Q572 680 570 680Q569 680 568 680ZM583 673Q581 673 581 672Q580 671 580 670Q580 668 581 667Q581 667 583 667Q584 667 585 667Q586 668 586 670Q586 671 585 672Q584 673 583 673ZM585 678 585 682V696L588 697V698H578V697L581 696V683Q581 682 580 682Q580 682 579 681Q578 681 578 681V680L585 678ZM598 678Q599 678 600 679Q601 679 603 679L603 685H602L600 679L601 681Q600 680 600 680Q599 680 598 680Q596 680 595 681Q594 681 594 683Q594 683 595 684Q595 685 596 685Q597 686 599 686Q600 687 601 687Q602 688 602 689Q603 689 603 690Q604 691 604 692Q604 694 603 696Q602 697 600 698Q598 698 596 698Q595 698 594 698Q592 698 591 698L590 692H592L595 698L592 696Q593 696 593 697Q594 697 595 697Q595 697 596 697Q598 697 599 696Q600 695 600 694Q600 693 600 692Q599 692 599 691Q598 691 597 690Q596 690 595 690Q594 689 593 688Q592 688 591 686Q591 685 591 684Q591 682 592 681Q593 680 594 679Q596 678 598 678ZM619 697 622 696V685Q622 684 622 683Q621 683 620 682Q619 682 618 682Q616 682 615 682Q614 683 613 684L612 683Q613 682 614 681Q616 680 617 679Q618 679 619 679Q620 678 621 678Q624 678 625 680Q626 682 626 685V696L629 697V698H619ZM616 698H606V697L609 696V671Q609 671 608 671Q608 670 607 670Q607 670 606 669V669L613 667H614L613 671V696L616 697ZM636 673Q635 673 634 672Q633 671 633 670Q633 668 634 667Q635 667 636 667Q637 667 638 667Q639 668 639 670Q639 671 638 672Q637 673 636 673ZM638 678 638 682V696L641 697V698H631V697L634 696V683Q634 682 633 682Q633 682 632 681Q632 681 631 681V680L638 678Z"/><line x1="70" y1="862" x2="930" y2="862" stroke="#C9DCE3" stroke-width="2" opacity="0.6"/><polygon points="70,1250 300,1250 502,868 70,868" fill="#13233A"/><line x1="300" y1="1250" x2="502" y2="868" stroke="#F3EDE0" stroke-width="4"/><line x1="318" y1="1250" x2="506" y2="868" stroke="#F3EDE0" stroke-width="1.5" opacity="0.7"/><line x1="360" y1="1250" x2="515.8" y2="868" stroke="#F3EDE0" stroke-width="4" stroke-linecap="round"/><line x1="600" y1="1250" x2="524.2" y2="868" stroke="#F3EDE0" stroke-width="4" stroke-linecap="round"/><line x1="516.3" y1="870" x2="522.3" y2="870" stroke="#C9DCE3" stroke-width="1.1" opacity="0.8"/><line x1="515.5" y1="871.6" x2="522.7" y2="871.6" stroke="#C9DCE3" stroke-width="1.1" opacity="0.8"/><line x1="512.9" y1="877.4" x2="524.4" y2="877.4" stroke="#C9DCE3" stroke-width="1.2" opacity="0.8"/><line x1="507.9" y1="888" x2="527.4" y2="888" stroke="#C9DCE3" stroke-width="1.3" opacity="0.8"/><line x1="500.6" y1="903.9" x2="531.9" y2="903.9" stroke="#C9DCE3" stroke-width="1.5" opacity="0.8"/><line x1="490.6" y1="925.4" x2="538" y2="925.4" stroke="#C9DCE3" stroke-width="1.8" opacity="0.8"/><line x1="477.9" y1="952.7" x2="545.7" y2="952.7" stroke="#C9DCE3" stroke-width="2.2" opacity="0.8"/><line x1="462.4" y1="986.1" x2="555.2" y2="986.1" stroke="#C9DCE3" stroke-width="2.6" opacity="0.8"/><line x1="444" y1="1025.7" x2="566.4" y2="1025.7" stroke="#C9DCE3" stroke-width="3.1" opacity="0.8"/><line x1="422.7" y1="1071.8" x2="579.5" y2="1071.8" stroke="#C9DCE3" stroke-width="3.7" opacity="0.8"/><line x1="398.2" y1="1124.4" x2="594.4" y2="1124.4" stroke="#C9DCE3" stroke-width="4.4" opacity="0.8"/><line x1="370.7" y1="1183.8" x2="611.2" y2="1183.8" stroke="#C9DCE3" stroke-width="5.1" opacity="0.8"/><line x1="340" y1="1250" x2="630" y2="1250" stroke="#C9DCE3" stroke-width="6" opacity="0.8"/><line x1="150" y1="1215" x2="150" y2="915" stroke="#F3EDE0" stroke-width="6"/><line x1="283.8" y1="1080.9" x2="283.8" y2="894.9" stroke="#F3EDE0" stroke-width="4.5"/><line x1="361.2" y1="1003.2" x2="361.2" y2="883.2" stroke="#F3EDE0" stroke-width="3.6"/><line x1="410.5" y1="953.8" x2="410.5" y2="875.8" stroke="#F3EDE0" stroke-width="3"/><line x1="442.2" y1="922" x2="442.2" y2="871" stroke="#F3EDE0" stroke-width="2.7"/><polygon points="502,862 62,928.2 62,894.2 502,860" fill="#F3EDE0"/><line x1="502" y1="865" x2="62" y2="938.2" stroke="#F3EDE0" stroke-width="2" opacity="0.6"/><rect x="170" y="1150" width="110" height="10" fill="#F3EDE0"/><rect x="180" y="1160" width="6" height="30" fill="#F3EDE0"/><rect x="264" y="1160" width="6" height="30" fill="#F3EDE0"/><rect x="340" y="1010" width="6" height="62" fill="#F3EDE0"/><rect x="394" y="1010" width="6" height="62" fill="#F3EDE0"/><rect x="322" y="976" width="96" height="46" fill="#F3EDE0"/><path fill="#1F3A5F" d="M335.2 1007V990.2H337.7L344.8 1002.5V990.2H347.2V1007H344.7L337.6 994.7V1007ZM355.6 1007.3Q353.9 1007.3 352.6 1006.5Q351.2 1005.8 350.4 1004.3Q349.7 1002.9 349.7 1001Q349.7 999.2 350.4 997.7Q351.2 996.3 352.6 995.6Q353.9 994.8 355.6 994.8Q357.4 994.8 358.7 995.6Q360 996.3 360.8 997.7Q361.5 999.2 361.5 1001Q361.5 1002.9 360.8 1004.3Q360 1005.8 358.7 1006.5Q357.3 1007.3 355.6 1007.3ZM355.6 1004.9Q356.5 1004.9 357.3 1004.5Q358 1004 358.5 1003.2Q359 1002.3 359 1001Q359 999.7 358.5 998.9Q358 998 357.3 997.6Q356.5 997.2 355.6 997.2Q354.7 997.2 353.9 997.6Q353.2 998 352.7 998.9Q352.2 999.7 352.2 1001Q352.2 1003 353.2 1003.9Q354.2 1004.9 355.6 1004.9ZM370 1007.1Q369.1 1007.1 368.5 1006.6Q367.9 1006 367.9 1005.1Q367.9 1004.3 368.5 1003.7Q369.1 1003.1 370 1003.1Q370.9 1003.1 371.5 1003.7Q372.1 1004.3 372.1 1005.1Q372.1 1006 371.5 1006.6Q370.9 1007.1 370 1007.1ZM393.3 1007V1005Q395.8 1003 397.6 1001.4Q399.5 999.7 400.5 998.2Q401.6 996.6 401.6 995Q401.6 993.7 400.8 993Q400.1 992.2 398.8 992.2Q397.4 992.2 396.6 993.1Q395.8 994.1 395.8 995.3H393.3Q393.3 993.6 394 992.4Q394.8 991.2 396 990.5Q397.2 989.9 398.8 989.9Q401.4 989.9 402.8 991.3Q404.2 992.7 404.2 995Q404.2 996.4 403.5 997.8Q402.9 999.2 401.9 1000.4Q400.8 1001.6 399.6 1002.7Q398.3 1003.8 397 1004.8H404.6V1007Z"/><rect x="752" y="940" width="6" height="290" fill="#F3EDE0"/><rect x="728" y="900" width="54" height="92" fill="#13233A" rx="27"/><circle cx="755" cy="927" r="15" fill="#D9622B"/><circle cx="755" cy="966" r="15" fill="none" stroke="#C9DCE3" stroke-width="2"/><line x1="860" y1="866" x2="860" y2="792" stroke="#C9DCE3" stroke-width="2" opacity="0.6"/><line x1="900" y1="866" x2="900" y2="810" stroke="#C9DCE3" stroke-width="2" opacity="0.6"/><line x1="930" y1="866" x2="930" y2="822" stroke="#C9DCE3" stroke-width="2" opacity="0.6"/><line x1="70" y1="1278" x2="930" y2="1278" stroke="#F3EDE0" stroke-width="2"/><circle cx="98" cy="1334" r="24" fill="none" stroke="#F3EDE0" stroke-width="3"/><path d="M91 1319h14v30l-7 -7l-7 7z" fill="#F3EDE0"/><path fill="#F3EDE0" d="M143.6 1340.2Q142.7 1340.2 141.8 1340Q140.9 1339.8 140.2 1339.3Q139.5 1338.9 139.2 1338.2Q138.8 1337.5 138.8 1336.6Q138.8 1336.5 138.8 1336.4Q138.8 1336.3 138.8 1336.3H141Q141 1336.3 141 1336.4Q141 1336.5 141 1336.5Q141 1337.1 141.3 1337.5Q141.6 1337.9 142.2 1338.1Q142.9 1338.3 143.7 1338.3Q144.3 1338.3 144.7 1338.3Q145.1 1338.2 145.4 1338.1Q145.8 1337.9 146 1337.8Q146.2 1337.6 146.3 1337.4Q146.3 1337.1 146.3 1336.9Q146.3 1336.4 146 1336.1Q145.7 1335.8 145.2 1335.5Q144.7 1335.3 144 1335.1Q143.4 1335 142.7 1334.8Q142 1334.6 141.4 1334.3Q140.7 1334 140.2 1333.7Q139.7 1333.3 139.4 1332.7Q139.1 1332.2 139.1 1331.4Q139.1 1330.5 139.4 1329.9Q139.8 1329.3 140.4 1328.9Q141 1328.5 141.9 1328.3Q142.7 1328.1 143.7 1328.1Q144.7 1328.1 145.5 1328.3Q146.3 1328.5 146.9 1328.9Q147.6 1329.4 147.9 1330Q148.3 1330.6 148.3 1331.5V1331.7H146.1V1331.6Q146.1 1331.1 145.8 1330.7Q145.5 1330.4 145 1330.2Q144.4 1330 143.7 1330Q142.9 1330 142.4 1330.1Q141.9 1330.3 141.6 1330.6Q141.3 1330.9 141.3 1331.3Q141.3 1331.7 141.6 1332Q141.9 1332.3 142.4 1332.5Q142.9 1332.7 143.6 1332.8Q144.2 1333 144.9 1333.2Q145.6 1333.4 146.3 1333.7Q146.9 1333.9 147.4 1334.3Q148 1334.7 148.3 1335.2Q148.6 1335.8 148.6 1336.6Q148.6 1337.9 147.9 1338.7Q147.3 1339.5 146.2 1339.8Q145.1 1340.2 143.6 1340.2ZM154.4 1340V1328.3H156.6V1333.1H162V1328.3H164.2V1340H162V1335H156.6V1340ZM170.6 1340V1328.3H172.8V1340ZM184.4 1340.2Q182.6 1340.2 181.3 1339.5Q180 1338.9 179.3 1337.6Q178.6 1336.2 178.6 1334.2Q178.6 1332.1 179.3 1330.8Q180 1329.4 181.3 1328.8Q182.6 1328.1 184.4 1328.1Q186.3 1328.1 187.6 1328.8Q188.9 1329.4 189.6 1330.8Q190.3 1332.1 190.3 1334.2Q190.3 1336.2 189.6 1337.6Q188.9 1338.9 187.6 1339.5Q186.3 1340.2 184.4 1340.2ZM184.4 1338.3Q185.3 1338.3 186 1338.1Q186.7 1337.8 187.1 1337.3Q187.6 1336.8 187.8 1336.1Q188.1 1335.3 188.1 1334.4V1334Q188.1 1333 187.8 1332.3Q187.6 1331.5 187.1 1331Q186.7 1330.5 186 1330.3Q185.3 1330 184.4 1330Q183.6 1330 182.9 1330.3Q182.2 1330.5 181.8 1331Q181.3 1331.5 181.1 1332.3Q180.8 1333 180.8 1334V1334.4Q180.8 1335.3 181.1 1336.1Q181.3 1336.8 181.8 1337.3Q182.2 1337.8 182.9 1338.1Q183.6 1338.3 184.4 1338.3ZM196.1 1340V1328.3H202.3Q203.6 1328.3 204.4 1328.8Q205.3 1329.2 205.7 1330Q206.1 1330.9 206.1 1332Q206.1 1333.1 205.6 1334Q205.1 1334.8 204.1 1335.3L206.5 1340H204.1L202 1335.7H198.3V1340ZM198.3 1333.8H202.1Q202.9 1333.8 203.4 1333.3Q203.9 1332.8 203.9 1332Q203.9 1331.4 203.7 1331Q203.5 1330.6 203.1 1330.4Q202.7 1330.2 202.1 1330.2H198.3ZM212.1 1340V1328.3H214.3V1340ZM227.7 1340V1328.3H233.6Q234.9 1328.3 235.7 1328.8Q236.5 1329.3 237 1330.1Q237.4 1330.9 237.4 1332.1Q237.4 1333.2 237 1334.1Q236.5 1334.9 235.6 1335.4Q234.8 1335.9 233.5 1335.9H229.9V1340ZM229.9 1334H233.4Q234.2 1334 234.7 1333.5Q235.2 1333 235.2 1332.1Q235.2 1331.5 235 1331.1Q234.8 1330.7 234.4 1330.4Q234 1330.2 233.4 1330.2H229.9ZM242.9 1340V1328.3H249Q250.3 1328.3 251.1 1328.8Q252 1329.2 252.4 1330Q252.8 1330.9 252.8 1332Q252.8 1333.1 252.3 1334Q251.8 1334.8 250.8 1335.3L253.2 1340H250.8L248.7 1335.7H245.1V1340ZM245.1 1333.8H248.8Q249.7 1333.8 250.1 1333.3Q250.6 1332.8 250.6 1332Q250.6 1331.4 250.4 1331Q250.2 1330.6 249.8 1330.4Q249.4 1330.2 248.8 1330.2H245.1ZM258.8 1340V1328.3H267.9V1330.2H261V1333.1H267.1V1335H261V1338.1H268V1340ZM278.3 1340.2Q277.3 1340.2 276.4 1340Q275.6 1339.8 274.9 1339.3Q274.2 1338.9 273.8 1338.2Q273.4 1337.5 273.4 1336.6Q273.4 1336.5 273.4 1336.4Q273.4 1336.3 273.4 1336.3H275.7Q275.7 1336.3 275.7 1336.4Q275.6 1336.5 275.6 1336.5Q275.6 1337.1 276 1337.5Q276.3 1337.9 276.9 1338.1Q277.5 1338.3 278.4 1338.3Q278.9 1338.3 279.3 1338.3Q279.8 1338.2 280.1 1338.1Q280.4 1337.9 280.6 1337.8Q280.8 1337.6 280.9 1337.4Q281 1337.1 281 1336.9Q281 1336.4 280.7 1336.1Q280.4 1335.8 279.9 1335.5Q279.4 1335.3 278.7 1335.1Q278 1335 277.4 1334.8Q276.7 1334.6 276 1334.3Q275.4 1334 274.8 1333.7Q274.3 1333.3 274 1332.7Q273.7 1332.2 273.7 1331.4Q273.7 1330.5 274.1 1329.9Q274.4 1329.3 275 1328.9Q275.7 1328.5 276.5 1328.3Q277.4 1328.1 278.4 1328.1Q279.3 1328.1 280.1 1328.3Q281 1328.5 281.6 1328.9Q282.2 1329.4 282.6 1330Q282.9 1330.6 282.9 1331.5V1331.7H280.7V1331.6Q280.7 1331.1 280.5 1330.7Q280.2 1330.4 279.6 1330.2Q279.1 1330 278.4 1330Q277.6 1330 277.1 1330.1Q276.5 1330.3 276.2 1330.6Q275.9 1330.9 275.9 1331.3Q275.9 1331.7 276.2 1332Q276.6 1332.3 277.1 1332.5Q277.6 1332.7 278.2 1332.8Q278.9 1333 279.6 1333.2Q280.3 1333.4 280.9 1333.7Q281.6 1333.9 282.1 1334.3Q282.6 1334.7 282.9 1335.2Q283.2 1335.8 283.2 1336.6Q283.2 1337.9 282.6 1338.7Q282 1339.5 280.8 1339.8Q279.7 1340.2 278.3 1340.2ZM293.4 1340.2Q292.4 1340.2 291.5 1340Q290.6 1339.8 290 1339.3Q289.3 1338.9 288.9 1338.2Q288.5 1337.5 288.5 1336.6Q288.5 1336.5 288.5 1336.4Q288.5 1336.3 288.5 1336.3H290.7Q290.7 1336.3 290.7 1336.4Q290.7 1336.5 290.7 1336.5Q290.7 1337.1 291.1 1337.5Q291.4 1337.9 292 1338.1Q292.6 1338.3 293.4 1338.3Q294 1338.3 294.4 1338.3Q294.9 1338.2 295.2 1338.1Q295.5 1337.9 295.7 1337.8Q295.9 1337.6 296 1337.4Q296.1 1337.1 296.1 1336.9Q296.1 1336.4 295.8 1336.1Q295.5 1335.8 295 1335.5Q294.4 1335.3 293.8 1335.1Q293.1 1335 292.4 1334.8Q291.7 1334.6 291.1 1334.3Q290.4 1334 289.9 1333.7Q289.4 1333.3 289.1 1332.7Q288.8 1332.2 288.8 1331.4Q288.8 1330.5 289.1 1329.9Q289.5 1329.3 290.1 1328.9Q290.8 1328.5 291.6 1328.3Q292.5 1328.1 293.5 1328.1Q294.4 1328.1 295.2 1328.3Q296 1328.5 296.7 1328.9Q297.3 1329.4 297.7 1330Q298 1330.6 298 1331.5V1331.7H295.8V1331.6Q295.8 1331.1 295.5 1330.7Q295.2 1330.4 294.7 1330.2Q294.2 1330 293.4 1330Q292.7 1330 292.1 1330.1Q291.6 1330.3 291.3 1330.6Q291 1330.9 291 1331.3Q291 1331.7 291.3 1332Q291.6 1332.3 292.1 1332.5Q292.7 1332.7 293.3 1332.8Q294 1333 294.7 1333.2Q295.4 1333.4 296 1333.7Q296.7 1333.9 297.2 1334.3Q297.7 1334.7 298 1335.2Q298.3 1335.8 298.3 1336.6Q298.3 1337.9 297.7 1338.7Q297 1339.5 295.9 1339.8Q294.8 1340.2 293.4 1340.2Z"/><path fill="#F3EDE0" d="M863.1 1325 861 1324.3 861.2 1323.8H865.9L859.7 1344H855.1L855.3 1343.5L857.7 1342.8ZM873 1324.7 873.8 1325H864L864.4 1323.8H873.5L875.4 1323H875.6L874.6 1329.5H873.9ZM869.6 1344.9 868.1 1344H858.2L858.6 1342.7H869.1L867.8 1343L872.3 1338.3L872.8 1338.6L869.8 1344.9ZM868.5 1337.4H867.5L868.1 1334L861.3 1334L861.6 1332.8L868.4 1332.8L869.9 1329.4H870.9L869.6 1333.4ZM875.4 1340.9Q875.6 1341 875.8 1341.3Q875.9 1341.6 876.3 1342.2Q876.8 1342.9 877.2 1343.1Q877.5 1343.3 878 1343.3Q878.6 1343.3 879.1 1343.1Q879.6 1342.9 879.9 1342.4Q880.1 1342 880.1 1341.4Q880.1 1340.9 880 1340.5Q879.9 1340 879.5 1339.4Q879.1 1338.8 878.4 1338.1Q877.7 1337.3 877.4 1336.6Q877 1336 876.8 1335.5Q876.6 1334.9 876.6 1334.4Q876.6 1333.4 877.1 1332.5Q877.6 1331.7 878.6 1331.1Q879.5 1330.6 880.9 1330.6Q881.9 1330.6 882.5 1330.9Q883.1 1331.2 883.4 1331.6Q883.7 1332 883.7 1332.6Q883.7 1332.9 883.6 1333.2Q883.4 1333.5 883.1 1333.6Q882.8 1333.8 882.4 1333.8Q882.3 1333.7 882.1 1333.5Q881.9 1333.2 881.5 1332.7Q881.1 1332.2 880.7 1331.9Q880.3 1331.7 879.9 1331.7Q879.1 1331.7 878.6 1332.1Q878.2 1332.6 878.2 1333.4Q878.2 1333.7 878.4 1334.2Q878.5 1334.6 878.9 1335.2Q879.3 1335.7 879.9 1336.5Q880.6 1337.3 881 1338Q881.4 1338.7 881.5 1339.3Q881.7 1339.8 881.7 1340.3Q881.7 1341.5 881.1 1342.4Q880.5 1343.3 879.5 1343.8Q878.4 1344.3 877.1 1344.3Q876 1344.3 875.3 1344Q874.6 1343.7 874.3 1343.2Q874 1342.8 874 1342.2Q874 1341.9 874.1 1341.6Q874.3 1341.3 874.6 1341.1Q875 1340.9 875.4 1340.9ZM884.8 1340.9Q885 1341 885.2 1341.3Q885.4 1341.6 885.8 1342.2Q886.2 1342.9 886.6 1343.1Q887 1343.3 887.4 1343.3Q888.1 1343.3 888.6 1343.1Q889.1 1342.9 889.3 1342.4Q889.6 1342 889.6 1341.4Q889.6 1340.9 889.5 1340.5Q889.3 1340 888.9 1339.4Q888.6 1338.8 887.9 1338.1Q887.2 1337.3 886.8 1336.6Q886.4 1336 886.3 1335.5Q886.1 1334.9 886.1 1334.4Q886.1 1333.4 886.6 1332.5Q887.1 1331.7 888 1331.1Q889 1330.6 890.3 1330.6Q891.3 1330.6 892 1330.9Q892.6 1331.2 892.9 1331.6Q893.2 1332 893.2 1332.6Q893.2 1332.9 893 1333.2Q892.9 1333.5 892.6 1333.6Q892.3 1333.8 891.9 1333.8Q891.7 1333.7 891.5 1333.5Q891.3 1333.2 891 1332.7Q890.6 1332.2 890.2 1331.9Q889.8 1331.7 889.4 1331.7Q888.6 1331.7 888.1 1332.1Q887.7 1332.6 887.7 1333.4Q887.7 1333.7 887.8 1334.2Q888 1334.6 888.4 1335.2Q888.8 1335.7 889.4 1336.5Q890.1 1337.3 890.4 1338Q890.8 1338.7 891 1339.3Q891.2 1339.8 891.2 1340.3Q891.2 1341.5 890.6 1342.4Q890 1343.3 888.9 1343.8Q887.9 1344.3 886.6 1344.3Q885.5 1344.3 884.8 1344Q884.1 1343.7 883.8 1343.2Q883.4 1342.8 883.4 1342.2Q883.4 1341.9 883.6 1341.6Q883.8 1341.3 884.1 1341.1Q884.4 1340.9 884.8 1340.9ZM900.6 1343.3 902.2 1338.4H902.5Q901.4 1340.1 900.5 1341.2Q899.5 1342.4 898.8 1343Q898 1343.7 897.4 1344Q896.8 1344.3 896.2 1344.3Q895.4 1344.3 894.8 1344Q894.2 1343.7 893.8 1343Q893.5 1342.3 893.5 1341.3Q893.5 1340.1 894 1338.7Q894.4 1337.3 895.2 1335.9Q896 1334.6 897.1 1333.4Q898.1 1332.3 899.4 1331.6Q900.6 1330.9 901.9 1330.9Q902.8 1330.9 903.4 1331.2Q904 1331.5 904.5 1332.2L903.9 1332.9Q903.8 1332.5 903.3 1332.2Q902.9 1331.9 902.3 1331.9Q901.2 1331.9 900.2 1332.6Q899.3 1333.3 898.5 1334.4Q897.6 1335.5 897 1336.7Q896.4 1338 896.1 1339.2Q895.8 1340.3 895.8 1341.1Q895.8 1341.8 896.1 1342.1Q896.5 1342.4 897.1 1342.4Q897.6 1342.4 898.3 1342Q899 1341.6 899.8 1340.9Q900.7 1340.1 901.4 1339.1Q902.1 1338 902.6 1336.8L904.4 1331.1L906.1 1330.9H906.6L902.7 1342.9L902.4 1342.3Q902.9 1342.4 903.6 1342.2Q904.2 1342 904.9 1341.6Q905.6 1341.1 906.3 1340.4L906.7 1340.9Q905.1 1342.8 903.9 1343.5Q902.7 1344.3 901.7 1344.3Q901 1344.3 900.7 1344Q900.4 1343.7 900.6 1343.3ZM908.1 1336.2H907.6Q907.8 1334.6 908.2 1333.5Q908.5 1332.4 909 1331.8Q909.4 1331.2 910 1330.9Q910.6 1330.6 911.2 1330.6Q911.6 1330.6 911.9 1330.8Q912.1 1331 912.3 1331.4Q912.5 1331.8 912.7 1332.6Q912.9 1333.4 913.1 1335Q913.4 1336.5 913.6 1339Q913.9 1341.5 914.3 1345.1L912.4 1346.6Q912.1 1344.2 911.9 1342.3Q911.7 1340.5 911.5 1339.1Q911.4 1337.7 911.2 1336.7Q911.1 1335.7 911 1335Q910.8 1334 910.7 1333.5Q910.6 1333 910.4 1332.9Q910.3 1332.7 910.2 1332.7Q909.8 1332.7 909.5 1333Q909.1 1333.3 908.8 1334.1Q908.5 1334.8 908.1 1336.2ZM913.1 1345.1 913.6 1344.6Q914.8 1342.8 915.6 1341.2Q916.4 1339.6 916.9 1338Q917.4 1336.4 917.6 1334.7Q917.8 1333 917.8 1330.9Q918.3 1330.8 918.6 1330.7Q919 1330.7 919.3 1330.7Q919.7 1330.7 919.9 1330.8Q920.1 1331 920.1 1331.4Q920.1 1332.1 920 1333.1Q919.8 1334 919.4 1335.2Q919 1336.3 918.4 1337.7Q917.8 1339.1 917 1340.6Q916.2 1342.2 915 1344Q913.2 1347 911.7 1348.7Q910.2 1350.4 908.9 1351.1Q907.6 1351.8 906.4 1351.8Q905.2 1351.8 904.8 1351.3Q904.3 1350.9 904.3 1350Q904.3 1349.4 904.6 1349Q905 1348.6 905.5 1348.6Q905.7 1348.6 905.9 1348.7Q906.1 1348.9 906.4 1349.4Q906.8 1349.8 907.1 1350Q907.4 1350.2 907.8 1350.2Q908.4 1350.2 909.3 1349.6Q910.2 1348.9 911.2 1347.8Q912.1 1346.6 913.1 1345.1ZM921.7 1340.9Q921.9 1341 922 1341.3Q922.2 1341.6 922.6 1342.2Q923.1 1342.9 923.4 1343.1Q923.8 1343.3 924.3 1343.3Q924.9 1343.3 925.4 1343.1Q925.9 1342.9 926.2 1342.4Q926.4 1342 926.4 1341.4Q926.4 1340.9 926.3 1340.5Q926.1 1340 925.8 1339.4Q925.4 1338.8 924.7 1338.1Q924 1337.3 923.6 1336.6Q923.2 1336 923.1 1335.5Q922.9 1334.9 922.9 1334.4Q922.9 1333.4 923.4 1332.5Q923.9 1331.7 924.9 1331.1Q925.8 1330.6 927.2 1330.6Q928.2 1330.6 928.8 1330.9Q929.4 1331.2 929.7 1331.6Q930 1332 930 1332.6Q930 1332.9 929.9 1333.2Q929.7 1333.5 929.4 1333.6Q929.1 1333.8 928.7 1333.8Q928.6 1333.7 928.4 1333.5Q928.2 1333.2 927.8 1332.7Q927.4 1332.2 927 1331.9Q926.6 1331.7 926.2 1331.7Q925.4 1331.7 924.9 1332.1Q924.5 1332.6 924.5 1333.4Q924.5 1333.7 924.6 1334.2Q924.8 1334.6 925.2 1335.2Q925.6 1335.7 926.2 1336.5Q926.9 1337.3 927.3 1338Q927.7 1338.7 927.8 1339.3Q928 1339.8 928 1340.3Q928 1341.5 927.4 1342.4Q926.8 1343.3 925.8 1343.8Q924.7 1344.3 923.4 1344.3Q922.3 1344.3 921.6 1344Q920.9 1343.7 920.6 1343.2Q920.2 1342.8 920.2 1342.2Q920.2 1341.9 920.4 1341.6Q920.6 1341.3 920.9 1341.1Q921.2 1340.9 921.7 1340.9Z"/><rect width="1000" height="1400" filter="url(#grain)" opacity="0.2"/></svg>