<svg xmlns="http://www.w3.org/2000/svg" viewBox="0 0 800 1000" width="800" height="1000" role="img" aria-label="Poster portrait of Aoi Hanamura, festival chair, against an orange burst"><defs><filter id="grain" x="0" y="0" width="100%" height="100%"><feTurbulence type="fractalNoise" baseFrequency=".9" numOctaves="2" stitchTiles="stitch"/><feColorMatrix values="0 0 0 0 1  0 0 0 0 .95  0 0 0 0 .85  0 0 0 .07 0"/></filter><filter id="glow" x="-50%" y="-50%" width="200%" height="200%"><feGaussianBlur stdDeviation="9"/></filter><filter id="glow2" x="-50%" y="-50%" width="200%" height="200%"><feGaussianBlur stdDeviation="22"/></filter><filter id="soft" x="-20%" y="-20%" width="140%" height="140%"><feGaussianBlur stdDeviation="2.2"/></filter></defs><rect width="800" height="1000" fill="#232870"/><polygon points="400,430 1600,430 1592.5,564.4" fill="#FF5B24" opacity=".55"/><polygon points="400,430 1569.9,697 1532.7,826.3" fill="#FF5B24" opacity=".55"/><polygon points="400,430 1481.2,950.7 1416.1,1068.4" fill="#FF5B24" opacity=".55"/><polygon points="400,430 1338.2,1178.2 1248.5,1278.5" fill="#FF5B24" opacity=".55"/><polygon points="400,430 1148.2,1368.2 1038.4,1446.1" fill="#FF5B24" opacity=".55"/><polygon points="400,430 920.7,1511.2 796.3,1562.7" fill="#FF5B24" opacity=".55"/><polygon points="400,430 667,1599.9 534.4,1622.5" fill="#FF5B24" opacity=".55"/><polygon points="400,430 400,1630 265.6,1622.5" fill="#FF5B24" opacity=".55"/><polygon points="400,430 133,1599.9 3.7,1562.7" fill="#FF5B24" opacity=".55"/><polygon points="400,430 -120.7,1511.2 -238.4,1446.1" fill="#FF5B24" opacity=".55"/><polygon points="400,430 -348.2,1368.2 -448.5,1278.5" fill="#FF5B24" opacity=".55"/><polygon points="400,430 -538.2,1178.2 -616.1,1068.4" fill="#FF5B24" opacity=".55"/><polygon points="400,430 -681.2,950.7 -732.7,826.3" fill="#FF5B24" opacity=".55"/><polygon points="400,430 -769.9,697 -792.5,564.4" fill="#FF5B24" opacity=".55"/><polygon points="400,430 -800,430 -792.5,295.6" fill="#FF5B24" opacity=".55"/><polygon points="400,430 -769.9,163 -732.7,33.7" fill="#FF5B24" opacity=".55"/><polygon points="400,430 -681.2,-90.7 -616.1,-208.4" fill="#FF5B24" opacity=".55"/><polygon points="400,430 -538.2,-318.2 -448.5,-418.5" fill="#FF5B24" opacity=".55"/><polygon points="400,430 -348.2,-508.2 -238.4,-586.1" fill="#FF5B24" opacity=".55"/><polygon points="400,430 -120.7,-651.2 3.7,-702.7" fill="#FF5B24" opacity=".55"/><polygon points="400,430 133,-739.9 265.6,-762.5" fill="#FF5B24" opacity=".55"/><polygon points="400,430 400,-770 534.4,-762.5" fill="#FF5B24" opacity=".55"/><polygon points="400,430 667,-739.9 796.3,-702.7" fill="#FF5B24" opacity=".55"/><polygon points="400,430 920.7,-651.2 1038.4,-586.1" fill="#FF5B24" opacity=".55"/><polygon points="400,430 1148.2,-508.2 1248.5,-418.5" fill="#FF5B24" opacity=".55"/><polygon points="400,430 1338.2,-318.2 1416.1,-208.4" fill="#FF5B24" opacity=".55"/><polygon points="400,430 1481.2,-90.7 1532.7,33.7" fill="#FF5B24" opacity=".55"/><polygon points="400,430 1569.9,163 1592.5,295.6" fill="#FF5B24" opacity=".55"/><circle cx="400" cy="430" r="250" fill="#FF5B24"/><path d="M90 1000C100 820 220 740 400 730C580 740 700 820 710 1000Z" fill="#0D0F2E"/><path d="M330 735L400 900L470 735" fill="#C98E66"/><path d="M300 742L400 905L380 1000H330Z" fill="#FF5B24"/><path d="M500 742L400 905L420 1000H470Z" fill="#FF5B24" opacity=".85"/><circle cx="655.4" cy="981.1" r="5.3" fill="#FFF2D9" opacity=".35"/><circle cx="167.5" cy="962" r="9.4" fill="#FFF2D9" opacity=".35"/><circle cx="495" cy="872.4" r="8.6" fill="#FFF2D9" opacity=".35"/><circle cx="459.8" cy="918.8" r="6" fill="#FFF2D9" opacity=".35"/><circle cx="361.2" cy="886.9" r="9.3" fill="#FFF2D9" opacity=".35"/><circle cx="677.1" cy="981.4" r="8.3" fill="#FFF2D9" opacity=".35"/><circle cx="369.1" cy="865.6" r="5.2" fill="#FFF2D9" opacity=".35"/><circle cx="135.4" cy="899" r="6.9" fill="#FFF2D9" opacity=".35"/><circle cx="332.8" cy="971.6" r="8.2" fill="#FFF2D9" opacity=".35"/><circle cx="433.9" cy="860.1" r="5.1" fill="#FFF2D9" opacity=".35"/><circle cx="302.1" cy="843.2" r="8.1" fill="#FFF2D9" opacity=".35"/><circle cx="679.3" cy="934.7" r="6.1" fill="#FFF2D9" opacity=".35"/><circle cx="620.4" cy="955.4" r="9.4" fill="#FFF2D9" opacity=".35"/><circle cx="627.7" cy="949.7" r="9.7" fill="#FFF2D9" opacity=".35"/><circle cx="318.1" cy="986.8" r="10.8" fill="#FFF2D9" opacity=".35"/><circle cx="210.3" cy="948.2" r="9.3" fill="#FFF2D9" opacity=".35"/><circle cx="378.4" cy="910.2" r="7.9" fill="#FFF2D9" opacity=".35"/><circle cx="637.9" cy="905.1" r="10" fill="#FFF2D9" opacity=".35"/><circle cx="318.2" cy="970.1" r="10.4" fill="#FFF2D9" opacity=".35"/><circle cx="378.2" cy="916.5" r="10.5" fill="#FFF2D9" opacity=".35"/><circle cx="525.3" cy="902.7" r="6.3" fill="#FFF2D9" opacity=".35"/><circle cx="301.8" cy="938.9" r="6" fill="#FFF2D9" opacity=".35"/><circle cx="628.4" cy="865.6" r="10.5" fill="#FFF2D9" opacity=".35"/><circle cx="293.4" cy="982.8" r="9.2" fill="#FFF2D9" opacity=".35"/><circle cx="402.4" cy="908" r="8.9" fill="#FFF2D9" opacity=".35"/><circle cx="449.2" cy="873" r="6.2" fill="#FFF2D9" opacity=".35"/><rect x="355" y="600" width="90" height="150" rx="40" fill="#C98E66"/><ellipse cx="400" cy="480" rx="150" ry="175" fill="#C98E66"/><path d="M240 470C230 300 330 250 410 255C520 260 580 340 560 470C540 380 470 350 400 345C330 350 260 380 240 470Z" fill="#14163F"/><circle cx="400" cy="250" r="62" fill="#14163F"/><rect x="430" y="210" width="10" height="70" fill="#FFB830" transform="rotate(30 435 245)"/><ellipse cx="248" cy="500" rx="20" ry="34" fill="#C98E66"/><ellipse cx="552" cy="500" rx="20" ry="34" fill="#C98E66"/><rect width="800" height="1000" filter="url(#grain)"/></svg>
