<svg xmlns="http://www.w3.org/2000/svg" viewBox="0 0 800 1000" width="800" height="1000" role="img" aria-label="Poster portrait of Kenta Mizushima, volunteer lead, in a cap against an orange burst"><defs><filter id="grain" x="0" y="0" width="100%" height="100%"><feTurbulence type="fractalNoise" baseFrequency=".9" numOctaves="2" stitchTiles="stitch"/><feColorMatrix values="0 0 0 0 1  0 0 0 0 .95  0 0 0 0 .85  0 0 0 .07 0"/></filter><filter id="glow" x="-50%" y="-50%" width="200%" height="200%"><feGaussianBlur stdDeviation="9"/></filter><filter id="glow2" x="-50%" y="-50%" width="200%" height="200%"><feGaussianBlur stdDeviation="22"/></filter><filter id="soft" x="-20%" y="-20%" width="140%" height="140%"><feGaussianBlur stdDeviation="2.2"/></filter></defs><rect width="800" height="1000" fill="#0D0F2E"/><polygon points="400,430 1600,430 1592.5,564.4" fill="#FF8A4F" opacity=".55"/><polygon points="400,430 1569.9,697 1532.7,826.3" fill="#FF8A4F" opacity=".55"/><polygon points="400,430 1481.2,950.7 1416.1,1068.4" fill="#FF8A4F" opacity=".55"/><polygon points="400,430 1338.2,1178.2 1248.5,1278.5" fill="#FF8A4F" opacity=".55"/><polygon points="400,430 1148.2,1368.2 1038.4,1446.1" fill="#FF8A4F" opacity=".55"/><polygon points="400,430 920.7,1511.2 796.3,1562.7" fill="#FF8A4F" opacity=".55"/><polygon points="400,430 667,1599.9 534.4,1622.5" fill="#FF8A4F" opacity=".55"/><polygon points="400,430 400,1630 265.6,1622.5" fill="#FF8A4F" opacity=".55"/><polygon points="400,430 133,1599.9 3.7,1562.7" fill="#FF8A4F" opacity=".55"/><polygon points="400,430 -120.7,1511.2 -238.4,1446.1" fill="#FF8A4F" opacity=".55"/><polygon points="400,430 -348.2,1368.2 -448.5,1278.5" fill="#FF8A4F" opacity=".55"/><polygon points="400,430 -538.2,1178.2 -616.1,1068.4" fill="#FF8A4F" opacity=".55"/><polygon points="400,430 -681.2,950.7 -732.7,826.3" fill="#FF8A4F" opacity=".55"/><polygon points="400,430 -769.9,697 -792.5,564.4" fill="#FF8A4F" opacity=".55"/><polygon points="400,430 -800,430 -792.5,295.6" fill="#FF8A4F" opacity=".55"/><polygon points="400,430 -769.9,163 -732.7,33.7" fill="#FF8A4F" opacity=".55"/><polygon points="400,430 -681.2,-90.7 -616.1,-208.4" fill="#FF8A4F" opacity=".55"/><polygon points="400,430 -538.2,-318.2 -448.5,-418.5" fill="#FF8A4F" opacity=".55"/><polygon points="400,430 -348.2,-508.2 -238.4,-586.1" fill="#FF8A4F" opacity=".55"/><polygon points="400,430 -120.7,-651.2 3.7,-702.7" fill="#FF8A4F" opacity=".55"/><polygon points="400,430 133,-739.9 265.6,-762.5" fill="#FF8A4F" opacity=".55"/><polygon points="400,430 400,-770 534.4,-762.5" fill="#FF8A4F" opacity=".55"/><polygon points="400,430 667,-739.9 796.3,-702.7" fill="#FF8A4F" opacity=".55"/><polygon points="400,430 920.7,-651.2 1038.4,-586.1" fill="#FF8A4F" opacity=".55"/><polygon points="400,430 1148.2,-508.2 1248.5,-418.5" fill="#FF8A4F" opacity=".55"/><polygon points="400,430 1338.2,-318.2 1416.1,-208.4" fill="#FF8A4F" opacity=".55"/><polygon points="400,430 1481.2,-90.7 1532.7,33.7" fill="#FF8A4F" opacity=".55"/><polygon points="400,430 1569.9,163 1592.5,295.6" fill="#FF8A4F" opacity=".55"/><circle cx="400" cy="430" r="250" fill="#FF8A4F"/><path d="M90 1000C100 820 220 740 400 730C580 740 700 820 710 1000Z" fill="#232870"/><path d="M330 735L400 900L470 735" fill="#E8B48C"/><path d="M300 742L400 905L380 1000H330Z" fill="#FF5B24"/><path d="M500 742L400 905L420 1000H470Z" fill="#FF5B24" opacity=".85"/><circle cx="468.8" cy="946.1" r="9.8" fill="#FFF2D9" opacity=".35"/><circle cx="647.8" cy="945.8" r="10.5" fill="#FFF2D9" opacity=".35"/><circle cx="136.2" cy="899.2" r="10.7" fill="#FFF2D9" opacity=".35"/><circle cx="483.4" cy="973.2" r="5.7" fill="#FFF2D9" opacity=".35"/><circle cx="382.7" cy="861.9" r="8.3" fill="#FFF2D9" opacity=".35"/><circle cx="441.4" cy="822.2" r="6.3" fill="#FFF2D9" opacity=".35"/><circle cx="276.5" cy="975.8" r="9.6" fill="#FFF2D9" opacity=".35"/><circle cx="209.4" cy="955.5" r="5.8" fill="#FFF2D9" opacity=".35"/><circle cx="465.8" cy="841.5" r="5" fill="#FFF2D9" opacity=".35"/><circle cx="608" cy="855.6" r="6.3" fill="#FFF2D9" opacity=".35"/><circle cx="670.2" cy="968.3" r="6.7" fill="#FFF2D9" opacity=".35"/><circle cx="658.4" cy="911.7" r="9.1" fill="#FFF2D9" opacity=".35"/><circle cx="234.7" cy="980" r="9.1" fill="#FFF2D9" opacity=".35"/><circle cx="661.3" cy="971.9" r="6.8" fill="#FFF2D9" opacity=".35"/><circle cx="322.3" cy="848.2" r="5.9" fill="#FFF2D9" opacity=".35"/><circle cx="156.5" cy="871.2" r="8.6" fill="#FFF2D9" opacity=".35"/><circle cx="121.9" cy="935.2" r="7" fill="#FFF2D9" opacity=".35"/><circle cx="293.6" cy="959.1" r="7.9" fill="#FFF2D9" opacity=".35"/><circle cx="296.8" cy="901.8" r="9.2" fill="#FFF2D9" opacity=".35"/><circle cx="151.9" cy="985.8" r="5.1" fill="#FFF2D9" opacity=".35"/><circle cx="539.9" cy="963.6" r="5.1" fill="#FFF2D9" opacity=".35"/><circle cx="561.1" cy="882.3" r="8.5" fill="#FFF2D9" opacity=".35"/><circle cx="125.1" cy="827.9" r="6.1" fill="#FFF2D9" opacity=".35"/><circle cx="654.9" cy="853.4" r="9.5" fill="#FFF2D9" opacity=".35"/><circle cx="640.6" cy="980.1" r="7.1" fill="#FFF2D9" opacity=".35"/><circle cx="318.7" cy="909.2" r="9.7" fill="#FFF2D9" opacity=".35"/><rect x="355" y="600" width="90" height="150" rx="40" fill="#E8B48C"/><ellipse cx="400" cy="480" rx="150" ry="175" fill="#E8B48C"/><path d="M250 440C240 300 330 280 400 280C480 280 560 310 550 440C530 380 470 365 400 365C330 365 270 380 250 440Z" fill="#2A1A14"/><path d="M230 420Q400 230 570 420Q560 370 400 350Q240 370 230 420Z" fill="#FFB830"/><rect x="225" y="410" width="350" height="22" rx="10" fill="#FFB830"/><ellipse cx="248" cy="500" rx="20" ry="34" fill="#E8B48C"/><ellipse cx="552" cy="500" rx="20" ry="34" fill="#E8B48C"/><rect width="800" height="1000" filter="url(#grain)"/></svg>
