<svg xmlns="http://www.w3.org/2000/svg" viewBox="0 0 800 1000" width="800" height="1000" preserveAspectRatio="xMidYMid slice">
  <defs>
    <linearGradient id="bg" x1="0" y1="0" x2="0" y2="1"><stop offset="0" stop-color="#E9E3D6"/><stop offset=".62" stop-color="#E3DCCD"/><stop offset=".62" stop-color="#D9D1C1"/><stop offset="1" stop-color="#CFC6B4"/></linearGradient>
    <radialGradient id="glaze" cx=".4" cy=".25" r=".9"><stop offset="0" stop-color="#5B544B"/><stop offset=".55" stop-color="#2A2724"/><stop offset="1" stop-color="#151413"/></radialGradient>
    <linearGradient id="drip" x1="0" y1="0" x2="0" y2="1"><stop offset="0" stop-color="#C9B9A0"/><stop offset="1" stop-color="#C9B9A0" stop-opacity="0"/></linearGradient>
    <filter id="sh"><feGaussianBlur stdDeviation="14"/></filter>
    <filter id="grain" x="0" y="0" width="100%" height="100%"><feTurbulence type="fractalNoise" baseFrequency="0.85" numOctaves="3" seed="7" result="n"/><feColorMatrix in="n" type="matrix" values="0 0 0 0 0.12  0 0 0 0 0.11  0 0 0 0 0.10  0 0 0 0.09 0"/></filter>
  </defs>
  <rect width="800" height="1000" fill="url(#bg)"/>
  <ellipse cx="400" cy="740" rx="230" ry="26" fill="#3B3632" opacity=".35" filter="url(#sh)"/>
  <path d="M190 470 C 196 610 270 712 400 716 C 530 712 604 610 610 470 Z" fill="url(#glaze)"/>
  <path d="M190 470 C 260 486 540 486 610 470 C 606 500 596 520 586 540 C 520 520 470 560 430 520 C 380 580 330 530 280 556 C 240 540 214 552 200 530 C 194 512 191 492 190 470Z" fill="url(#drip)" opacity=".7"/>
  <ellipse cx="400" cy="470" rx="210" ry="22" fill="#1A1816"/>
  <ellipse cx="400" cy="468" rx="196" ry="15" fill="#3A342E"/>
  <rect x="340" y="712" width="120" height="16" rx="3" fill="#8E8273"/>
  <rect width="800" height="1000" filter="url(#grain)"/>
</svg>
